<?xml version="1.0" standalone="no"?>
<!DOCTYPE svg PUBLIC "-//W3C//DTD SVG 1.1//EN" "http://www.w3.org/Graphics/SVG/1.1/DTD/svg11.dtd" >
<svg xmlns="http://www.w3.org/2000/svg" xmlns:xlink="http://www.w3.org/1999/xlink" version="1.1">
<metadata>
Created by FontForge 20170731 at Tue May  8 13:07:09 2007
 By Aleksey,,,
Copyright (c) 1992 Adobe Systems Incorporated.  All Rights Reserved.Block Berthold is a registered trademark of H. Berthold AG.
</metadata>
<defs>
<font id="BlockBE-Condensed" horiz-adv-x="458" >
  <font-face 
    font-family="Block Berthold Condensed"
    font-weight="500"
    font-stretch="condensed"
    units-per-em="1000"
    panose-1="0 0 0 0 0 0 0 0 0 0"
    ascent="800"
    descent="-200"
    x-height="547"
    cap-height="708"
    bbox="-62 -171 918 930"
    underline-thickness="50"
    underline-position="-300"
    unicode-range="U+0020-FB02"
  />
<missing-glyph horiz-adv-x="271" 
 />
    <glyph glyph-name=".notdef" horiz-adv-x="271" 
 />
    <glyph glyph-name=".null" horiz-adv-x="0" 
 />
    <glyph glyph-name="nonmarkingreturn" horiz-adv-x="333" 
 />
    <glyph glyph-name="space" unicode=" " horiz-adv-x="271" 
 />
    <glyph glyph-name="exclam" unicode="!" horiz-adv-x="271" 
d="M138 707q9 0 30 1.5t29 1.5q33 0 33 -40q0 -6 -2 -23q-2 -27 -4 -93t-3 -87l-8 -97q-2 -15 -6 -43q0 -6 -1.5 -23t-2.5 -31t-1 -15q0 -11 -2 -16q-8 -15 -25 -15q-9 0 -13 1q-3 0 -18.5 0.5t-19.5 0.5q-2 0 -10 -1t-10 -1q-3 0 -7.5 1t-11.5 7.5t-7 18.5q-3 55 -6 71
q-1 9 -5 37.5t-5 44.5l-3 63q-4 36 -5 54q0 1 -1.5 31.5t-3 65t-1.5 44.5q0 20 9 31q11 14 43 12q0 -1 38 -1zM50 143q0 18 11 27.5t27 9.5q48 0 72 -1q2 0 13 0.5t13 0.5q12 0 23.5 -8.5t11.5 -28.5q0 -10 0.5 -33.5t0.5 -32.5v-39q-1 -39 -37 -39q-3 0 -24 0.5t-25 0.5
q-7 0 -21.5 -1t-22.5 -1q-18 0 -27.5 6.5t-11 14.5t-2.5 24q0 4 0.5 29t0.5 30q0 3 -1 20t-1 21z" />
    <glyph glyph-name="quotedbl" unicode="&#x22;" horiz-adv-x="375" 
d="M357 669l-53 -261h-31l-55 250q-2 10 -2 23q0 34 23.5 51t51.5 17q25 0 46.5 -15t21.5 -49q0 -9 -2 -16zM149 669l-53 -261h-31l-55 250q-2 10 -2 23q0 34 23.5 51t51.5 17q25 0 46.5 -15t21.5 -49q0 -9 -2 -16z" />
    <glyph glyph-name="dollar" unicode="$" horiz-adv-x="417" 
d="M163 719v30q0 11 0.5 17t5.5 12t15 6q2 0 16 -0.5t17 -0.5q1 0 7.5 0.5t7.5 0.5q17 0 17 -22v-21q0 -1 -0.5 -7.5t-0.5 -8.5q0 -13 14 -13q1 0 6 0.5t6 0.5q61 0 81.5 -11.5t20.5 -32.5q0 -27 -3 -51q0 -4 0.5 -24t0.5 -23q0 -44 -40 -44h-4q-9 1 -24.5 6.5t-19.5 6.5
q-15 3 -31 3q-46 0 -46 -37q0 -15 10 -30q7 -10 44 -45q3 -3 10.5 -10t11.5 -11q2 -2 6 -5.5t5 -4.5l16 -16q51 -46 70.5 -85.5t19.5 -85.5q0 -6 -0.5 -16.5t-0.5 -15.5q-3 -62 -18 -91q-18 -38 -52.5 -60.5t-58.5 -28.5q-25 -8 -25 -21q0 -4 1 -27.5t1 -28.5q0 -19 -25 -20
h-40q-20 0 -20 22q-1 45 -5 54.5t-22 9.5q-8 0 -22 2q-31 4 -44 6.5t-30.5 8t-24 14.5t-6.5 23q0 5 2 35t2 36q0 3 -1 20.5t-1 21.5q0 41 37 41q20 0 34 -10q2 -2 6.5 -6t8 -7t6.5 -5q15 -11 53 -11q55 0 55 38q0 23 -36 56q-20 18 -23 21q-4 3 -24 24t-23 25q-55 51 -71 90
q-13 33 -13 97q0 50 15 93q4 12 20 39q29 46 86 60q20 2 20 17z" />
    <glyph glyph-name="percent" unicode="%" horiz-adv-x="750" 
d="M16 495q0 57 9 102q8 32 30.5 62t53.5 39q28 7 51 7q45 0 72 -22q42 -30 54 -107q8 -48 8 -132q0 -12 -6 -58q-5 -41 -11 -59q-28 -80 -126 -80q-51 0 -88 32q-17 14 -28 44q-19 51 -19 172zM175 435v102q0 52 -21 52q-17 0 -20 -23q-3 -16 -3 -86q0 -3 0.5 -20t0.5 -20
q0 -2 -0.5 -14.5t-0.5 -15.5q0 -50 22 -50q15 0 18.5 16.5t3.5 58.5zM456 237q0 10 2 28.5t2 24.5q3 50 13 75q35 85 124 85q53 0 91 -35q20 -23 26 -46q20 -58 20 -166q0 -109 -30 -155q-35 -55 -114 -55q-43 0 -80 26q-23 18 -35 49q-14 36 -17 107q0 3 -1 31.5t-1 30.5z
M614 159v119q0 21 -2 39q-4 17 -18 17q-13 0 -18 -16q-4 -16 -4 -66q0 -7 -0.5 -48.5t-0.5 -49.5q0 -48 21 -48q22 0 22 53zM170 9q0 10 11 28q3 8 23 49t22 45q4 8 27 63t28 66q6 12 17 33.5t14 27.5q8 17 21 49t19 46q11 25 35 73q11 23 30 66t26 58q4 10 12 26.5t10 22.5
q11 23 16.5 29t18.5 6q2 0 7 -0.5t8 -0.5q16 -2 27 -2q2 0 15 0.5t15 0.5q15 0 15 -11q0 -6 -12 -30q-3 -8 -7.5 -16.5t-10.5 -18.5t-9 -16q-5 -9 -26 -59.5t-25 -58.5q-7 -16 -23.5 -49t-23.5 -50q-8 -18 -22.5 -53.5t-22.5 -53.5q-16 -32 -24 -49q-60 -122 -96 -214
q-6 -16 -31 -16q-3 0 -20.5 1t-21.5 1q-2 0 -14 -1t-14 -1q-14 0 -14 9z" />
    <glyph glyph-name="ampersand" unicode="&#x26;" horiz-adv-x="542" 
d="M379 278q18 21 17 47q0 1 -0.5 6.5t-0.5 6.5q0 11 7 18.5t20 7.5q2 0 5.5 -0.5t5.5 -0.5q14 -2 39 -2q2 0 14.5 1t14.5 1q26 0 26 -24q0 -43 -16 -100q-11 -37 -34 -73q-17 -24 -17 -33q0 -4 18 -35q41 -72 41 -81q0 -16 -24 -16q-3 0 -28 1.5t-30 1.5q-7 0 -21 -0.5
t-21 -0.5q-2 0 -11 -1h-9q-6 0 -10 4t-20 27q-71 -39 -132 -39q-58 0 -104 30q-41 28 -67 80q-15 30 -20.5 50.5t-5.5 56.5q0 44 7 71.5t28 57.5q18 27 53 54q2 2 7.5 6t8.5 6q20 16 20 28q0 5 -9 23q-24 40 -24 93q0 70 37 115q19 22 52.5 37t62.5 15q57 0 91 -19
q74 -44 74 -133q0 -65 -29 -116q-20 -34 -52 -66q-13 -16 -13 -21q0 -3 7 -17q3 -4 8 -12t14.5 -24t19.5 -31zM261 494q36 30 36 61q0 16 -10 23.5t-19 7.5q-10 0 -19 -10.5t-9 -26.5q0 -34 21 -55zM208 274q-8 -4 -12 -9q-17 -19 -17 -45q0 -8 2 -17t8 -21t19.5 -19.5
t33.5 -7.5q10 0 25 4q-1 1 -2 3.5t-1 3.5q-8 12 -13 22q-30 58 -35 69q-7 15 -8 17z" />
    <glyph glyph-name="quotesingle" unicode="'" horiz-adv-x="208" 
d="M174 669l-53 -261h-31l-55 250q-2 10 -2 23q0 34 23.5 51t51.5 17q25 0 46.5 -15t21.5 -49q0 -9 -2 -16z" />
    <glyph glyph-name="parenleft" unicode="(" horiz-adv-x="271" 
d="M9 318v18q1 48 8 96q5 44 15 70q18 51 32 74l12 18t19.5 28.5t9.5 14.5q25 34 62.5 53t58.5 19q10 0 16 -5.5t6 -13.5q0 -2 -1 -10t-1 -9q0 -3 -1 -22t-1 -23q0 -35 3 -56q1 -15 1 -19q0 -5 -2 -11q-3 -6 -16 -20q-27 -31 -39 -106q-8 -48 -8 -90q0 -14 1 -21
q0 -4 2 -11.5t2 -11.5q0 -3 0.5 -8.5t0.5 -8.5q0 -2 4.5 -39t5.5 -39q9 -56 38 -87q15 -14 15 -24q0 -4 -2 -29t-2 -30q0 -24 2 -50q0 -1 1 -9.5t1 -10.5q0 -6 -4.5 -12t-12.5 -6q-37 0 -77 21q-33 17 -49.5 36.5t-33.5 52.5q-6 12 -10 18q-22 34 -32 71q-1 6 -3.5 16.5
t-3.5 15.5q0 4 -6.5 48t-7.5 47q-3 33 -3 65z" />
    <glyph glyph-name="parenright" unicode=")" horiz-adv-x="271" 
d="M18 689q0 20 20 20q15 0 39 -8q43 -11 77 -44q16 -15 39 -56q6 -15 22 -35q18 -30 29 -95q1 -4 6.5 -42.5l6.5 -45.5q3 -31 3 -63q0 -56 -5 -96q-3 -35 -11 -66q-3 -15 -16 -48.5t-24 -50.5q-8 -15 -27 -40q-18 -28 -41 -48q-22 -19 -50 -31.5t-44 -12.5q-11 0 -16.5 7
t-5.5 14q0 13 2 17q2 19 2 44q0 17 -2 51q0 2 -1 13t-1 13q0 9 18 31q26 28 40 100q0 1 4 46t4 54q0 11 -4 39q-1 4 -5.5 46t-6.5 51q-11 56 -38 84q-11 11 -13 14.5t-2 12.5q0 4 2 32.5t2 34.5q0 36 -1 40q-2 12 -2 18z" />
    <glyph glyph-name="asterisk" unicode="*" horiz-adv-x="313" 
d="M179 508l7 -45q6 -30 6 -31q0 -14 -15 -20q-7 -3 -30 -3q-28 0 -28 21q0 3 9 81q-13 -8 -37 -25q-31 -23 -42 -23t-20 14l-3 7q-4 7 -7.5 15t-3.5 12q0 7 6 13q7 6 78 31l-6 3q-5 3 -11.5 5.5t-15 6t-13.5 5.5q-25 10 -32.5 16t-7.5 14t11.5 27.5t23.5 19.5q7 0 40 -23
q24 -18 39 -26q0 10 -2 27q-1 4 -1 13t-1 14q0 2 -1 14.5t-1 15.5q0 21 27 21q44 0 44 -23q-10 -68 -11 -81q25 18 60 42q13 9 19 9q9 0 15 -7t15 -26q5 -8 5 -15q0 -13 -20 -22q-13 -5 -32.5 -14.5t-32.5 -14.5q4 -2 23.5 -11t21.5 -10q36 -15 36 -28q0 -11 -13 -30.5
t-25 -19.5q-6 0 -19 10q-3 3 -8.5 6.5t-8.5 6.5q-16 9 -38 28z" />
    <glyph glyph-name="comma" unicode="," horiz-adv-x="208" 
d="M88 179q4 0 27 0.5t27 0.5q24 0 36 -10q7 -6 9 -16.5t2 -49.5q0 -4 -0.5 -22t-0.5 -21v-27q0 -33 -27 -81q-16 -28 -21 -31q-7 -7 -59 -7h-17q-8 0 -13 5t-5 10q0 2 6 13q10 15 10 33q0 20 -13 25q-2 1 -7.5 1.5t-8.5 2.5q-11 5 -11 21q0 2 0.5 10t0.5 10t-1 14t-1 15
q0 2 0.5 16.5t0.5 17.5t-0.5 17t-0.5 16q0 19 12 28.5t26 9.5q2 0 14 -0.5t15 -0.5z" />
    <glyph glyph-name="hyphen" unicode="-" horiz-adv-x="250" 
d="M163 346q3 0 15 1.5t15 1.5h16q10 0 17 -5.5t7 -14.5q0 -1 -0.5 -10t-0.5 -11v-74q0 -26 -27 -26h-26q-40 4 -68 4h-10q-14 -2 -20 -3t-20 -1q-1 0 -10.5 -0.5t-11.5 -0.5q-7 0 -14 6t-7 20q0 7 0.5 23t0.5 22q0 3 -0.5 22t-0.5 23q0 25 20 25q1 0 27.5 -1.5t32.5 -1.5
q3 0 20.5 1.5t21.5 1.5q2 0 11.5 -1t11.5 -1z" />
    <glyph glyph-name="period" unicode="." horiz-adv-x="208" 
d="M18 140q0 23 17 34q9 6 44 5h72q37 0 37 -33q0 -5 -0.5 -34.5t-0.5 -35.5q0 -2 0.5 -15t0.5 -15q0 -42 -29 -45q-8 -1 -57 -1q-41 0 -51 1q-33 3 -33 34q0 2 0.5 14t0.5 14l-1 21q-1 22 0 26v30z" />
    <glyph glyph-name="slash" unicode="/" horiz-adv-x="354" 
d="M4 22q0 4 6.5 29t14 53.5t8.5 34.5q1 3 2.5 10t2.5 10q3 10 10.5 29t8.5 21q7 20 15 57.5t13 52.5q4 13 15 41.5t16 43.5l21 75q5 16 10 29q2 5 10 34t9 31q10 26 14 39q5 16 10 43q7 28 16 39t30 11q8 0 23.5 0.5t23.5 0.5q21 0 30 -0.5t18.5 -2.5t12.5 -6.5t3 -13.5
q0 -4 -1.5 -10l-3.5 -14t-3 -11q-3 -10 -10 -30.5t-11 -30.5q-8 -26 -11 -39q-6 -32 -10 -48q-1 -3 -17 -51.5t-19 -59.5q-13 -51 -15 -56q-3 -11 -11.5 -33t-12.5 -33q-3 -9 -6.5 -26.5t-5.5 -26.5q-1 -3 -10 -35.5t-9 -33.5q-1 -4 -5 -12.5t-5 -12.5q-9 -28 -15 -55
q-1 -5 -3.5 -17t-4.5 -18q-7 -29 -25 -29h-106q-11 0 -17 6.5t-6 14.5z" />
    <glyph glyph-name="zero" unicode="0" horiz-adv-x="500" 
d="M30 376q0 25 5.5 89t9.5 82q30 101 95 142q45 27 113 27q80 0 125 -39q16 -14 26.5 -27t24.5 -40.5t23 -73t13 -109.5q2 -27 2 -118q0 -27 -6 -77q-5 -41 -8 -59t-10 -43t-18 -44q-54 -93 -181 -93q-73 0 -126 38q-47 32 -66 105q-15 54 -18 120q-1 12 -1.5 34t-0.5 29
q-2 38 -2 57zM287 264v79q0 6 1 45t1 46q0 106 -41 106q-15 0 -25 -16q-17 -25 -17 -87q0 -6 0.5 -18t0.5 -18q0 -3 -1 -19.5t-1 -19.5q0 -2 0.5 -15t0.5 -16q0 -13 -1 -22q-1 -12 -1 -52q0 -64 17 -83q9 -11 25 -11q13 0 23 12q16 23 18 89z" />
    <glyph glyph-name="one" unicode="1" horiz-adv-x="500" 
d="M212 303v61l3 27q0 3 -0.5 18.5t-0.5 18.5q0 2 0.5 17.5t0.5 18.5q0 36 -9 36q-5 0 -44 -39q-20 -24 -29 -24q-4 0 -18 7q-28 24 -43 32q-17 10 -17 24q0 6 7 17q1 2 26 25q17 15 43 45q1 1 22 23t28 28q24 21 31 29q22 25 29.5 30.5t21.5 5.5q5 0 17 -2q20 -2 47 -2
q16 0 24 1q10 2 15 2q18 0 24 -14q3 -5 3 -44q0 -5 -1 -38t-1 -39q0 -4 -1 -26t-1 -26q-1 -13 1 -47q0 -3 -0.5 -25.5t-0.5 -26.5q0 -2 1 -17t1 -18q0 -6 -1 -42t-1 -43q0 -2 0.5 -17t0.5 -18q0 -12 -2 -36q-1 -20 -1 -76q0 -8 2 -57t2 -58q0 -34 -42 -34q-4 0 -30.5 2
t-31.5 2q-3 0 -23 -1.5t-24 -1.5q-35 0 -35 32q0 2 1 10.5t2 22.5t2 26q3 27 3 56q0 6 -1.5 41t-1.5 42q0 12 1 36t1 36z" />
    <glyph glyph-name="two" unicode="2" horiz-adv-x="479" 
d="M261 150h70q2 0 17.5 -0.5t18.5 -0.5t25 1t26 1q28 0 28 -24q0 -3 -0.5 -20.5t-0.5 -20.5v-54q0 -12 -2 -16q-6 -16 -25 -16q-6 0 -41 1.5t-41 1.5q-15 0 -44.5 -0.5t-44.5 -0.5q-6 0 -41.5 0.5t-42.5 0.5q-5 0 -37.5 -1t-38.5 -1q-2 0 -15 -0.5t-16 -0.5q-27 0 -30 30
q0 3 0.5 25.5t0.5 26.5v25q0 11 4 18.5t8 11.5t16 13q12 8 49 45t48 51q4 5 7.5 10.5t7.5 12t6 10.5l6 7q6 8 15 20.5t16 21.5q56 71 56 164q0 58 -45 58q-20 0 -31 -23.5t-11 -49.5q0 -2 1.5 -17t1.5 -18q0 -29 -32 -31q-2 0 -18.5 0.5t-20.5 0.5q-3 0 -24 -0.5t-25 -0.5
q-15 0 -22 8.5t-8 17t0 23.5v43q0 85 34 134q30 43 88 57q43 12 83 12q36 0 51 -3q2 0 16 -4.5t34.5 -13.5t33.5 -18q38 -29 58 -78q18 -44 18 -86q0 -57 -7 -89q-7 -41 -32 -84q-3 -5 -9 -14.5t-9 -14.5q-2 -4 -7 -13t-7 -13q-6 -11 -22 -33q-39 -50 -94 -92z" />
    <glyph glyph-name="three" unicode="3" 
d="M152 437h18q26 0 40 6q17 8 25 24.5t8 30.5q0 18 -12 33t-38 15q-37 0 -65 -35q-1 -2 -4 -6.5l-5 -7.5q-10 -12 -22 -12q-14 0 -29 22l-28 35q-2 2 -5.5 7t-5.5 8q-12 14 -15 19q-3 6 -3 12q0 17 26 41q7 6 23 20.5t22 19.5q26 23 58 35q39 13 82 13q32 0 74 -14
q54 -17 79 -55q37 -56 37 -113q0 -76 -44 -120q-16 -17 -16 -27q0 -7 4 -14q3 -3 9.5 -9t8.5 -8q7 -6 13 -12t10 -11t5 -6q21 -30 26 -53.5t5 -60.5q0 -55 -13.5 -83.5t-50.5 -69.5q-24 -24 -42 -35.5t-60 -23.5q-37 -9 -78 -9q-46 0 -74.5 10.5t-62.5 37.5q-53 41 -53 76
q0 13 24 44q35 45 45 54.5t21 9.5q13 0 23 -12q3 -3 6.5 -8.5t5.5 -7.5q31 -35 60 -35q32 0 52 21t20 53q0 9 -4.5 21t-22.5 25.5t-47 13.5q-1 0 -12.5 -1t-13.5 -1q-14 0 -26 18q-1 4 -1 30q0 4 -1 30.5t-1 31.5q0 33 25 33z" />
    <glyph glyph-name="four" unicode="4" horiz-adv-x="479" 
d="M203 151h-34q-5 0 -30 0.5t-29 0.5q-25 0 -37 -1q-3 0 -17.5 -1t-15.5 -1q-20 0 -20 26q0 2 1.5 17t1.5 18t-1 20t-1 20q0 24 13 53q1 3 24 49t27 56q10 24 15 37q5 10 24 45l18 34q17 28 23 39q32 59 41 72q11 13 24 38q10 19 18 25t21 6q1 0 10 -0.5t15 -0.5
q20 -2 25 -2t27 2q7 0 17 0.5t11 0.5q22 0 27 -13q2 -5 2 -38q0 -13 -1 -19q0 -8 -2 -22q-1 -7 -1 -21q0 -13 0.5 -46t0.5 -45q0 -4 -0.5 -26t-0.5 -26t1 -25t1 -24q0 -4 -1.5 -30t-1.5 -31l3 -45h38q27 0 27 -30q0 -2 -1 -17t-1 -18v-48q0 -16 -3 -21q-5 -9 -15 -9
q-1 0 -15 0.5t-15 0.5q-10 0 -13 -8q-5 -8 -5 -42q0 -4 1.5 -29t1.5 -30q0 -24 -5 -30q-11 -11 -25 -11q-7 0 -11 1q-12 1 -38 1q-23 0 -42 -1h-19q-4 -1 -12 -1q-14 0 -21.5 6t-7.5 23q0 2 2 17.5t2 18.5v20v8q0 9 0.5 18t0.5 12q0 24 -22 27zM231 366v74q0 11 -1 16
q0 10 -6 10q-9 0 -39 -75q-6 -18 -19 -39q-2 -3 -10 -19q0 -2 -2 -6t-2 -6q-10 -15 -10 -20q0 -8 17 -8q3 0 25 -1t26 -1q12 0 15 10q2 4 2 21q0 4 2 22t2 22z" />
    <glyph glyph-name="five" unicode="5" 
d="M63 617v50q0 17 14.5 28.5t27.5 11.5q3 0 8 -0.5t8 -0.5q10 -1 72 -1q4 0 32 1t33 1q3 0 21 -0.5t22 -0.5q49 0 58 1q5 1 13 1q29 0 29 -35q0 -3 -0.5 -17t-0.5 -17q0 -4 0.5 -27t0.5 -27q0 -35 -24 -35q-3 0 -32 1t-35 1h-57q-34 0 -40.5 -5.5t-6.5 -31.5q0 -13 15 -28
q1 0 9 0.5t10 0.5q46 0 81 -15.5t68 -66.5q34 -56 39 -100q1 -11 1 -34q0 -2 1 -13.5t1 -14.5q0 -21 -4 -45q-5 -30 -9 -42q-9 -34 -31 -65.5t-36.5 -44t-25.5 -19.5q-50 -34 -116 -34q-46 0 -82 11q-22 7 -53 26.5t-49 41.5q-26 31 -26 52q0 10 4 18q3 4 27 26q3 0 35 32
q19 22 32 22t22 -12q2 -2 3.5 -4.5t3 -5.5l2.5 -5q6 -9 15 -15q17 -13 44 -13q28 0 45.5 20t17.5 53q0 48 -30 73q-24 18 -73 18q-18 0 -32 -7q-14 -8 -18 -8q-13 0 -28 15q-8 7 -9.5 11.5t-0.5 20.5v15q0 13 1 19q0 8 1 54l1 47q0 4 -1 30.5t-1 31.5q0 1 1 13l1 13
q1 10 1 30z" />
    <glyph glyph-name="six" unicode="6" horiz-adv-x="500" 
d="M382 560h-10q-6 0 -17.5 -1t-16.5 -1q-28 -1 -37.5 -4t-27.5 -15q-33 -21 -46 -60q-6 -19 -5 -38q50 30 91 30q36 0 80 -25.5t65 -79.5q15 -41 15 -123q0 -74 -18 -120q-17 -44 -44 -69q-39 -39 -88 -49q-37 -8 -63 -8q-53 0 -74 9l-39 15q-9 4 -25 14q-50 34 -69.5 100
t-19.5 174q0 70 6 106q1 7 3.5 20t2.5 15q11 69 35 113q43 81 139 121q36 16 59.5 19.5t70.5 3.5h19q3 -1 19 -2.5t19 -1.5q12 -1 19 -3t13 -11t6 -24q0 -4 -1.5 -30.5t-1.5 -31.5q0 -2 1 -15t1 -16q0 -19 -22 -19q-3 0 -11 1.5t-17 3.5t-11 2zM253 325q-12 0 -22.5 -10
t-12.5 -31q-2 -18 -2 -66q0 -44 15 -64q11 -13 26 -13q14 0 25 12t13 34q0 1 1 35l2 34q0 69 -45 69z" />
    <glyph glyph-name="seven" unicode="7" horiz-adv-x="417" 
d="M40 701q3 0 20 -1.5t21 -1.5t30 1t31 1h60q3 0 26.5 0.5t27.5 0.5q10 0 28 -0.5t27 -0.5q4 0 27.5 1t28.5 1h13q1 0 6.5 0.5t6.5 0.5q8 0 12 -6.5t3.5 -13.5t-0.5 -11v-42q0 -18 -13 -47q-19 -43 -27 -78q-6 -26 -15 -52q-2 -7 -14.5 -56t-15.5 -59q-2 -8 -7 -22
t-8.5 -25.5t-5.5 -21.5t-10 -57q-3 -12 -8.5 -36.5t-7.5 -36.5q-7 -40 -7 -106q0 -12 -9 -22t-30 -10q-2 0 -18.5 0.5t-19.5 0.5q-6 0 -43 -1t-44 -1q-18 0 -27 13t-9 27q0 1 0.5 3t0.5 3q0 6 11 51q2 18 4 26q1 5 9 35q2 10 6 28q4 22 12 47q2 4 5 11.5t5.5 13.5t4.5 11
q2 7 5.5 19.5t5.5 19.5q8 28 25 71q5 11 10 29q1 3 6 13.5t7 16.5q2 12 4 16q7 23 20 47q1 3 3.5 9t3.5 9q0 1 2 9t2 10q0 10 -9.5 12t-54.5 2q-5 0 -35 -1t-36 -1q-2 0 -12.5 0.5t-13.5 0.5q-2 0 -11 -1t-10 -1q-22 0 -22 37q0 2 1 17t1 18q0 5 -0.5 14t-0.5 13v12
q0 2 -0.5 8.5t-0.5 7.5q0 25 23 25z" />
    <glyph glyph-name="eight" unicode="8" horiz-adv-x="500" 
d="M389 380q3 -4 7 -7q2 -2 8 -6.5t9 -7.5l13 -13q13 -12 18 -17q17 -19 28.5 -54.5t11.5 -71.5t-13 -76q-12 -36 -36.5 -62t-40.5 -33.5t-39 -16.5q-51 -19 -99 -19q-20 0 -41 3q-12 0 -52 10q-5 1 -13 4.5t-10 4.5q-19 6 -33 14t-33.5 28.5t-35.5 52.5q-15 29 -18 48
t-3 66q0 43 22 78q21 33 32 44q12 8 17 13q2 2 13 12q9 7 14 9q-1 1 -5.5 3.5t-9 5.5t-5.5 4q-2 1 -4 2.5t-4.5 3.5t-3.5 3q-14 10 -19.5 16t-15.5 23q-13 22 -16.5 36t-3.5 52q0 21 8 48t12 34q2 3 5.5 8.5t5.5 7.5q2 4 6 11t6 10q24 30 76.5 45.5t103.5 15.5q68 0 104 -14
q3 -1 10 -4t12 -5t8 -3q9 -5 42 -39q8 -8 20 -26q24 -40 24 -88q0 -4 -5 -34q-5 -24 -13 -43q-11 -25 -25 -42q-15 -19 -39 -34zM254 462q18 12 25 23q20 25 20 48q0 19 -13.5 33.5t-34.5 14.5q-24 0 -37.5 -13t-13.5 -36q0 -44 54 -70zM248 297q-51 -37 -51 -91
q0 -28 16 -44q3 -4 13 -9.5t22 -5.5q18 0 34 15t16 53q0 22 -13.5 47t-36.5 35z" />
    <glyph glyph-name="nine" unicode="9" horiz-adv-x="500" 
d="M152 1h-19q-3 1 -19 2.5t-19 1.5q-11 1 -17.5 2.5t-13 10.5t-6.5 26q0 4 1.5 28t1.5 29q0 3 -1 19t-1 18q0 17 26 17q2 0 19 -4q12 -3 29 -3q14 0 32 3q5 1 14 1t16.5 1t13.5 4q4 2 11 6.5t9 5.5q13 8 18.5 13t13.5 17t15 31q6 19 5 37q-46 -30 -93 -30q-20 0 -49 11
q-33 13 -52 30q-18 16 -29 32t-20.5 56t-9.5 99q0 46 7.5 81t14.5 49.5t19 32.5q19 30 44 48.5t55 25.5t47.5 8.5t44.5 1.5q38 0 87 -20q32 -12 63 -43t45 -82q15 -53 15 -161q0 -86 -15 -164q-8 -34 -13 -52t-23 -51t-45 -56q-46 -41 -89 -58q-39 -16 -60.5 -20t-72.5 -4z
M244 568q-12 0 -24 -11.5t-14 -35.5l-2 -33q-1 -33 -1 -35q0 -70 45 -70q33 0 37 42q2 13 2 64q0 26 -4 39q-4 17 -13.5 27t-15 11.5t-10.5 1.5z" />
    <glyph glyph-name="colon" unicode=":" horiz-adv-x="229" 
d="M29 460q0 17 6.5 24.5t14.5 8.5t27 0q6 0 44 0.5t45 0.5q14 0 22 -10.5t8 -17.5v-17q0 -4 -0.5 -10t-0.5 -9v-66q0 -15 -1 -23.5t-9 -18t-24 -9.5q-3 0 -18.5 0.5t-17.5 0.5q-3 0 -23.5 -1t-24.5 -1q-50 0 -50 41q0 1 1 40t1 42v25zM26 110q0 35 4 47q6 15 19.5 18.5
t37.5 2.5h75q32 0 34 -28v-53q0 -4 0.5 -24.5t0.5 -23.5q0 -22 -5 -31q-11 -18 -32 -18h-59q-48 0 -57 5q-17 6 -17 29q0 2 0.5 14t0.5 15t-1 23t-1 24z" />
    <glyph glyph-name="semicolon" unicode=";" horiz-adv-x="229" 
d="M153 494q15 0 26 -8.5t11 -25.5q0 -4 0.5 -31t0.5 -33q0 -2 0.5 -17t0.5 -17q0 -47 -37 -47q-8 0 -48.5 -1.5t-44.5 -1.5q-37 0 -37 39l-1 24v28q-2 16 -2 54q0 31 31 35q8 1 69 1q2 0 15 0.5t16 0.5zM129 -85h-42q-1 0 -9 -0.5t-10 -0.5q-8 0 -13 5t-5 10q0 2 7 14
q9 15 9 32q0 9 -3 15t-5.5 8t-4.5 2q-3 2 -9 3.5t-9 2.5q-10 7 -10 18q0 2 1 11.5t1 11.5t-1 15t-1 16t0.5 18.5t0.5 17.5t-0.5 15t-0.5 15q0 14 10 24.5t27 10.5h20q4 0 30 0.5t31 0.5q30 0 42 -14q8 -11 7 -40q0 -2 0.5 -14t0.5 -14t-0.5 -14t-0.5 -15v-30q0 -36 -17 -68
q-3 -6 -9 -16.5t-8 -14.5q-15 -25 -29 -25z" />
    <glyph glyph-name="question" unicode="?" horiz-adv-x="333" 
d="M45 666q0 24 9 30.5t40 12.5q33 7 64 7q9 0 27 -2q38 -4 58 -15q65 -37 65 -126q0 -35 -6 -62q-7 -33 -22 -60q-2 -4 -30 -55q-31 -60 -31 -142q0 -30 -27 -30q-2 0 -6.5 0.5t-6.5 0.5l-9 1q-9 1 -17 1q-2 0 -14 -1t-14 -1q-13 0 -19 7.5t-7 14.5t-1 21q0 64 6.5 100.5
t28.5 91.5q9 24 9 37q0 22 -14 33t-26 11q-7 0 -13 -3q-2 0 -8.5 -3.5t-9.5 -3.5q-6 0 -13.5 4t-9.5 11q-1 1 -1.5 12.5t-0.5 12.5q0 3 0.5 20.5t0.5 20.5q0 4 -1 27t-1 27zM72 124q0 30 10 44q8 12 43 13q3 0 26 -0.5t28 -0.5q1 0 10 0.5t10 0.5q45 0 45 -38
q0 -5 -1.5 -37.5t-1.5 -38.5q0 -2 0.5 -12.5t0.5 -11.5q0 -28 -21 -39q-7 -4 -47 -4q-3 0 -21 1t-21 1q-2 0 -11 -0.5t-11 -0.5q-16 0 -26.5 11t-10.5 27q0 3 0.5 17t0.5 17t-1 25t-1 26z" />
    <glyph glyph-name="A" unicode="A" horiz-adv-x="500" 
d="M46 298q2 15 7.5 45t7.5 44q1 9 3 26.5t4 26.5q2 14 8 40t8 36q4 19 9 58.5t9 59.5q12 51 23.5 63t44.5 12q11 0 33 -2q40 -2 60 -2q25 0 75 2q28 0 39 -9t16 -37q12 -49 15 -77q1 -7 6 -46.5t6 -43.5q2 -14 16 -85t16 -80q6 -33 10 -82q4 -42 20 -126q2 -8 5.5 -24.5
t5.5 -24.5q3 -15 3 -30q0 -17 -9 -29.5t-22 -12.5q-5 0 -33.5 1.5t-34.5 1.5q-3 0 -25.5 -1.5t-26.5 -1.5q-33 0 -33 36q0 14 -4 44q-3 33 -15 38q-4 2 -64 2q-28 0 -34 -10q-3 -5 -9 -73q-1 -37 -34 -37q-3 0 -23.5 1.5t-24.5 1.5t-30 -0.5t-31 -0.5q-16 0 -24 2
q-17 5 -17 25q0 3 11.5 69t11.5 69q1 5 3.5 16.5t3.5 18.5q2 7 7.5 48t6.5 48zM219 371q-6 -30 -6 -44q0 -20 7 -28.5t23 -8.5q39 0 39 34q0 39 -6 76q-1 8 -4 24t-4 24q-1 6 -2.5 18.5t-2.5 18.5q-2 19 -12 19q-9 0 -12 -25q-3 -21 -9 -41q-3 -13 -6.5 -37t-4.5 -30z" />
    <glyph glyph-name="B" unicode="B" horiz-adv-x="521" 
d="M38 194v36q0 3 -0.5 25.5t-0.5 27.5q0 6 1.5 43t1.5 44q0 18 -1.5 52.5t-1.5 51.5q0 6 2 44t2 45q0 6 -2 43t-2 44q0 36 13 47.5t44 11.5q3 0 21.5 -1t21.5 -1q9 0 26 1t25 1q4 0 27 -1t28 -1h37q2 0 18.5 1t19.5 1q9 0 51 -6q30 -6 42 -14t32 -28q22 -24 30 -48
q1 -3 8 -32t7 -32t-0.5 -19.5t-0.5 -19.5v-14q0 -20 -14.5 -49.5t-42.5 -51.5q-16 -13 -16 -15q0 -4 9 -8q5 -3 13 -9q58 -41 67 -115q4 -28 4 -51q0 -15 -3 -29q-2 -8 -12 -34q-2 -5 -6.5 -19t-8.5 -21q-20 -42 -77 -70q-44 -21 -99 -21h-173q-4 0 -26 -1t-26 -1
q-39 0 -39 41q0 2 0.5 7.5t1.5 14t1 13.5q0 6 0.5 18t0.5 18q0 5 -1.5 39.5t-1.5 41.5zM247 571q-38 0 -38 -40q0 -38 5 -50q10 -24 40 -24q26 0 40.5 15t14.5 43q0 21 -9 34q-15 22 -53 22zM254 293q-30 0 -39 -21q-3 -5 -3 -23q0 -3 -0.5 -20t-0.5 -20q0 -26 4 -34
q10 -19 44 -19q20 0 38.5 16t18.5 51t-19 52.5t-43 17.5z" />
    <glyph glyph-name="C" unicode="C" horiz-adv-x="375" 
d="M10 371q0 54 14 126q21 98 74 143q9 7 39.5 27.5t33.5 22.5q47 25 126 25q40 0 48 -5q16 -9 16 -32q0 -2 -0.5 -8t-0.5 -8q-1 -13 -1 -39q0 -5 0.5 -38.5t0.5 -40.5q0 -16 -10 -25t-23 -9q-6 0 -14 2q-2 0 -8.5 1.5t-10.5 1.5q-6 0 -27 -7.5t-28 -13.5q-24 -20 -34 -67
q-7 -44 -7 -83q0 -80 32 -118q12 -15 37 -28t39 -13q2 0 13 2t14 2q6 0 12 -4q14 -9 14 -33q0 -3 -1 -24t-1 -25q0 -33 1 -50q0 -3 0.5 -9t0.5 -9q0 -42 -39 -42q-11 0 -35 2q-50 1 -60 3q-5 1 -14 4t-13 4q-28 8 -45 17q-33 20 -70 66q-20 26 -30 44q-24 52 -29.5 75
t-8.5 80q-2 16 -4 50q-1 11 -1 33z" />
    <glyph glyph-name="D" unicode="D" horiz-adv-x="521" 
d="M153 705q6 0 44.5 1.5t45.5 1.5q80 0 124 -26q11 -7 26 -18t40 -41t39 -64q34 -83 34 -214q0 -57 -14 -114t-42 -108q-25 -41 -54 -67.5t-61 -36.5t-53.5 -13t-51.5 -3q-4 0 -26.5 1.5t-27.5 1.5t-37.5 -2.5t-38.5 -2.5q-15 0 -22.5 1t-18.5 4.5t-16 14t-5 26.5
q0 3 0.5 10t0.5 11q1 4 1 12.5v12.5q0 3 1.5 25t1.5 26q0 10 -1 28.5t-1 27.5q-3 43 -3 101q0 5 1 34.5t1 35.5q0 7 -1.5 49.5t-1.5 50.5q0 7 1 47t1 48q0 6 -1.5 41t-1.5 42q0 57 44 57q5 0 36 -0.5t37 -0.5zM247 536q-34 0 -34 -48q0 -6 0.5 -16t0.5 -15q2 -38 2 -73
q0 -5 -0.5 -34.5t-0.5 -35.5q0 -26 3 -50q0 -3 -0.5 -21t-0.5 -22q0 -21 3 -34q7 -24 32 -24q6 0 13 1.5t19.5 16t16.5 40.5q14 99 14 123q0 22 -4 68q-10 124 -64 124z" />
    <glyph glyph-name="E" unicode="E" horiz-adv-x="437" 
d="M322 707h21q3 0 16 0.5t16 0.5q14 0 22 -8.5t8 -22.5q0 -4 -1.5 -27t-1.5 -28q0 -2 0.5 -16.5t0.5 -17.5q0 -37 -36 -40h-17q-2 0 -15 -1t-16 -1t-20.5 1.5t-21.5 1.5q-44 0 -55 -17q-4 -6 -4 -37q0 -49 35 -49q2 0 14.5 1t15.5 1t20 -1t21 -1q2 0 15.5 0.5t16.5 0.5
q22 0 30.5 -9t8.5 -31q0 -3 -1 -20.5t-1 -21.5q0 -3 1 -20.5t1 -21.5q0 -12 -3 -18q-10 -23 -40 -23q-5 0 -40 2t-41 2q-36 0 -47 -19q-5 -9 -5 -52q0 -13 1 -19.5t6.5 -14.5t17.5 -11q11 -3 40 -3q5 -1 15 -2.5t14 -1.5q7 -1 21 -1q16 0 23 1q14 2 20 2q13 0 25 -8.5
t12 -27.5q0 -12 -1 -18q-1 -11 -1 -29q0 -3 0.5 -21t0.5 -22q0 -22 -11.5 -31t-24.5 -9q-3 0 -18 1t-17 1t-16.5 -0.5t-17.5 -0.5q-10 0 -31 1t-32 1q-2 0 -17.5 -0.5t-18.5 -0.5t-17 0.5t-17 0.5q-5 0 -31 -0.5t-31 -0.5q-3 0 -19 -0.5t-19 -0.5q-18 0 -29.5 11.5
t-11.5 27.5q0 2 0.5 6t0.5 6q2 21 2 63q0 5 -0.5 31.5t-0.5 30.5t1.5 24t1.5 23t-0.5 23t-0.5 23q0 6 0.5 42.5t0.5 43.5q0 6 -1 47t-1 49q0 17 1 53t1 53q0 5 -0.5 37.5t-0.5 38.5q0 23 1 33.5t5.5 22.5t15 16.5t29.5 4.5q1 0 12 -0.5t18 -0.5q24 -2 29 -2h52q6 0 41.5 -1
t42.5 -1q2 0 18.5 1t19.5 1z" />
    <glyph glyph-name="F" unicode="F" horiz-adv-x="375" 
d="M100 707h17q7 0 48.5 0.5t49.5 0.5q3 0 25.5 -0.5t26.5 -0.5q6 0 40.5 0.5t40.5 0.5q14 0 20.5 -6.5t7.5 -13.5t0 -20v-101q0 -10 -8.5 -19t-24.5 -9q-2 0 -14.5 1t-15.5 1q-2 0 -13.5 -0.5t-14.5 -0.5q-2 0 -19.5 0.5t-21.5 0.5q-25 0 -29 -19v-25q0 -3 -0.5 -16
t-0.5 -16q0 -20 14 -27q6 -4 42 -4q2 0 15.5 -0.5t16.5 -0.5q2 0 13 0.5t13 0.5q16 0 24 -9.5t8 -20.5q0 -2 -1 -14t-1 -15v-20q0 -44 -2 -56q-4 -31 -41 -31q-5 0 -29 2t-29 2q-40 0 -40 -40v-52q0 -3 0.5 -24.5t0.5 -25.5q0 -3 -1 -21.5t-1 -22.5q0 -3 2 -22.5t2 -23.5
q0 -39 -36 -39q-4 0 -29 1t-30 1q-4 0 -26.5 -1t-26.5 -1q-36 0 -36 33v11q3 22 3 67q0 10 -1 71.5t-1 73.5q0 32 1 47q3 84 3 85q0 8 -1.5 55.5t-1.5 56.5q0 7 1 48.5t1 49.5q0 4 -1 27.5t-1 28.5q0 27 13 41q7 8 15.5 9.5t33.5 1.5z" />
    <glyph glyph-name="G" unicode="G" horiz-adv-x="521" 
d="M13 352q0 34 5 64q0 4 2 12.5t2 12.5q5 43 6 46q5 27 23 65.5t29 52.5q33 45 83 73q68 40 200 40q5 0 38 -1t39 -1q14 0 23.5 -9t9.5 -24q0 -2 -0.5 -13t-0.5 -14v-70q0 -28 -2 -34q-4 -10 -15.5 -18t-21.5 -8q-7 0 -15 3l-8 4t-9 4q-11 5 -34 5q-5 0 -14.5 0.5
t-14.5 0.5q-81 0 -110 -56q-8 -18 -11 -45q0 -4 -1.5 -12t-2.5 -12q-8 -32 -8 -68q0 -3 0.5 -24.5t0.5 -25.5q0 -19 6 -35q2 -6 5 -13t7 -15.5t6 -13.5q7 -18 12.5 -28.5t21 -20.5t38.5 -10q36 0 36 23q0 3 -1 15t-1 14q0 3 1 19t1 19q0 17 -11 25.5t-21 8.5q-2 0 -9 -1.5
t-9 -1.5q-6 0 -15.5 7t-9.5 20q0 3 1.5 54.5t1.5 52.5q1 15 13.5 24t30.5 9q4 0 26.5 -1t26.5 -1q7 0 32 0.5t30 0.5q12 3 28 3q11 0 19 -4q22 -10 25 -38q0 -4 -0.5 -27.5t-0.5 -28.5v-54q0 -4 -1 -32t-1 -33t1 -37t1 -37t-0.5 -38.5t-0.5 -39.5v-28q0 -31 -22 -45
q-32 -20 -134 -20h-29q-30 1 -33 1q-41 1 -95 22q-39 14 -56.5 29.5t-40.5 48.5q-12 16 -18 25q-26 36 -37 81q-17 61 -17 153z" />
    <glyph glyph-name="H" unicode="H" horiz-adv-x="521" 
d="M38 112v28q0 4 1 28.5t1 29.5q0 8 -2 58t-2 60q0 6 2 47t2 49q0 14 -2 42q-2 39 -2 88q0 5 1 33.5t1 33.5q0 4 -1.5 31.5t-1.5 32.5q0 32 33 32q16 0 28 -1q7 0 17 -0.5t11 -0.5q20 0 30 1q20 2 27 2q36 0 36 -35q0 -4 -2.5 -27.5t-2.5 -27.5t1 -31.5t1 -32.5t-0.5 -35
t-0.5 -36q0 -24 12 -30.5t37 -6.5q37 0 41 28q4 22 4 51q0 4 -1.5 30t-1.5 31q0 6 0.5 19t0.5 20v7q-3 18 -3 43q0 33 36 33q11 0 16 -1q30 -2 44 -2q4 0 24 2q6 0 14.5 0.5t9.5 0.5q13 0 22.5 -5.5t12.5 -9.5t3 -6q2 -4 2 -25q0 -10 -2 -34q0 -8 -1 -36.5t-1 -32.5
q0 -2 0.5 -13t0.5 -14t-1.5 -25.5t-1.5 -26.5q0 -6 1 -43t1 -44t-1 -52t-1 -53q0 -32 1 -47q1 -10 2 -29.5t2 -29.5v-18q0 -4 -0.5 -30.5t-0.5 -31.5v-16q4 -24 4 -43q0 -41 -34 -41q-2 0 -6.5 0.5t-6.5 0.5q-22 2 -32 2q-6 0 -36 -2t-34 -2q-12 0 -22.5 8t-10.5 28
q0 13 4 41q0 2 -0.5 14t-0.5 15q0 46 1 61q0 3 1 20t1 21q0 49 -25 58q-6 2 -34 2q-32 0 -35 -32q-4 -36 -4 -53q0 -4 1 -30t1 -30t-1 -30t-1 -31q0 -2 1 -16t1 -17q0 -13 -9.5 -21.5t-20.5 -8.5q-7 0 -11 1q-13 2 -40 2h-15q-1 0 -9.5 -0.5t-14.5 -0.5q-20 -2 -25 -2
q-38 0 -38 41q0 5 2.5 36t2.5 37z" />
    <glyph glyph-name="I" unicode="I" horiz-adv-x="250" 
d="M216 342v-49q0 -7 2 -51.5t2 -53.5q0 -5 -1.5 -37.5t-1.5 -38.5t2 -41.5t2 -42.5q0 -26 -31 -26q-3 0 -20.5 1t-21.5 1q-5 0 -34 -1.5t-34 -1.5h-6q-32 0 -37 22q-1 4 -1 65q0 4 1.5 31t1.5 32v73q0 7 -1.5 51t-1.5 52v125q0 7 1.5 52.5t1.5 54.5v68q0 3 -1.5 24t-1.5 24
q0 19 16 29q6 3 30 3q4 0 30.5 -0.5t31.5 -0.5q24 0 36 1q1 0 8 0.5t9 0.5q24 0 24 -37q0 -4 -1.5 -27t-1.5 -28q-1 -24 -1 -138q0 -5 0.5 -37t0.5 -38q0 -4 -1 -30t-1 -31z" />
    <glyph glyph-name="J" unicode="J" horiz-adv-x="313" 
d="M11 142v11q0 30 25 30q2 0 10 -1t10 -1q19 0 31 15q10 12 10 44q0 8 -0.5 24t-0.5 25q-1 35 -1 136q0 35 1 53q0 4 2 38l1 33q0 6 -0.5 18t-0.5 18q-5 60 -5 83q0 25 8 33.5t30 7.5q4 0 30 -1t31 -1q4 0 28.5 1t29.5 1q12 0 20.5 -7.5t8.5 -20.5q0 -6 -2 -30
q-2 -28 -2 -42q0 -29 3 -56q0 -3 -0.5 -25t-0.5 -26t0.5 -29.5t0.5 -30.5q0 -2 -1 -19.5t-1 -20.5v-23.5v-39v-24.5q0 -4 1 -33t1 -34q0 -6 -1.5 -40t-1.5 -40v-42q0 -31 -17 -60q-21 -31 -61 -53q-28 -14 -91 -14q-4 0 -13 0.5t-13 0.5q-2 0 -15 -1t-16 -1q-38 0 -38 43
q0 4 0.5 30t0.5 31q0 32 -1 40z" />
    <glyph glyph-name="K" unicode="K" horiz-adv-x="500" 
d="M40 311v61q0 6 -1.5 46t-1.5 48q0 7 1.5 51.5t1.5 52.5q0 20 -2 62q-2 24 -2 37t1 19t6.5 12.5t16.5 6.5q5 0 34 -0.5t35 -0.5q4 0 27.5 1t27.5 1q12 0 18 -1t11 -7.5t5 -20.5q0 -4 -1.5 -26t-1.5 -26q0 -3 0.5 -24.5t0.5 -25.5q0 -3 -0.5 -19.5t-0.5 -19.5q0 -18 5 -18
q7 0 10 10q2 5 10 23.5t9 21.5l9 18q3 5 7 15.5t5 12.5q3 7 9.5 21.5t9.5 21.5q2 4 4.5 10.5t3.5 9.5q4 11 9 17t10 7.5t13 1.5t24 -2q26 -2 38 -2q5 0 36.5 1.5t37.5 1.5q9 0 16 -5.5t7 -14.5t-13 -38q-16 -30 -27 -57q-6 -17 -29 -59q-16 -27 -18 -31t-13.5 -29.5
t-14.5 -30.5q-16 -30 -16 -40q0 -9 6 -21q30 -67 34 -81q2 -4 12 -38q18 -42 22 -54q2 -7 7 -20.5t8 -19.5q5 -15 17 -43q6 -22 11 -33q2 -5 7 -14.5t7 -14.5q11 -22 11 -37q0 -24 -26 -24h-28q-2 0 -19.5 0.5t-20.5 0.5q-5 0 -34 -1t-35 -1q-27 0 -35 36q-15 55 -37 115
q-2 5 -5.5 15t-5.5 14l-9 27q-12 35 -19 35t-7 -29v-78q0 -38 2 -57q1 -10 1.5 -18t1 -11t0.5 -6v-6q0 -16 -3 -25q-7 -13 -35 -13q-3 0 -24 0.5t-25 0.5q-3 0 -21 -0.5t-22 -0.5q-2 0 -14 -1t-15 -1q-11 0 -19 7t-8 17q0 5 2 37.5t2 38.5q0 5 -1 35.5t-1 36.5q0 5 1 38
t1 40q0 10 -0.5 30t-0.5 31z" />
    <glyph glyph-name="L" unicode="L" horiz-adv-x="396" 
d="M38 664q0 45 34 45q3 0 25.5 -1.5t27.5 -1.5t14.5 0.5t13.5 0.5q10 1 28 1q40 0 40 -29q0 -3 -0.5 -8.5t-0.5 -8.5q-5 -33 -5 -92q0 -5 1 -34.5t1 -35.5q0 -4 -1 -28.5t-1 -29.5q0 -4 1.5 -27t1.5 -28q0 -1 -0.5 -8.5t-0.5 -16.5q-1 -16 -1 -54q0 -3 1 -24t1 -25
q0 -1 -0.5 -13t-0.5 -14q0 -52 44 -57q7 -1 45 -1q2 0 17 1t18 1q28 0 34 -17t6 -74q0 -4 -1 -27t-1 -28q0 -21 -16 -27q-6 -3 -18 -3q-3 0 -20.5 1t-20.5 1h-46h-127q-4 0 -28.5 -1t-29.5 -1q-21 0 -30 10.5t-9 23.5q0 2 0.5 17t0.5 18q0 13 1 38t1 38q0 1 -0.5 25t-1.5 51
t-1 34q0 22 4 62q1 8 1 23q0 4 -1 32t-1 33q0 4 0.5 25.5t0.5 25.5q0 9 -0.5 27.5t-0.5 27.5q0 5 1 37t1 38q0 13 -0.5 39t-0.5 39z" />
    <glyph glyph-name="M" unicode="M" horiz-adv-x="646" 
d="M214 151v-35q0 -39 1 -55q0 -4 0.5 -12t0.5 -12q0 -11 -1.5 -17.5t-9.5 -12.5t-23 -6q-3 0 -22 0.5t-23 0.5q-36 0 -43 -1q-16 -1 -22 -1q-36 0 -36 33q0 4 1.5 26.5t1.5 27.5q1 14 1 52q0 9 -1.5 64.5t-1.5 66.5q0 9 1.5 66.5t1.5 68.5q0 8 -1 60t-1 62q0 4 1 30t1 31
q0 10 -2 30t-2 30q-1 5 -1 32q0 29 36 29q5 0 39 -1t41 -1q2 0 16 1t17 1q17 0 25.5 -8.5t16.5 -30.5q14 -36 36 -76q4 -8 13 -23t10 -17q7 -12 12 -24q21 -47 30 -47q8 0 20 29q29 58 34 69t12.5 31t10.5 26l18 36q14 29 25 33q9 3 34 3q14 0 25 -1q6 0 15 -0.5t10 -0.5
q45 0 49 2q2 0 5.5 0.5t5.5 0.5q9 0 16 -7t7 -19q0 -21 -2 -35q-4 -66 -4 -69q0 -5 0.5 -34t0.5 -35q0 -12 -1 -85.5t-1 -87.5q0 -8 1 -53t1 -54q0 -8 -1.5 -57t-1.5 -59q0 -5 2 -35t2 -36q0 -17 -1 -24.5t-6.5 -13.5t-16.5 -6q-12 0 -17 1q-38 2 -56 2q-22 0 -33 -1
q-6 -1 -19 -1q-15 0 -24 6q-13 9 -13 28q0 8 2 26q2 11 2 33v51q0 4 -0.5 12t-0.5 13q0 2 2 19t2 21t-1.5 30t-1.5 31q0 2 0.5 14.5t0.5 15.5q0 1 -0.5 7.5t-0.5 7.5q0 9 -4 9t-9 -8q-4 -6 -13 -34q-2 -7 -17 -41t-17 -39q-8 -19 -14.5 -27t-17.5 -8q-21 0 -30 13
q-3 4 -18 32t-19 33q-8 12 -11 18q-1 2 -9 19t-15.5 31t-11.5 14t-4 -15q0 -6 -1.5 -42.5t-1.5 -43.5q0 -6 0.5 -19.5t0.5 -20.5q-1 -33 -2 -37z" />
    <glyph glyph-name="N" unicode="N" horiz-adv-x="542" 
d="M38 172v31q0 4 -0.5 26.5t-0.5 26.5q0 28 2 74q2 28 2 42q0 1 -1 18.5t-1 20.5q-1 18 -1 63q0 40 1 60q1 21 1 45q0 7 -1.5 49.5t-1.5 50.5q0 10 6.5 19t21.5 9q3 0 10 -1t10 -1q4 -1 39 -1q5 0 30.5 1.5t27.5 1.5q18 0 25 -14q18 -27 34 -73q1 -2 2.5 -6.5t2.5 -6.5
q0 -6 19 -44q8 -14 11 -21q2 -5 5.5 -14.5t5.5 -14.5l9 -18q4 -9 9 -24l10.5 -31.5t7.5 -21.5q4 -15 9 -15t5 39q0 4 -0.5 11t-0.5 10q-2 12 -2 18q0 3 1 21t1 22q0 8 -2.5 57.5t-2.5 59.5q0 38 4 46q10 20 37 20q2 0 8 -0.5t9 -0.5q9 -1 59 -1q2 0 16 0.5t16 0.5
q10 0 13 -2q14 -7 14 -25q0 -2 -0.5 -6t-0.5 -7q-4 -20 -4 -71q0 -8 1.5 -57.5t1.5 -59.5q0 -21 -2 -87q0 -7 -0.5 -22t-0.5 -23t2 -59.5t2 -61.5q0 -8 -2.5 -57t-2.5 -58q0 -17 2 -51q0 -3 1.5 -16t1.5 -16q0 -14 -13 -21q-5 -3 -24 -3q-4 0 -25 1t-25 1q-5 0 -34.5 -1
t-34.5 -1q-18 0 -28 33q-2 6 -14 36q-19 38 -23 48q-4 11 -10 31q-9 24 -18 43q-13 26 -15 31q-3 6 -5.5 13t-5 15.5t-4.5 13.5q-16 47 -20 47t-4 -9l3 -27q5 -35 5 -77q0 -15 -1.5 -44t-1.5 -43q0 -6 2.5 -42t2.5 -43q0 -28 -30 -28q-5 0 -36.5 1t-37.5 1q-12 0 -36 -2
q-4 -1 -13 -1q-27 0 -27 32q0 11 3.5 61.5t3.5 51.5q0 19 -2 27z" />
    <glyph glyph-name="O" unicode="O" horiz-adv-x="521" 
d="M26 403q0 127 19.5 184.5t77.5 96.5q18 12 28.5 17t38.5 9.5t73 4.5q48 0 75 -10t63 -36q25 -18 34 -28q54 -61 54 -229q0 -12 -0.5 -35t-0.5 -34q-1 -105 -11 -160q-9 -53 -18 -78t-28 -47q-15 -18 -30.5 -30t-25.5 -16.5t-29 -10.5q-42 -12 -79 -12q-74 0 -126 24.5
t-76 66.5q-20 34 -30 84q-8 37 -8 92q0 5 0.5 36t0.5 37q0 5 -1 36.5t-1 37.5zM257 545q-49 0 -49 -81q0 -5 1 -35t1 -36q0 -10 -1.5 -70.5t-1.5 -72.5q0 -19 1 -30t5 -28t14 -25.5t27 -8.5q44 0 47 58v43q0 5 2 39.5t2 41.5q0 9 -0.5 27t-0.5 27q0 2 0.5 18.5t0.5 19.5
q0 25 -4 63q-5 50 -44 50z" />
    <glyph glyph-name="P" unicode="P" horiz-adv-x="500" 
d="M297 177h-41q-24 0 -32 -7q-12 -12 -12 -31q0 -3 0.5 -9t0.5 -8q1 -12 1.5 -33.5t0.5 -28.5q2 -16 2 -25q0 -10 -1.5 -16t-9 -11.5t-21.5 -5.5q-5 0 -31.5 1.5t-30.5 1.5q-1 0 -40 -3q-8 -2 -21 -2q-28 0 -28 39q0 5 1 15t1 14q0 2 -0.5 12.5t-0.5 12.5t0.5 4.5t1 8
t0.5 11.5q2 10 2 33q0 6 -1 43.5t-1 45.5q0 6 0.5 45.5t0.5 47.5q0 15 -0.5 45.5t-0.5 45.5q0 17 1 51.5t1 52.5q0 9 -2 67.5t-2 69.5q0 19 19 38q11 7 35 7q3 0 20.5 -0.5t21.5 -0.5q9 0 25 1t24 1q3 0 20 -1t21 -1q3 0 24.5 1t25.5 1q87 0 142 -40q32 -24 48 -59
q16 -40 20 -56q12 -37 12 -81q0 -22 -7 -99q-7 -61 -38 -106q-61 -90 -151 -92zM216 439v-26q0 -31 14 -45t27 -14q7 0 16 3t20 17.5t11 37.5q0 2 -0.5 14.5t-0.5 15.5q0 2 0.5 16t0.5 16q0 35 -15.5 51.5t-32.5 16.5q-37 0 -40 -58v-45z" />
    <glyph glyph-name="Q" unicode="Q" horiz-adv-x="521" 
d="M519 62v-39q0 -1 0.5 -7.5t0.5 -8.5q0 -8 -17 -8q-52 0 -104 31q-35 -28 -78 -35q-55 -5 -58 -5q-88 0 -147 46q-29 22 -44 55q-16 30 -24.5 55t-10.5 39t-4 40q0 2 -4.5 56.5t-4.5 66.5l3 60q1 9 2.5 58t5.5 75q10 61 46 111q22 31 45 42.5t52 16.5q45 8 64 8
q69 0 112 -11t75 -49q16 -19 32 -55t21 -79q2 -16 2.5 -33.5t0.5 -38.5v-32q0 -6 2 -44t2 -45q0 -3 -1.5 -22t-1.5 -23q0 -6 -0.5 -26t-1.5 -30q-2 -25 -18 -78q14 -7 27 -7q26 -4 28 -11q0 -1 -0.5 -9t-0.5 -10v-5q0 -3 -0.5 -24t-0.5 -25zM208 312v-61q0 -89 45 -89
q8 0 12 1q-25 25 -25 37q0 8 11.5 24.5t23.5 16.5q11 0 26 -24q6 14 6 25q0 7 -1 52t-1 54q0 25 2 73q0 7 0.5 20t0.5 19q0 49 -16 71q-17 17 -33 17q-25 0 -38 -25q-16 -28 -16 -126q0 -6 1.5 -42t1.5 -43z" />
    <glyph glyph-name="R" unicode="R" horiz-adv-x="521" 
d="M158 708q9 0 63 1.5t64 1.5q49 0 85.5 -11t58.5 -32t34 -40.5t23 -47.5q15 -38 15 -129q0 -75 -30 -134q-23 -40 -46 -59q-15 -14 -15 -21q0 -9 22.5 -51t23.5 -44q2 -4 10 -26l12 -24q30 -56 30 -68q0 -21 -25 -21q-4 0 -26 1t-26 1q-39 0 -63 -2q-3 0 -9 -0.5t-10 -0.5
q-21 0 -31 16q-1 3 -5 12.5t-8.5 20t-5.5 12.5q-4 8 -13.5 25t-13.5 27l-9 21q-20 49 -32 49q-14 0 -14 -23q0 -3 1 -26.5t1 -28.5q0 -3 -0.5 -20t-0.5 -21q0 -2 1 -19.5t1 -20.5q0 -14 -8 -19.5t-16 -5.5q-2 0 -5.5 0.5t-5.5 0.5q-18 2 -47 2q-4 0 -34.5 -2t-35.5 -2
q-14 0 -23 10t-9 24q0 7 1 10q4 67 4 97q0 10 -2 68.5t-2 69.5q0 9 1.5 67.5t1.5 69.5q0 6 -1 44t-1 45t1 48t1 49q0 4 -1 29t-1 29q0 49 54 49q4 0 32 -0.5t34 -0.5zM257 544q-40 0 -40 -51q0 -4 -1 -33.5t-1 -35.5q0 -18 11 -32.5t31 -14.5q39 0 48 37q4 18 4 58
q0 30 -14 51t-38 21z" />
    <glyph glyph-name="S" unicode="S" horiz-adv-x="417" 
d="M23 503q0 70 17 109q25 57 75 81q52 23 122 23h40t32.5 -1.5t28.5 -4t19.5 -7t14.5 -12t4 -18.5q0 -1 -0.5 -16t-1 -32t-0.5 -22q0 -2 0.5 -17t0.5 -18q0 -38 -38 -38h-7q-3 0 -40 11q-15 4 -35 4q-44 0 -44 -36q0 -19 11 -33t48 -47q5 -5 18.5 -17.5t18.5 -17.5
q14 -12 19 -17q48 -47 64.5 -83t16.5 -86q0 -92 -27 -132q-37 -56 -107 -75q-42 -11 -111 -11q-97 0 -129 23q-17 12 -17 31q0 4 1.5 31t1.5 32q0 3 -1 22t-1 23q0 45 36 45q25 0 39 -12q2 -2 5.5 -5t6.5 -5.5t6 -4.5q15 -10 48 -10q59 0 59 37q0 16 -10.5 28.5t-59.5 59.5
q-41 41 -45 44q-39 36 -56 67q-16 28 -19.5 49t-3.5 58z" />
    <glyph glyph-name="T" unicode="T" horiz-adv-x="396" 
d="M292 385q0 -8 -1 -53.5t-1 -54.5q0 -6 1 -46.5t1 -48.5q0 -5 -0.5 -34t-0.5 -34v-25q4 -32 4 -53q0 -34 -37 -34q-12 0 -18 1q-23 1 -47 1q-9 0 -29.5 -0.5t-22.5 -0.5q-14 0 -20 4q-14 9 -14 32q0 6 2.5 45.5t2.5 47.5q0 6 -1.5 41.5t-1.5 42.5t2.5 48.5t2.5 49.5
q0 5 -2 39t-2 41q0 15 1.5 43t1.5 42q0 22 -8 34t-15.5 14t-18.5 2h-27q-32 0 -32 30v7q1 17 1 59q0 3 -0.5 23t-0.5 24q0 10 1.5 16.5t9.5 12t23 5.5q18 0 31 -1q7 0 18 -0.5t13 -0.5q8 0 55.5 1.5t56.5 1.5q6 0 39.5 -1t40.5 -1q4 0 25 1t25 1q21 0 30 -18q5 -8 5 -36
q0 -4 -0.5 -27t-0.5 -27q0 -3 0.5 -18t0.5 -17q0 -34 -31 -34q-1 0 -15 0.5t-17 0.5q-33 0 -33 -54q0 -6 1.5 -45.5t1.5 -46.5z" />
    <glyph glyph-name="U" unicode="U" horiz-adv-x="521" 
d="M38 642q0 39 6.5 51.5t28.5 12.5q4 0 31.5 -1.5t32.5 -1.5q10 0 17 1h16q29 0 36 -4q16 -8 16 -27q0 -7 -1 -11q-3 -36 -3 -80q0 -3 0.5 -23t0.5 -24q0 -2 -0.5 -18.5t-0.5 -19.5v-40q0 -6 -1.5 -45.5t-1.5 -47.5q0 -4 0.5 -30t0.5 -31q0 -12 -0.5 -36.5t-0.5 -37.5
q0 -37 7 -49q13 -21 34 -21q13 0 27 8q15 9 19.5 26.5t4.5 52.5q0 3 -0.5 22.5t-0.5 22.5q0 12 0.5 37.5t0.5 38.5q0 9 -2 64t-2 66q0 7 1.5 49.5t1.5 50.5q0 7 -0.5 20.5t-0.5 19.5q0 47 9 57q10 12 26 12q4 0 32 -1.5t34 -1.5q1 0 10.5 0.5t15.5 0.5q11 1 25 1
q32 0 32 -38q0 -11 -1 -17q-4 -70 -4 -101q0 -20 1 -30q0 -3 1.5 -24.5t1.5 -25.5q0 -8 -1 -24t-1 -23q-2 -34 -2 -50q0 -8 1.5 -61.5t1.5 -63.5q0 -21 -1 -31q-2 -18 -2 -26q0 -5 -0.5 -19.5t-1.5 -22.5q-3 -38 -25 -72q-25 -37 -70 -60q-33 -17 -59 -21.5t-85 -4.5
q-69 0 -132 37q-43 25 -59 65q-14 37 -14 99q0 8 1.5 54t1.5 55q0 11 -2 76.5t-2 77.5q0 6 1.5 45t1.5 46t-1 48t-1 49z" />
    <glyph glyph-name="V" unicode="V" horiz-adv-x="479" 
d="M32 705h34q7 0 46 0.5t47 0.5q26 0 27 -31q4 -60 7 -84q8 -53 10 -96q1 -51 13 -119q0 -3 4.5 -45.5t5.5 -50.5q3 -25 11 -25q5 0 7 10q2 4 4 28t4 48.5t2 26.5q1 5 3.5 18t3.5 20q5 25 7 95q2 35 7 64q1 8 5 24q7 60 7 82q0 13 3 19q17 17 24 17q5 0 8 -1l24 -1
q23 -1 35 -1q3 0 24 0.5t25 0.5q1 0 11.5 0.5t12.5 0.5q25 0 25 -23q0 -14 -4 -33q-8 -31 -9 -34q-8 -34 -10 -70q0 -4 -0.5 -10.5t-0.5 -9.5l-3 -15t-2 -14q0 -13 -1 -19q-2 -16 -13 -62q-4 -17 -8.5 -47t-5.5 -38l-9 -51l-3 -24t-4 -24q-6 -37 -15 -71q-13 -48 -21 -90
q-7 -40 -15.5 -55t-33.5 -15h-174q-17 0 -23 7.5t-13 34.5q-4 13 -28 138q-1 8 -10.5 52t-10.5 51q-5 22 -12 67q0 4 -1 12.5t-2 12.5q-1 3 -2 8.5t-1 7.5q-19 91 -25 136q-7 56 -15 91q-6 30 -6 48q0 39 26 39q5 0 8 -1z" />
    <glyph glyph-name="W" unicode="W" horiz-adv-x="750" 
d="M227 0h-42q-27 0 -35.5 10t-16.5 47l-6 37q-6 36 -8 44q-4 21 -28 110q-12 43 -17 74q-14 69 -15 74q-3 11 -10 32.5t-10 32.5l-4 20q-4 20 -9 49t-10.5 59t-9.5 55.5t-4 33.5q0 22 16 29q5 2 26 2q5 0 32.5 -1.5t32.5 -1.5q1 0 7.5 0.5t11.5 0.5q7 1 18 1q12 0 20 -5
q11 -7 15 -18.5t8 -40.5q7 -50 19 -102q4 -18 13.5 -50.5t11.5 -38.5q11 -45 22 -101q4 -19 9 -19q4 0 8 11q10 43 11 46q6 26 20 78q-14 50 -19 76q-1 4 -4 22t-5 28q-1 7 -12 53q-4 20 -4 29q0 32 37 32q4 0 31.5 -1.5t32.5 -1.5q1 0 9.5 0.5t14.5 0.5q10 1 24 1
q24 0 31 -12.5t8 -39.5q2 -34 6 -67q3 -19 10 -54t9 -47q10 -59 12 -90q0 -5 1 -14t1 -13t2 -13t2 -14q1 -17 8 -17t10 21q1 5 2.5 16.5t2.5 16.5q2 17 8.5 47.5t8.5 42.5t5 37t5 37q2 15 8 47q6 25 7 61q1 20 2.5 29.5t9 18.5t23.5 9q21 0 31 -1l33 -3q1 0 8.5 0.5
t12.5 0.5q9 1 22 1q12 0 18.5 -0.5t15.5 -3t13.5 -9t4.5 -16.5q0 -5 -2 -17q-19 -76 -25 -114l-6 -42q-8 -40 -12 -61q-6 -28 -25 -91q-1 -4 -7.5 -30.5t-12.5 -51t-8 -35.5q-1 -4 -2 -10t-2 -11l-2 -10q-2 -12 -12 -42q-22 -96 -29 -114q-11 -34 -19.5 -42.5t-31.5 -8.5
q-5 0 -35.5 1t-36.5 1q-18 0 -27 -1q-4 -1 -11 -1q-6 0 -9 1q-17 6 -20 32q-1 6 -3.5 15.5t-3.5 13.5l-15 69q-10 60 -23 60q-9 0 -15 -22q-3 -11 -20.5 -70.5t-19.5 -66.5q-8 -32 -32 -32q-4 0 -27 1t-28 1z" />
    <glyph glyph-name="X" unicode="X" horiz-adv-x="500" 
d="M5 687q0 4 2 8.5t9.5 9t18.5 4.5q1 0 11.5 -0.5t18.5 -0.5q26 -2 31 -2q6 0 34 2q9 0 21.5 0.5t13.5 0.5q25 0 31 -19q2 -4 4 -12.5t3 -12.5q1 -2 8.5 -17.5t15.5 -31.5t9 -21q5 -14 10 -14q3 0 6 6q1 2 5 15t5 15t12 28.5t13 32.5q3 9 5 13.5t9 10t18 5.5q12 0 22 -1
q5 0 13 -0.5t9 -0.5q6 0 44.5 1.5t46.5 1.5q26 0 26 -17q0 -11 -10 -34q-16 -33 -25 -55l-27 -72q-12 -30 -24 -56l-9 -18t-10 -22q-3 -6 -9 -20q-18 -32 -18 -44q0 -10 10 -30q5 -9 27.5 -58t23.5 -52q17 -35 28 -68q16 -49 39 -90q14 -23 17 -32q3 -15 3 -16
q0 -26 -25 -26q-5 0 -39 2q-9 0 -23 0.5t-16 0.5q-5 0 -31 -1t-30 -1q-14 0 -19 6.5t-18 39.5q-16 35 -33 76q-5 13 -12 13q-4 0 -11 -15q-19 -38 -35 -86q-10 -31 -37 -31q-4 0 -29 0.5t-30 0.5q-37 0 -43 -1q-3 0 -17.5 -0.5t-23.5 -0.5q-8 0 -14.5 6t-6.5 17q0 13 13 36
q5 8 26 56q6 13 18 37l16 32q5 11 9.5 23t10.5 26.5t9 23.5q3 6 8 16.5t9 19.5t8 17q18 38 18 43q0 7 -6 19q-31 60 -44 94q-13 36 -15 41q-2 6 -33 70q-3 5 -15 32.5t-14 31.5q-16 37 -16 45z" />
    <glyph glyph-name="Y" unicode="Y" horiz-adv-x="479" 
d="M219 0l-34 -1q-35 0 -35 33v52q0 2 -0.5 14t-0.5 14q0 3 1.5 23.5t1.5 24.5q0 7 -1 21.5t-1 21.5v28q0 9 -2 25q-1 6 -25 85q-19 58 -46 118q-17 39 -29 75q-17 59 -35 103q-15 39 -15 44q0 3 2 9q6 17 27 17q3 0 25.5 -1t26.5 -1q5 0 35.5 1t36.5 1q17 0 27 -11
q10 -13 23 -66l9 -45q1 -3 6 -21t10 -35t6 -23q7 -28 10 -28q7 0 9 13q4 34 19 76q7 18 18 71q8 46 17 58t35 12q10 0 28 -1t27 -1q3 0 21 0.5t22 0.5q19 0 26 -4q15 -9 15 -25t-8 -40q-13 -52 -49 -147q-8 -18 -9 -23q-2 -5 -5.5 -15.5l-5.5 -16.5q-8 -20 -12 -31
q-16 -44 -29 -74q-26 -60 -29 -73q-4 -16 -4 -36q0 -6 0.5 -18.5t0.5 -19.5q0 -5 -1.5 -34.5t-1.5 -35.5q0 -5 1 -34.5t1 -35.5q0 -41 -26 -43h-40q-3 0 -21 -0.5t-22 -0.5z" />
    <glyph glyph-name="Z" unicode="Z" horiz-adv-x="437" 
d="M120 537h-33q-1 0 -7 -0.5t-7 -0.5q-12 0 -21.5 10t-9.5 20q0 2 0.5 11t0.5 10t0.5 12t0.5 13q0 7 -0.5 20.5t-0.5 20.5q0 28 2 34q4 10 12 15t14.5 5.5t20.5 0.5q8 0 56.5 -0.5t57.5 -0.5q4 0 26 0.5t27 0.5q4 0 29 -1t30 -1h18q3 0 24 0.5t25 0.5q13 0 25 -6.5
t13 -20.5q2 -18 2 -84q0 -13 -4 -24t-26 -59q-3 -6 -7 -17.5t-5 -13.5q-12 -26 -19 -39q-38 -67 -47 -85q-10 -17 -18 -38q-17 -41 -38 -79q-24 -48 -24 -59q0 -14 15 -14q2 0 16 0.5t16 0.5q42 3 101 3q40 0 40 -31q0 -3 -0.5 -22.5t-0.5 -23.5t0.5 -26.5t0.5 -27.5
q0 -15 -4 -27q-15 -15 -26 -15q-1 0 -21 2q-24 2 -36 2q-4 0 -28 -1t-29 -1q-9 0 -27.5 0.5t-28.5 0.5q-3 0 -22 -0.5t-23 -0.5q-3 0 -25.5 0.5t-27.5 0.5h-28q-6 0 -24 -1t-25 -1q-22 0 -31 10.5t-9 31.5q0 6 -0.5 37t-0.5 36q0 16 15 41q24 42 47 94q19 41 42 84
q18 32 25 49q11 23 23 45q38 66 38 91q0 14 -10 18l-9 1h-11q-3 0 -24 -0.5t-25 -0.5z" />
    <glyph glyph-name="bracketleft" unicode="[" horiz-adv-x="271" 
d="M26 646q0 30 2 36q7 25 45 25q4 0 32 -2q21 -3 34 -3q6 0 10 1q5 0 36.5 2.5t37.5 2.5q35 0 35 -31l-3 -24q0 -4 -0.5 -10t-0.5 -9q0 -4 1.5 -25t1.5 -24q0 -7 -3 -20q-2 -18 -20 -18q-1 0 -10.5 0.5t-11.5 0.5q-20 0 -20 -9q0 -4 1 -6v-8v-34q0 -4 -1.5 -28t-1.5 -29
q0 -6 1.5 -42t1.5 -43q0 -4 -1.5 -30t-1.5 -31q0 -13 2 -41q0 -9 1 -24.5t1.5 -28t0.5 -24.5q0 -3 -0.5 -21t-0.5 -22q0 -2 0.5 -11t0.5 -10t-1 -6v-4q0 -10 10 -10q1 0 8.5 0.5t8.5 0.5q16 0 25 -7.5t9 -19.5q0 -2 -1 -13t-1 -13q0 -5 1 -34t1 -34q0 -22 -4 -28
q-8 -15 -26 -15q-3 0 -5 1q-4 0 -31 1.5t-32 1.5q-6 0 -41 -2.5t-42 -2.5h-10t-7.5 0.5t-3.5 0.5q-31 4 -31 32q0 6 2 16q6 39 6 124q0 5 -1 38t-1 39q0 5 1 37t1 38q0 8 -1.5 57t-1.5 59q0 5 0.5 34.5t0.5 35.5q0 3 -0.5 23t-0.5 23q0 6 1.5 40.5t1.5 41.5q0 6 -2 42t-2 43
z" />
    <glyph glyph-name="bracketright" unicode="]" horiz-adv-x="271" 
d="M16 594v41q-2 16 -2 24q0 23 2 29q10 19 32 19q9 0 31 -2t33 -2q13 0 20 1q7 0 20.5 2t20.5 2h36q16 0 27 -8t11 -22q0 -8 -3 -41q-4 -66 -4 -105q0 -6 1 -40.5t1 -41.5q0 -5 -1 -33.5t-1 -33.5q0 -8 1.5 -55.5t1.5 -56.5q0 -5 -0.5 -30t-0.5 -30v-57q0 -6 -1 -42.5
t-1 -43.5q0 -5 2 -39.5t2 -41.5q0 -18 -1 -26.5t-4.5 -18.5t-13.5 -13.5t-26 -3.5q-9 0 -23 2q-32 2 -48 2h-6q-5 0 -24.5 -1.5t-37.5 -3.5l-17 -1q-15 0 -23 9t-8 19q0 3 2 25t2 26q0 3 -1.5 21t-1.5 22q0 26 6 32q5 7 18 7q4 0 12.5 -0.5t12.5 -0.5q17 0 17 9q0 2 -1 8
t-1 7v41q0 4 1.5 27.5t1.5 27.5q0 1 -1 14t-1 15v52q0 4 1 30t1 31q0 17 -5 92v74q0 1 0.5 9t0.5 10q0 7 -1.5 10.5t-4 3.5h-5.5h-22q-11 0 -19.5 7.5t-8.5 19.5q0 1 0.5 11t0.5 12z" />
    <glyph glyph-name="underscore" unicode="_" horiz-adv-x="500" 
d="M510 -75v-50h-520v50h520z" />
    <glyph glyph-name="grave" unicode="`" horiz-adv-x="271" 
d="M174 590h-6q-2 0 -13.5 -1t-14.5 -1q-9 0 -24 15q-19 21 -44 46q-34 33 -34 41q0 13 27 13q3 0 24 -0.5t25 -0.5q22 0 33 1q27 3 28 3q20 0 30 -33q8 -22 22 -55q5 -8 5 -15q0 -14 -21 -14q-2 0 -18 0.5t-19 0.5z" />
    <glyph glyph-name="a" unicode="a" horiz-adv-x="437" 
d="M178 354h5q4 0 27 -2t25 -2q10 0 15 6.5t5 13.5q0 16 -8.5 24t-16.5 9.5t-23 2.5q-2 0 -17 1t-18 1q-28 0 -58 -12q-32 -12 -38 -12q-29 0 -29 40q0 2 0.5 18.5t0.5 19.5t-1 20.5t-1 20.5q0 26 36 33q87 20 140 20t98.5 -17t64.5 -39q22 -27 22 -99q0 -5 -1 -33.5
t-1 -34.5q0 -4 1 -27t1 -28q0 -2 -0.5 -18.5t-0.5 -19.5q0 -5 0.5 -33.5t0.5 -34.5q0 -5 -1.5 -39t-1.5 -40q0 -5 1.5 -31t1.5 -31q0 -28 -27 -28q-3 0 -23.5 0.5t-24.5 0.5t-26 -1.5t-26 -1.5q-10 0 -15 9q-1 2 -2 5t-2 5q-2 4 -6 4q-3 0 -10 -7q-25 -22 -80 -22
q-67 0 -108 42q-44 45 -44 116q0 85 17 116q25 41 56 57q56 28 92 28zM219 234q-17 0 -30.5 -14.5t-13.5 -47.5q0 -26 12.5 -38t25.5 -12q42 0 42 59q0 21 -9 37t-27 16z" />
    <glyph glyph-name="b" unicode="b" 
d="M157 0h-48q-4 0 -23.5 -0.5t-22.5 -0.5q-33 0 -33 30q0 4 1.5 32.5t1.5 34.5t-1.5 46t-1.5 48q0 16 1 46.5t1 45.5q0 7 -1 49t-1 50t1 54.5t1 55.5q0 7 -1.5 48t-1.5 49q0 4 1 26.5t1 26.5q0 2 -0.5 14t-0.5 14q0 17 6 25q9 11 35 12h93q30 0 30 -32q0 -24 -2 -34
q0 -6 0.5 -36t0.5 -36q0 -29 10 -29q1 0 11 5q24 12 58 12q22 0 53.5 -11t54.5 -35q13 -13 24 -39t16.5 -44t5.5 -22q2 -6 4 -36q5 -38 5 -63q0 -3 -1.5 -25.5t-1.5 -27.5v-16q0 -93 -43 -165q-25 -42 -59.5 -59.5t-60.5 -17.5q-32 0 -64 17q-17 9 -19 9q-7 0 -7 -11
t-12 -11q-1 0 -5 0.5t-5 0.5zM232 390q-32 0 -38 -65q-3 -15 -3 -63q0 -95 39 -95q14 0 24 15q16 23 16 89q0 60 -8 90q-8 29 -30 29z" />
    <glyph glyph-name="c" unicode="c" horiz-adv-x="313" 
d="M22 226q0 72 3 114q6 52 30 108q23 49 70.5 79.5t108.5 30.5q25 0 35.5 -1.5t19.5 -9t9 -24.5q0 -3 -1 -25.5t-1 -26.5q0 -2 0.5 -19t0.5 -21v-20q0 -15 -7.5 -22.5t-15 -8.5t-22.5 -1q-34 0 -49 -33q-10 -24 -10 -99q0 -37 17.5 -57.5t37.5 -22.5q3 0 12 -0.5t14 -1.5
q21 -4 21 -25q0 -8 -1 -17q-1 -20 -1 -75q0 -1 0.5 -11t0.5 -12q0 -17 -17 -26q-10 -5 -33 -5q-61 1 -77 5q-46 10 -73 34.5t-48 72.5q-24 52 -24 120z" />
    <glyph glyph-name="d" unicode="d" 
d="M383 3h-28q-30 0 -40 -1q-12 -2 -17 -2q-6 0 -12 3q-8 4 -8 13q0 8 -6 8q-2 0 -10 -6q-12 -10 -39 -17q-3 0 -13 -1.5t-18.5 -2.5t-11.5 -1q-11 0 -38 7.5t-42 21.5q-29 24 -48 70t-24 88q-4 31 -4 123q0 26 4 57q3 25 12 58.5t13 41.5q19 43 58 69t78 26q44 0 64 -18
q8 -7 12 -7q6 0 6 10q0 1 0.5 11t0.5 11q0 45 -3 72q-2 28 -2 32q0 34 28 36q5 1 28 1q15 0 23 1q6 1 18 1q4 0 11 -0.5t10 -0.5q1 0 12.5 1.5t13.5 0.5q8 0 14 -4q9 -9 9 -33q0 -8 -2 -24v-27q0 -10 -2 -30q-1 -14 -1 -40q0 -10 0.5 -29.5t0.5 -29.5v-23q0 -5 0.5 -38
t0.5 -39q0 -11 -0.5 -33t-0.5 -34q0 -3 0.5 -25.5t0.5 -26.5q0 -8 -2 -55.5t-2 -56.5q0 -96 2 -116q1 -4 1 -12q0 -20 -13 -29q-4 -3 -13 -3q-7 0 -21 2zM230 384q-44 0 -44 -102q0 -48 4 -72q8 -42 36 -42q21 0 30 29q1 2 4 13.5t6.5 28.5t3.5 27q0 11 -2 29q0 34 -2 43
q-4 22 -14 34t-22 12z" />
    <glyph glyph-name="e" unicode="e" 
d="M431 59v-17q0 -24 -30 -34q-46 -12 -153 -12q-46 0 -102 16q-21 7 -37 21q-34 29 -44 41t-19 35q-17 47 -19 97q0 4 -2 28.5t-2 29.5q0 8 1 23t1 22q1 9 1 29.5t1.5 36.5t4.5 30q9 41 40 80q27 33 72 48.5t90 15.5q103 0 157 -56q52 -59 52 -146q0 -10 -1 -28t-1 -27v-23
q0 -20 -2 -28q-20 -30 -39 -30q-2 0 -15 1t-16 1q-2 0 -4.5 -0.5t-7.5 -1t-10 -0.5q-26 -2 -50 -2q-14 0 -22 1q-2 0 -18.5 1.5t-17.5 1.5q-19 0 -27.5 -2.5t-10 -6.5t-1.5 -15q0 -21 6 -29q9 -17 44 -24q27 -5 31 -5h2q59 0 88 15q15 7 27 7q15 0 22.5 -8.5t8.5 -16
t1 -20.5q0 -41 1 -49zM281 339v27q0 30 -12 45t-28 15q-7 0 -15 -3q-14 -4 -21 -16q-13 -52 -13 -59q0 -28 20 -28q2 0 16.5 0.5t17.5 0.5q1 0 8 -0.5t8 -0.5q19 0 19 19z" />
    <glyph glyph-name="f" unicode="f" horiz-adv-x="271" 
d="M266 453v-19q0 -21 1 -31q2 -12 2 -17q0 -28 -32 -28q-18 -1 -26 -10t-9.5 -19t-1.5 -32v-62q4 -48 4 -82q0 -4 -0.5 -31t-0.5 -32q0 -3 1 -24t1 -25q0 -20 -4 -26q-9 -14 -24 -14q-5 0 -33 1t-33 1q-18 0 -27 -1q-6 -1 -18 -1t-19 4q-8 6 -9.5 13t-1.5 30q0 5 1.5 35
t1.5 36q0 7 -0.5 21.5t-0.5 22.5v136q0 1 0.5 11t0.5 11q0 33 -13 38q-3 1 -8 1.5t-7 1.5q-9 5 -9 34q0 3 0.5 21.5t0.5 22.5q0 3 -0.5 23t-0.5 24q0 18 4 24t18 6q16 0 16 16q0 1 -0.5 5t-0.5 5v10q0 2 -0.5 12.5t-0.5 12.5q0 44 7 69q7 18 21 32t25 18q30 14 89 14
q4 0 29 -1.5t29 -1.5q32 -3 32 -28q0 -4 -1 -26t-1 -26q0 -2 1 -17t1 -18q0 -27 -29 -27q-3 0 -8 0.5t-8 0.5q-13 0 -20.5 -8t-7.5 -19q0 -26 19 -26q2 0 9 0.5t9 0.5q33 0 33 -26q0 -2 -0.5 -17.5t-0.5 -18.5z" />
    <glyph glyph-name="g" unicode="g" 
d="M21 318q0 68 19 119q4 12 13 29t25.5 39t44.5 37t60 15q40 0 63 -18q12 -10 14 -10q4 0 4 7q2 18 15 18q1 0 10.5 -0.5t15.5 -0.5q24 -2 28 -2q19 0 39 2q5 1 16 1q27 0 33 -6.5t6 -27.5q0 -4 -1 -27t-1 -28t1 -39t1 -41q0 -8 -2 -54.5t-2 -55.5q0 -2 3 -98q1 -21 1 -64
q0 -56 -11.5 -92.5t-42.5 -63.5q-52 -45 -164 -45q-107 0 -141 20q-10 6 -11.5 14.5t-1.5 50.5q0 25 2 43q5 23 29 23q11 0 22 -3q5 -1 15.5 -5t12.5 -5q7 -2 40 -4q2 0 17 -1t18 -1q24 0 42 14t18 30q0 6 -4.5 10.5t-9.5 4.5q-6 0 -18 -6q-27 -11 -64 -11q-36 0 -67 15
q-24 12 -43 38q-25 33 -36 98q-8 43 -8 81zM264 297v40q0 9 -1.5 21.5t-10.5 28t-23 15.5q-18 0 -31 -17q-15 -21 -15 -64q0 -35 7 -56q11 -28 38 -28q34 0 36 60z" />
    <glyph glyph-name="h" unicode="h" 
d="M31 536v39q0 10 -0.5 30t-0.5 30q0 3 2 39q1 33 28 33q4 0 29 -1t30 -1q3 0 22 1t23 1q17 0 25 -13q4 -7 4 -35q0 -3 1 -17t1 -16t-1.5 -17.5t-1.5 -18.5q0 -1 0.5 -7t0.5 -7t-0.5 -8.5t-0.5 -9.5q0 -20 11 -20q4 0 21 7q38 15 70 15q61 0 97 -49t36 -126q0 -13 -0.5 -44
t-0.5 -44q0 -4 -1 -30t-1 -31q0 -6 2 -42t2 -43q0 -4 -1 -28t-1 -29q0 -3 1 -24t1 -25q0 -44 -27 -44q-3 0 -25.5 1t-27.5 1q-3 0 -22.5 -0.5t-23.5 -0.5q-26 0 -35 9.5t-9 35.5q0 3 2 23t2 24q0 3 -1 21t-1 22q0 3 0.5 23.5t0.5 24.5t-1 31.5t-1 32.5t2 36t2 37
q0 65 -34 65q-10 0 -16 -4q-15 -7 -16 -38q-2 -4 -2 -84q0 -4 1 -31.5t1 -33.5t-1 -42.5t-1 -43.5v-41q0 -2 1 -15t1 -16q0 -19 -7 -28q-6 -8 -29 -8q-8 0 -24 0.5t-24 0.5q-16 0 -24 -1q-2 0 -13 -1t-14 -1q-31 0 -31 36q0 4 1 26t1 26q0 5 -0.5 34.5t-0.5 35.5q0 5 1 37
t1 38t-1.5 46t-1.5 48q0 6 1 40t1 41v21q0 2 1 17t1 18q0 5 -2 35.5t-2 36.5z" />
    <glyph glyph-name="i" unicode="i" horiz-adv-x="229" 
d="M30 666q0 43 36 43q5 0 33 -1t33 -1q2 0 15 1t16 1q9 0 18 -5q13 -8 15 -27q1 -42 1 -43q0 -45 -35 -45h-77q-1 0 -10 -0.5t-11 -0.5q-33 0 -33 37q0 3 -0.5 20t-0.5 21zM151 553q19 0 27 -1.5t14 -10.5t6 -28q0 -4 -0.5 -12t-0.5 -12q-1 -13 -1 -38v-82q0 -6 -0.5 -40.5
t-0.5 -41.5q0 -18 1 -27q2 -18 2 -28q0 -2 -0.5 -16t-0.5 -17v-61q0 -7 -0.5 -53t-0.5 -55q0 -18 -7 -23.5t-34 -5.5q-3 0 -24.5 0.5t-25.5 0.5q-3 0 -21.5 -1t-22.5 -1q-15 0 -22.5 7.5t-8.5 16t-1 26.5q0 5 1 34.5t1 35.5q0 5 -0.5 38.5t-0.5 40.5t0.5 53t0.5 55
q0 7 -1 48.5t-1 49.5q0 4 1 29t1 30q0 3 -1 19t-1 18q0 18 1 26t6 14.5t16 8.5q15 3 99 3z" />
    <glyph glyph-name="j" unicode="j" horiz-adv-x="250" 
d="M53 679q0 12 8 21t23 9q4 0 10 -0.5t10 -0.5h18q3 0 23 -0.5t24 -0.5q1 0 11 0.5t12 0.5q28 0 28 -32v-60q0 -19 -17 -26q-4 -1 -33 -1q-6 0 -41.5 -1t-42.5 -1q-16 0 -23.5 6t-8.5 13t-1 22q0 2 0.5 17.5t0.5 18.5q0 1 -0.5 7.5t-0.5 7.5zM136 551q4 0 28 1t28 1
q30 0 31 -34q0 -5 -0.5 -32t-0.5 -32v-47q0 -6 -1.5 -41.5t-1.5 -42.5q0 -6 1.5 -41.5t1.5 -42.5q0 -4 -1 -24t-1 -23v-79q0 -96 -14 -130q-26 -64 -123 -64q-42 0 -54 3q-30 6 -30 39q0 2 0.5 6t0.5 6q1 14 1 43q0 4 -0.5 22.5t-0.5 21.5q0 17 6 21t22 4q8 0 13.5 1.5
t10 10t4.5 24.5q0 6 -1 41t-1 42t1.5 51.5t1.5 52.5q0 44 -3 80v88q-3 18 -3 44q0 31 37 31q3 0 23.5 -0.5t24.5 -0.5z" />
    <glyph glyph-name="k" unicode="k" horiz-adv-x="437" 
d="M30 119v10q0 7 -1.5 50.5t-1.5 51.5q0 32 3 62v37q0 71 -1 106q0 5 -0.5 33.5t-0.5 34.5q0 7 2 24q1 15 1 42q0 21 -1 32q-3 39 -3 57v26q3 22 20 22h65q3 0 29 2q7 0 17.5 0.5t11.5 0.5q27 0 27 -31q0 -2 -0.5 -4.5t-0.5 -3.5l-3 -51q0 -6 1 -47t1 -49q0 -3 -0.5 -26
t-0.5 -27q0 -16 2 -40q0 -16 9 -16q7 0 14 13q1 2 5.5 17t5.5 18t8.5 23.5t8.5 24.5t2 12.5t2 12.5q6 22 32 22q3 0 19 -1t19 -1q12 0 17 1h48q30 0 30 -25q0 -2 -2 -10q-5 -20 -26 -87q-2 -7 -7.5 -22t-8.5 -23q-22 -71 -30 -90q-4 -8 -4 -12q0 -10 15 -40q19 -42 39 -95
q23 -61 32 -78q20 -49 20 -58q0 -18 -24 -18q-5 0 -37 1t-38 1q-3 0 -24 -0.5t-25 -0.5q-21 0 -29.5 8.5t-12.5 23.5l-9 27q-10 27 -20 57q-1 3 -7 19.5t-7 19.5q-4 21 -11 21q-5 0 -8 -22q0 -13 1 -35v-12v-20.5v-12.5q0 -4 1 -23t1 -22q0 -28 -22 -28q-5 0 -35.5 1
t-36.5 1q-4 0 -27 -1t-28 -1q-20 0 -20 29q0 9 2 31q2 19 2 58z" />
    <glyph glyph-name="l" unicode="l" horiz-adv-x="229" 
d="M126 706q3 0 20.5 0.5t21.5 0.5q12 0 21 -8.5t9 -21.5v-11q-4 -28 -4 -61q0 -6 0.5 -41t0.5 -42q0 -2 -0.5 -18t-0.5 -19v-137q0 -8 1.5 -55t1.5 -56v-56q0 -10 -0.5 -36t-0.5 -36q0 -5 1.5 -33t1.5 -34q0 -36 -19 -41q-2 -1 -26 -1q-3 0 -25 1t-26 1q-3 0 -20 -1t-20 -1
q-17 0 -25 9t-8 20q0 6 1 43.5t1 44.5q0 15 -0.5 44t-0.5 43q0 5 0.5 34.5t0.5 35.5q0 51 -3 99q0 5 0.5 34.5t0.5 35.5q0 5 -0.5 33.5t-0.5 34.5t1.5 45t1.5 47q0 21 -2 40q-1 11 -1 16q0 29 7.5 38t33.5 9h56z" />
    <glyph glyph-name="m" unicode="m" horiz-adv-x="688" 
d="M487 192v33q0 5 1 33.5t1 33.5q0 21 -1 55q-2 39 -30 39q-15 0 -22 -11q-5 -7 -7 -39q0 -37 -3 -70q0 -4 0.5 -28t0.5 -29q0 -9 -2 -59.5t-2 -60.5q0 -27 1 -40q0 -1 1 -12t1 -13q0 -8 -6 -16t-20 -8q-10 0 -14 1q-10 1 -30 1q-5 0 -37.5 -1t-38.5 -1q-9 0 -16 7.5
t-7 18.5q0 40 3 79q0 2 -0.5 13t-0.5 14q0 4 1 24t1 24q0 3 -0.5 20t-0.5 20q0 16 -0.5 56t-0.5 56t-1 25t-8.5 19.5t-22.5 10.5q-8 0 -17.5 -6.5t-11.5 -19.5q-4 -28 -4 -69q0 -5 2 -38.5t2 -40.5t-1.5 -49.5t-1.5 -50.5q0 -33 1 -58q2 -8 2 -25q0 -29 -33 -29
q-2 0 -14.5 0.5t-14.5 0.5q-5 0 -37.5 -1t-39.5 -1q-26 0 -26 28q0 4 1 31t1 32t-1.5 37.5t-1.5 38.5q0 5 1 38.5t1 40.5q0 16 -1.5 48.5t-1.5 48.5q0 7 1.5 50.5t1.5 51.5q0 5 -0.5 31t-0.5 30q0 15 3 24.5t9.5 13t11.5 4.5t15 1q7 0 21.5 -0.5t22.5 -0.5q4 0 29.5 2
t30.5 2q16 0 23 -11l6 -12q4 -8 7 -8q1 0 3 1.5t5.5 4t5.5 4.5q2 3 9.5 8t25 11t36.5 6q47 0 89 -29q15 -13 23 -13q7 0 23 11q39 29 89 29q49 0 82 -29.5t43 -77.5q9 -36 9 -81q0 -4 -1.5 -28t-1.5 -29q0 -3 1 -23.5t1 -24.5q0 -5 -0.5 -16t-0.5 -17q0 -2 1 -17t1 -18v-41
q0 -7 -2.5 -25.5t-2.5 -29.5q0 -3 1.5 -22t1.5 -23q0 -16 -3 -28q0 -24 -20 -24q-3 0 -25.5 1t-26.5 1t-31.5 -1t-32.5 -1q-12 0 -16 2q-15 8 -15 30q0 4 0.5 12t0.5 12q2 21 2 72q0 4 0.5 31.5t0.5 32.5z" />
    <glyph glyph-name="n" unicode="n" 
d="M140 2h-38q-18 0 -26 -1q-2 0 -7 -0.5t-8 -0.5q-29 0 -29 35q0 5 1 32t1 32q0 8 -1.5 56.5t-1.5 57.5q0 21 2 65q2 22 4 64q0 3 -0.5 23t-0.5 24q0 2 0.5 18.5t0.5 19.5q0 4 -1.5 31.5t-1.5 32.5q0 36 5 45q9 16 30 16q12 0 21 -1q5 0 12.5 -0.5t8.5 -0.5q23 0 41 2
q3 0 9 0.5t9 0.5q14 0 19 -8q2 -2 3 -7.5t2 -6.5q2 -7 6 -7l4 2q3 2 6.5 4.5t4.5 2.5q39 25 82 25q58 0 97 -43q35 -38 35 -117q0 -3 -1 -21t-1 -22t0.5 -28t0.5 -29t-1 -36t-1 -37q0 -4 0.5 -27t0.5 -28q0 -4 -1 -30t-1 -31q0 -3 1 -21.5t1 -22.5q0 -32 -6.5 -48t-26.5 -16
q-2 0 -22 1.5t-24 1.5t-27 -1.5t-27 -1.5q-16 0 -23 5q-13 13 -13 25q0 6 2.5 44t2.5 45q0 8 -1.5 53.5t-1.5 54.5q0 29 1 43q1 9 2 27t2 27v26q0 41 -32 41q-31 0 -33 -38q-5 -67 -5 -107q0 -4 1 -29t1 -30q0 -14 -1.5 -43.5t-1.5 -44.5q0 -14 2 -50q1 -6 1 -18
q0 -32 -23 -32q-1 0 -16.5 1t-17.5 1z" />
    <glyph glyph-name="o" unicode="o" 
d="M23 289q0 44 4 66q7 49 15 73q2 9 7 22.5t19 36t32 36.5q51 41 131 41q87 0 138 -48q29 -29 42 -58q16 -36 20.5 -73t4.5 -108q0 -75 -14 -131q-6 -29 -18.5 -54.5t-34 -50t-56 -38.5t-79.5 -14q-97 0 -143 44q-60 55 -67 171q-1 15 -1 85zM268 338q0 21 -8.5 44
t-29.5 23q-26 0 -38 -48q-5 -28 -4 -77q0 -3 -0.5 -21t-0.5 -21q0 -83 39 -83q13 0 24 12t14 33q4 23 4 138z" />
    <glyph glyph-name="p" unicode="p" 
d="M197 512q1 0 10 11q23 35 73 35q49 0 86 -30q37 -31 55 -95q15 -52 16 -104q0 -6 0.5 -44.5t0.5 -41.5q0 -43 -8 -75q0 -2 -8.5 -31t-10.5 -34q-16 -42 -55 -77t-88 -35q-30 0 -51 11l-15 6q-12 0 -12 -19q0 -3 1 -24.5t1 -25.5q0 -26 -24 -26h-9q-21 1 -49 1
q-4 0 -22 -0.5t-22 -0.5q-36 0 -36 29v26q0 9 1 65.5t1 67.5q0 10 -1.5 68.5t-1.5 69.5q0 6 1.5 36.5t1.5 35.5t-1 34t-1 35v38q0 6 -0.5 42.5t-0.5 43.5q0 27 8 37q9 11 21 11q1 0 9.5 -0.5t10.5 -0.5q4 0 23.5 -0.5t22.5 -0.5q21 0 31 2q3 0 8 0.5t7 0.5q24 0 24 -18
q0 -2 -0.5 -5.5t-0.5 -6.5q0 -11 4 -11zM234 381q-19 0 -29 -24q-11 -27 -11 -101q0 -93 38 -93q11 0 19 8t10 14q10 20 10 83q0 41 -4 73q-2 16 -9.5 25.5t-13 12t-10.5 2.5z" />
    <glyph glyph-name="q" unicode="q" 
d="M343 -82h-38q-1 0 -11.5 -1t-12.5 -1q-23 0 -23 24q0 2 1 18t1 19q0 33 -10 33q-3 0 -15 -6q-24 -12 -52 -12q-26 0 -55 13q-20 10 -36 27q-43 44 -51 85q-18 77 -18 146q0 104 14 155t40 86q39 55 102 55q53 0 77 -36q9 -12 11 -12q4 0 4 10q0 1 -0.5 6.5t-0.5 7.5
q0 18 16 18l10 -1h11q12 -2 46 -2q16 0 28 1h29q22 0 22 -24q0 -1 -1.5 -40t-1.5 -41q-4 -46 -4 -69q0 -8 1 -55.5t1 -56.5v-37q0 -12 -1 -86t-1 -88q0 -38 2 -58q1 -21 1 -51q0 -28 -24 -28q-4 0 -30 0.5t-31 0.5zM228 386q-18 0 -31 -35q-13 -41 -13 -67q0 -48 7 -71
q14 -48 37 -48q11 0 20.5 10.5t10.5 30.5q0 2 2 45t2 45q0 35 -8.5 62.5t-26.5 27.5z" />
    <glyph glyph-name="r" unicode="r" horiz-adv-x="313" 
d="M202 504q6 0 13 11q26 43 67 43q12 0 20 -7.5t8 -18.5q0 -2 -1 -12.5t-1 -12.5v-29q0 -9 -0.5 -25.5t-0.5 -24.5q0 -4 1 -23t1 -22q0 -36 -25 -36q-2 0 -14 1.5t-15 1.5q-17 0 -30 -11q-25 -20 -25 -56v-94q0 -4 -1 -25.5t-1 -25.5q-1 -10 -1 -64q0 -13 1 -19q0 -2 1 -14
t1 -14q0 -28 -33 -28q-5 0 -30.5 0.5t-29.5 0.5q-23 0 -34 -1q-8 -2 -13 -2q-22 0 -28 17q-1 3 -1 20q0 3 1.5 19.5t1.5 19.5q0 11 -1 37t-1 37q0 47 1 53q0 4 1 27t1 27q0 8 -1.5 50t-1.5 50q0 32 1 48q1 21 1 39q0 5 -0.5 31t-0.5 30q0 27 3 34q9 18 28 18q9 0 25 -2
q10 -1 30 -1q28 0 42 1q4 1 13 1q27 0 27 -22q0 -1 -1 -9t-1 -10q0 -8 3 -8z" />
    <glyph glyph-name="s" unicode="s" horiz-adv-x="375" 
d="M334 436l-1 -14q0 -8 -10.5 -16.5t-20.5 -8.5q-4 0 -7 1q-2 0 -31 12q-19 8 -30 8q-13 0 -22.5 -6.5t-9.5 -15.5t6 -15q6 -8 34 -22q7 -4 33.5 -19.5t30.5 -17.5q8 -7 18 -20q1 -1 3.5 -4t3.5 -5q35 -39 35 -110q0 -57 -27 -105q-47 -85 -188 -85q-60 0 -108 17
q-21 8 -25 17t-4 40q0 5 -0.5 35t-0.5 36q0 41 37 41q8 0 25 -8q24 -12 58 -12q50 0 50 28q0 15 -18 29q-5 4 -52 35q-34 22 -44 30q-29 28 -39.5 54.5t-10.5 67.5q0 39 14 68q11 22 19.5 34t27 28.5t50 24t76.5 7.5q29 0 89 -5q40 -5 40 -35q0 -5 -2 -17q-1 -7 -1 -23
q0 -3 1 -24t1 -25z" />
    <glyph glyph-name="t" unicode="t" horiz-adv-x="271" 
d="M1 382v83q0 29 3 38t13 12q2 1 4 1h3.5t4.5 0.5t5 0.5q8 5 9 7q2 2 2 28q0 7 -1.5 38.5t-1.5 33.5q0 11 4 19.5t8 11.5t5 3q6 4 44 3h57q15 0 22 -1t14 -7t7 -19q0 -5 -1 -38.5t-1 -40.5q0 -25 4 -31.5t23 -8.5q11 -1 17 -6.5t7.5 -12.5t1.5 -19v-92q0 -11 -15 -26
q-3 -2 -9 -2t-9 -1q-16 -7 -16 -43q0 -96 2 -124q4 -34 23 -35q23 -3 23 -26q0 -5 0.5 -39.5t0.5 -41.5q0 -40 -27 -44q-10 -2 -52 -2q-2 0 -16 -0.5t-17 -0.5q-82 0 -97 71q-4 15 -4 96q-2 56 -2 86q0 4 0.5 29.5t0.5 30.5q0 17 -1 24.5t-5.5 13.5t-14.5 7q-14 2 -18 9
q-1 2 0 15z" />
    <glyph glyph-name="u" unicode="u" 
d="M67 547h16q12 -2 66 -2q1 0 12 1t13 1q25 0 25 -29q0 -13 -2 -29q-2 -22 -2 -27q0 -4 1.5 -31.5t1.5 -32.5q0 -14 -1 -21q0 -9 -2 -29q0 -5 -0.5 -39t-0.5 -40q0 -11 1 -33t1 -33q0 -16 -1 -24q-1 -5 -1 -15q0 -14 8 -22.5t19 -8.5q35 0 35 70q0 2 -0.5 18.5t-0.5 19.5
q0 5 2 38t2 39q0 5 -1.5 34.5t-1.5 35.5q0 8 1 26t1 26q0 6 -2 36t-2 36q0 22 15 31q6 4 32 4q2 0 17.5 -1t18.5 -1q4 0 28.5 0.5t29.5 0.5q31 0 31 -24q0 -4 -1.5 -32t-1.5 -34q0 -4 1 -33.5t1 -35.5q0 -12 -1 -36t-1 -37q0 -3 0.5 -26t0.5 -28q0 -6 -1.5 -42.5t-1.5 -43.5
q0 -4 1 -24t1 -23t-0.5 -21.5t-0.5 -22.5t1 -29t1 -30q0 -23 -29 -23q-3 0 -26 1t-28 1t-29.5 -1.5t-26.5 -1.5q-11 0 -14 7q-2 2 -2.5 7t-1.5 7q-2 8 -10 8q-4 0 -19 -10q-37 -24 -95 -24q-74 2 -100 53q-11 21 -11 56q0 3 1.5 21.5t1.5 22.5q0 7 -2 51.5t-2 53.5t2.5 65.5
t2.5 67.5q0 17 -2 51q-3 42 -3 69q0 41 36 41z" />
    <glyph glyph-name="v" unicode="v" horiz-adv-x="396" 
d="M-2 531q0 25 31 25q3 0 24.5 -1t25.5 -1q3 0 23 1t24 1q30 0 38 -15q2 -4 3 -18t2 -30.5t1 -18.5q1 -9 3.5 -26t3.5 -22l3 -36q1 -7 4 -38.5t4 -45.5l4 -14l3 6q2 10 13 89t11 81q0 18 1 26q0 6 2 14q3 26 5 30q10 17 31 17q2 0 17 -1t18 -1h56q1 0 9 0.5t10 0.5
q26 0 26 -31q0 -8 -4 -24q-3 -8 -13 -55q-1 -4 -3.5 -22.5t-5.5 -35.5t-4 -23q-2 -13 -8.5 -37t-8.5 -34q-3 -14 -8.5 -43t-9.5 -43l-14 -56q-1 -6 -5 -19.5t-6 -20.5q-3 -11 -8 -31.5t-8 -30.5q-1 -3 -2.5 -9t-1.5 -8q-5 -20 -14.5 -25t-26.5 -5q-3 0 -21 0.5t-22 0.5
q-3 0 -22.5 -1t-23.5 -1q-30 0 -43 10t-18 39q-7 41 -18 76q-7 24 -9 37q-7 40 -13 64q-13 53 -17 71q-1 9 -3 24.5t-4 29t-5 25.5q-1 8 -5 24t-5 24q-2 11 -9 55t-7 52z" />
    <glyph glyph-name="w" unicode="w" horiz-adv-x="625" 
d="M253 329v7l-3 16q-4 17 -9 41t-10 50t-8.5 48t-3.5 30q0 14 6.5 21.5t11.5 8.5t13 1q3 0 25 -0.5t26 -0.5t26 1t26 1q19 0 28.5 -9.5t11 -19t1.5 -27.5q0 -21 2 -39q1 -10 5 -42.5t5 -50.5q0 -6 0.5 -17t1 -20t1.5 -17q2 -14 2 -20q1 -12 5 -12q3 0 4 13q1 5 10.5 59
t19 104.5t9.5 51.5q5 25 12.5 35t26.5 10q4 0 25 -1.5t25 -1.5q1 0 9.5 0.5t14.5 0.5q10 1 24 1q10 0 14 -2q17 -9 17 -26q0 -9 -6 -39q-12 -42 -31 -139q-7 -38 -26 -106q-10 -35 -18 -71q-17 -78 -32 -124q-10 -30 -17 -38t-28 -8q-3 0 -19.5 0.5t-20.5 0.5q-2 0 -18 -0.5
t-19 -0.5q-1 0 -10 -0.5t-11 -0.5q-17 0 -23 14q-2 4 -22 84q-9 47 -21 47q-8 0 -14 -17l-20 -80q-4 -12 -6 -23q-7 -26 -29 -26q-3 0 -25 2q-6 0 -16 0.5t-11 0.5q-4 0 -23 -1t-22 -1q-18 0 -24.5 9t-11.5 31q-1 4 -3.5 11t-3.5 10q-3 12 -13 62q-28 116 -35 153
q-7 42 -10 58q-6 40 -21 92q-4 15 -10 45q-7 27 -7 51q0 32 29 33q3 0 23 -0.5t24 -0.5q3 0 23.5 1t24.5 1q27 0 35.5 -8.5t12.5 -44.5q4 -28 14 -68q27 -108 34 -164q0 -10 8 -10q2 0 3 1q5 5 14 49q1 4 4 11t4 10z" />
    <glyph glyph-name="x" unicode="x" horiz-adv-x="417" 
d="M18 525q0 28 34 28q3 0 9 -0.5t9 -0.5q28 -2 42 -2q23 0 34 2q2 0 6 0.5t6 0.5q16 0 24 -16q4 -6 9.5 -24.5t9.5 -34t4 -16.5q2 -10 7 -10q3 0 8 12q1 4 11 38.5t11 36.5q13 13 24 13q2 0 12.5 -0.5t12.5 -0.5t14.5 -0.5t14.5 -0.5q4 0 28 1.5t29 1.5q32 0 32 -21
q0 -7 -10 -29q-8 -16 -20 -44l-21 -39q-1 -3 -3.5 -9t-4.5 -9l-25 -50q-3 -6 -7 -17.5t-7 -17.5q-11 -22 -11 -31q0 -8 13 -34q3 -8 11 -23t11 -22q2 -5 21 -50q4 -9 27 -55q30 -60 30 -84q0 -17 -18 -17q-2 0 -9 0.5t-8 0.5q-81 0 -100 -2q-2 0 -7 -0.5t-7 -0.5
q-19 0 -27 17q-1 2 -7 22q-1 4 -3.5 11t-3.5 9q-6 15 -11 36q-2 12 -7 12q-2 0 -8 -12q-10 -35 -22 -71q-7 -24 -27 -24q-2 0 -8 0.5t-8 0.5q-8 1 -52 1q-3 0 -19.5 -1t-20.5 -1q-1 0 -8.5 0.5t-8.5 0.5q-23 0 -23 19q0 7 15.5 45t19.5 44q5 12 15 34t18 40t15 34l15 33
q16 30 16 40q0 12 -13 38q-8 17 -16 35q-26 63 -40 92q-1 2 -4.5 9.5t-5.5 12.5q-4 7 -7 19q-10 25 -10 30z" />
    <glyph glyph-name="y" unicode="y" horiz-adv-x="375" 
d="M221 474l2 40q0 37 27 39q2 0 16 -0.5t17 -0.5q1 0 11 0.5t12 0.5q19 0 27 -2q1 0 10 0.5t11 0.5q9 0 17 -7t8 -22q-4 -72 -5 -75q0 -2 -6 -31q-2 -7 -9.5 -42.5t-8.5 -40.5q-2 -8 -15 -62q-16 -67 -19 -79q-2 -7 -21 -61l-6 -24q-19 -70 -26.5 -90t-24.5 -43
q-36 -47 -100 -56q-22 -2 -81 -2q-24 0 -39 13q-8 7 -9.5 12.5t-2.5 25.5v79q0 12 2 16q7 14 30 14q5 0 13 -2l6 -2t5 -1l2 -1q15 0 20 15q1 2 1 16v8q-2 8 -7 33q-5 29 -18 74q-5 16 -14 55q-8 47 -9 52q-1 6 -3.5 17t-3.5 16q-6 33 -15 69q-15 65 -15 98q0 29 26 29
q6 0 9 -1q12 -1 36 -1q26 0 39 1q2 0 16 1t17 1q23 0 27 -23q0 -5 2 -29.5t2 -28.5q0 -9 6.5 -61.5t7.5 -62.5q0 -45 8 -45l3 6q10 67 10 72q1 4 3 27t2 27q1 5 3.5 18t3.5 20z" />
    <glyph glyph-name="z" unicode="z" horiz-adv-x="354" 
d="M28 516q0 32 34 32q2 0 18.5 -1t19.5 -1q4 0 27.5 0.5t28.5 0.5q3 0 26 -0.5t28 -0.5q11 0 32.5 0.5t32.5 0.5q37 0 45 -1q25 -2 25 -29v-60q0 -15 -10 -31q-27 -54 -32 -65q-3 -7 -9 -22t-10 -23q-21 -46 -46 -92q-17 -32 -17 -45q0 -17 31 -17q41 0 53 2q8 2 13 2
q23 0 23 -21q0 -4 -2 -14q-4 -12 -4 -67q0 -17 1 -25q2 -8 2 -13q0 -10 -8 -18.5t-20 -8.5q-2 0 -15 1.5t-16 1.5q-17 0 -59 -1.5t-58 -1.5q-12 0 -36 0.5t-35 0.5q-3 0 -21 -0.5t-22 -0.5q-37 0 -37 36q0 4 0.5 27t0.5 27q0 20 16 44q15 23 31 67q18 44 29 66q21 39 49 88
q5 10 5 17q0 13 -18 16q-1 0 -11.5 -0.5t-12.5 -0.5q-5 0 -17 1t-18 1h-11q-13 0 -21 8t-8 20q2 36 2 39q1 12 1 61z" />
    <glyph glyph-name="braceleft" unicode="{" horiz-adv-x="396" 
d="M130 51v24v29q0 10 -2 30q-3 21 -3 22q0 4 -0.5 16t-1.5 18q-3 14 -13 30q-10 15 -19 21.5t-26 8.5q-35 4 -37 27v20q0 3 -2 22.5t-2 23.5q0 21 9 32q6 7 31 8q25 4 34 15q22 31 24 38q8 27 8 77q0 3 -1 15t-1 14q0 12 1 18q4 16 5 24q1 3 2 14t3 16q6 21 23 40
q12 14 52 39q28 14 64 14q14 0 21 -1q4 0 10.5 -0.5t9.5 -0.5t19.5 1.5t19.5 1.5q34 0 38 -20v-9v-15v-9q0 -2 0.5 -12t0.5 -12q0 -34 -25 -34q-2 0 -10 1t-9 1q-11 0 -24.5 -6.5t-21 -12.5t-7.5 -7q-13 -16 -13 -41q0 -4 1 -24t1 -23t-1 -22t-1 -23q0 -26 -15 -53
q-18 -30 -31 -40l-15 -9q-19 -13 -34 -16q-14 -3 -14 -6t15 -3q41 -13 60 -29q10 -9 18 -28t11.5 -31.5t3.5 -14.5v-18l1 -19q0 -2 -0.5 -11t-0.5 -11t2 -17.5t2 -18.5q0 -2 -0.5 -12t-0.5 -12q0 -14 3 -20q4 -9 14 -18t19 -11q3 -1 20.5 -2.5t19.5 -1.5q20 -3 24.5 -9.5
t4.5 -24.5q0 -7 1 -10q0 -2 2 -12t2 -11q0 -31 -11.5 -40t-36.5 -9q-3 0 -23.5 2t-24.5 2q-3 0 -18 -1.5t-17 -1.5q-22 0 -40 8q-7 3 -14 8q-4 1 -11 4t-10 4q-28 16 -39 40q-7 12 -9 15q-16 19 -15 49z" />
    <glyph glyph-name="braceright" unicode="}" horiz-adv-x="396" 
d="M107 125v21q0 46 3 67q3 11 17 36t30 35l15 9q17 11 32 15q14 5 14 6l-8 2q-8 1 -30 9q-32 14 -41 24.5t-19 37.5q-8 21 -9.5 30t-1.5 39q0 2 0.5 11t0.5 10q0 3 -2 19t-2 19q0 1 0.5 9t0.5 10q0 22 -7 33q-2 3 -12 11t-16 10q-3 1 -21 2.5t-20 1.5q-20 3 -24.5 9
t-4.5 19q0 16 -3 28q-2 9 -2 12q0 13 4 25q7 23 35 23h6q5 0 12 -0.5t10 -0.5q20 -2 30 -2l5 1h9q6 1 15 1q30 0 45 -8q3 -1 7.5 -3.5t5.5 -3.5q8 -3 10 -4q26 -9 42 -30q2 -4 6.5 -12t6.5 -11q18 -26 20 -50v-32q0 -46 2 -58q3 -21 3 -40q0 -23 18 -50q6 -9 10 -13t12.5 -8
t21.5 -5l6 -1q6 -1 9 -2q20 -6 20 -27q0 -2 -0.5 -9t-0.5 -8q0 -3 2 -21t2 -22q0 -14 -4 -25q-5 -16 -22 -17q-29 -2 -35 -6q-8 -4 -21.5 -22t-16.5 -26q-7 -23 -7 -76q0 -1 1 -10t1 -10q0 -17 -1 -25q0 -4 -2 -13t-3 -14q-1 -3 -1.5 -8t-0.5 -8q-3 -10 -4 -13
q-8 -26 -20.5 -39t-40.5 -31q-35 -22 -79 -22q-3 0 -20 0.5t-20 0.5t-20 -1.5t-20 -1.5q-32 0 -36 21q0 3 0.5 16.5t0.5 15.5t-1 12.5t-1 12.5q0 17 8.5 25t17.5 8q2 0 10 -1t9 -1q27 0 53 26q12 20 12 42q0 1 -0.5 12.5t-0.5 13.5z" />
    <glyph glyph-name="exclamdown" unicode="&#xa1;" horiz-adv-x="271" 
d="M125 709q3 0 20 1t20 1q26 0 35 -4q10 -6 12 -15t2 -33q0 -5 0.5 -36t0.5 -37q0 -1 0.5 -11t0.5 -12q0 -12 -8 -21.5t-22 -11.5q-6 -1 -41 -1q-3 0 -20.5 0.5t-21.5 0.5q-1 0 -11 -0.5t-12 -0.5q-15 0 -24.5 10t-11.5 25v91q0 16 1 23t4.5 16t13.5 12.5t26 3.5
q2 0 17.5 -0.5t18.5 -0.5zM59 334q10 104 11 120q0 28 27 28h23q22 -1 27 -1q1 0 10 0.5t10 0.5q4 0 5 -1q22 -4 22 -31q0 -23 6 -67l9 -75q1 -11 2 -32.5t2 -32.5q0 -9 1.5 -27t2.5 -28q6 -54 6 -138q0 -26 -6 -34q-12 -15 -33 -15q-2 0 -16 0.5t-16 0.5h-34q-17 0 -25 -1
q-12 -2 -17 -2q-35 0 -35 41q0 3 2 27.5t2 29.5q1 20 2.5 59t2.5 59q4 78 9 119z" />
    <glyph glyph-name="cent" unicode="&#xa2;" horiz-adv-x="333" 
d="M225 -81h-23q-25 0 -25 21q0 3 0.5 21t0.5 22q0 12 -14 14q-19 2 -47 17q-33 19 -57.5 64.5t-30.5 81.5q-5 26 -5 137q0 58 18 112q15 43 31 66q35 49 97 70q4 1 5 1.5t3.5 2t3.5 4.5t1 7v28q0 8 3.5 11.5t8.5 4t17 0.5q1 0 11 0.5t12 0.5q7 0 10.5 -4t4 -8.5t0.5 -14.5
q0 -9 0.5 -13.5t3 -7t4.5 -3t7 -0.5q18 -2 26 -8t8 -25q0 -3 -0.5 -20.5t-0.5 -20.5q0 -5 0.5 -35t0.5 -36q0 -15 -6.5 -22.5t-14.5 -9t-22 -1.5q-41 0 -53 -34q-7 -17 -8 -31.5t-1 -69.5q0 -39 26 -63q11 -11 19.5 -13t28.5 -2q33 0 33 -26q0 -1 -1 -11t-1 -12v-47
q0 -3 0.5 -20t0.5 -21q0 -19 -13 -27q-9 -7 -32 -7q-7 0 -8.5 -4.5t-1.5 -21.5q0 -2 1 -13.5t1 -13.5q0 -20 -22 -20z" />
    <glyph glyph-name="sterling" unicode="&#xa3;" horiz-adv-x="479" 
d="M279 489v21q0 30 -6 44q-8 17 -26 17q-11 0 -25 -14q-15 -18 -15 -60q0 -32 13 -92h55q3 0 19 1.5t19 1.5q20 0 24 -11.5t3 -46.5q0 -2 0.5 -11t0.5 -11q0 -28 -26 -28q-7 0 -36.5 0.5t-38.5 0.5q7 -44 7 -74q0 -29 -9 -65q29 -12 46 -12q20 0 26 21q1 4 2 11.5t3 11.5
q8 16 26 16q4 0 27 -1t28 -1q2 0 16 1t16 1q32 0 32 -32q0 -64 -17 -104q-14 -32 -49 -54t-80 -22q-38 0 -72 15q-41 18 -53 18q-14 0 -21 -7q-2 -3 -7 -9t-8 -8q-8 -6 -19 -6q-3 0 -9 0.5t-9 0.5q-12 2 -19 2q-6 0 -37.5 -1.5t-32.5 -1.5q-8 0 -14 5.5t-6 11.5q0 3 2 7
q16 63 70 107q11 35 11 70q0 47 -12 97h-10q-2 0 -12.5 -0.5t-12.5 -0.5q-28 0 -28 29q0 4 1 27.5t1 28.5q4 26 23 26q1 0 8 -0.5t9 -0.5q-15 79 -15 112q0 96 58 144q56 47 147 47q31 0 62 -7q60 -15 90 -60q32 -48 32 -125q0 -38 -8.5 -48.5t-33.5 -10.5q-3 0 -21.5 1.5
t-22.5 1.5h-39q-9 0 -13.5 1t-9 7t-4.5 18z" />
    <glyph glyph-name="yen" unicode="&#xa5;" horiz-adv-x="479" 
d="M28 180v23q0 1 -0.5 11t-0.5 12q0 14 16 22q4 1 43 1q2 0 17 -0.5t18 -0.5q1 0 6.5 0.5t6.5 0.5q14 3 14 10q0 3 -5 19t-5 18q-5 17 -17 17q-1 0 -12 -1t-13 -1t-9 0.5t-9 0.5t-11 -0.5t-10 -0.5q-28 0 -28 19q0 1 0.5 10.5t0.5 11.5q0 15 -2 24q-2 6 -2 10q0 6 5.5 12
t19.5 6q1 0 11 -0.5t12 -0.5q23 0 23 8q0 4 -14 37q-23 46 -37 97q-16 46 -18 50q-17 48 -18 50q-12 32 -12 35q0 27 32 27q4 0 23 -1t23 -1t30.5 0.5t31.5 0.5q30 0 40 -10.5t23 -64.5q6 -30 9 -46q2 -4 4.5 -12.5t3.5 -12.5q6 -24 18 -70q3 -12 8 -12q4 0 8 18q6 24 7 27
q0 1 18 65q6 22 9 41q12 57 19 66t14 10.5t28 1.5q3 0 21 -0.5t22 -0.5q3 0 23 1t24 1q42 0 42 -30q0 -18 -21.5 -83.5t-42.5 -123.5l-21 -58q0 -8 10 -8q2 0 12 1.5t12 1.5q11 0 15.5 -5.5t5.5 -12t1 -21.5q0 -1 1 -12t1 -13q0 -29 -21 -29q-1 0 -10 1t-10 1q-4 0 -12 -0.5
t-11 -0.5q-2 0 -12.5 1t-12.5 1q-6 0 -12 -7q-5 -9 -9 -31q-8 -23 -8 -26q0 -10 10 -10q2 0 10 0.5t10 0.5t14.5 -0.5t15.5 -0.5q2 0 15 1t16 1q15 0 22 -7q6 -6 4 -34q0 -1 0.5 -9t0.5 -10q0 -28 -22 -28q-7 0 -27 2q-2 0 -5.5 1t-6.5 1.5t-6 0.5q-1 0 -8.5 -1t-9.5 -1
q-1 0 -10 0.5t-10 0.5q-13 0 -17 -4q-4 -3 -4 -37q0 -5 1 -32.5t1 -32.5q0 -20 -1 -29t-9 -18t-23 -9q-2 0 -17 0.5t-18 0.5t-23.5 -1t-24.5 -1h-26q-34 0 -36 35v48q0 2 -0.5 16t-0.5 17q0 2 1 15.5t1 15.5q0 10 -8 12q-18 3 -53 3q-2 0 -11 -1.5t-11 -1.5q-19 0 -27 4
q-10 4 -13 18z" />
    <glyph glyph-name="dieresis" unicode="&#xa8;" horiz-adv-x="271" 
d="M-39 681q0 20 20 23h45q2 0 16 -0.5t17 -0.5q2 0 18.5 0.5t19.5 0.5q15 0 20 -6t5 -18q-1 -13 -1 -53q0 -25 -29 -25q-2 0 -14.5 0.5t-14.5 0.5q-4 0 -24 0.5t-24 0.5q-3 0 -15 -0.5t-15 -0.5q-24 0 -24 21q0 2 1 15t1 16q0 2 -1 13t-1 13zM148 685q0 18 16 18q4 0 6 -1
h79q5 0 18.5 0.5t18.5 0.5q25 0 25 -18q0 -1 -0.5 -13.5t-0.5 -15.5v-29q0 -24 -44 -24q-3 0 -21 1t-22 1q-7 0 -20 -0.5t-19 -0.5q-15 0 -21 1t-10.5 6t-4.5 17q0 1 0.5 12.5t0.5 13.5q0 5 -0.5 15t-0.5 16z" />
    <glyph glyph-name="copyright" unicode="&#xa9;" horiz-adv-x="833" 
d="M773 354q0 -149 -103 -253t-254 -104q-143 0 -249 101t-106 255q0 151 105 253.5t251 102.5q152 0 254 -104t102 -251zM417 29q137 0 230.5 94.5t93.5 229.5t-93 229.5t-229 94.5q-137 0 -231.5 -95t-94.5 -229q0 -136 95 -230t229 -94zM534 270l87 -80q-80 -84 -196 -84
q-118 0 -184 71t-66 176q0 106 67.5 178.5t182.5 72.5q114 0 196 -85l-87 -84q-51 49 -110 49q-62 0 -93.5 -38t-31.5 -92q0 -58 34.5 -93.5t92.5 -35.5q60 0 108 45z" />
    <glyph glyph-name="ordfeminine" unicode="&#xaa;" horiz-adv-x="313" 
d="M49 678q0 16 22 22q53 12 87 12t63 -11t39 -24q14 -18 14 -62q0 -3 -0.5 -20.5t-0.5 -21.5q0 -2 0.5 -17t0.5 -18v-16v-50q0 -3 -1 -24t-1 -25q0 -2 1 -17.5t1 -18.5q0 -17 -11 -20h-36l-32 -2q-8 0 -10 6q-1 1 -1 3t-1 3q-2 2 -4 2q-1 0 -6 -4t-6 -4q-17 -10 -43 -10
q-34 0 -56 16q-40 29 -40 84q0 47 7 64q13 30 39 43q34 18 57 18q3 0 18 -1t17 -1q13 0 13 12q0 16 -11 20q-8 4 -40 4q-16 0 -37 -7q-21 -8 -24 -8q-11 0 -15 10q-3 5 -2 37q0 2 -0.5 13t-0.5 13zM156 511q-9 0 -18 -8t-9 -30q0 -17 7.5 -24.5t16.5 -7.5q26 0 26 37
q0 33 -23 33z" />
    <glyph glyph-name="guillemotleft" unicode="&#xab;" horiz-adv-x="292" 
d="M158 280q0 4 -0.5 25t-0.5 25q0 17 4.5 23.5t22.5 18.5q30 18 53 38q13 12 21 12q9 0 10.5 -3t1.5 -10q0 -1 0.5 -10t0.5 -11q0 -3 -0.5 -22.5t-0.5 -23.5q0 -1 0.5 -11t0.5 -12q0 -13 -4 -18q-1 -2 -16 -11.5t-15 -12.5t8 -7l18 -12q10 -6 9 -31v-78q0 -18 -15 -18
q-6 0 -18 8q-21 15 -41 27q-28 18 -33.5 25t-5.5 23v66zM25 282q0 2 -1 18t-1 19q0 17 4 23.5t21 17.5q42 27 62 46q14 14 21 14q15 0 15 -23q-1 -5 0 -15q0 -3 -0.5 -24t-0.5 -25q0 -1 0.5 -10t0.5 -10q0 -15 -13 -22q-26 -13 -26 -19q0 -2 8 -6.5t16.5 -9.5t10.5 -7
q5 -6 3 -31v-44v-20t-1.5 -13t-4.5 -9t-9 -2q-9 0 -45 26q-6 5 -33 22q-17 10 -22 15.5t-6 15.5q0 7 0.5 39t0.5 34z" />
    <glyph glyph-name="registered" unicode="&#xae;" horiz-adv-x="833" 
d="M250 586h163q74 0 108 -11q40 -13 60.5 -45t20.5 -68q0 -31 -15.5 -54.5t-29.5 -32t-35 -18.5q23 -14 33.5 -30t17.5 -56q6 -39 9.5 -58t11 -42t18.5 -43h-126q-14 29 -25 99q-10 68 -23.5 80.5t-77.5 12.5v-192h-110v458zM360 502v-95h48q49 0 64 9q20 11 20 40
q0 30 -24 41q-13 5 -75 5h-33zM773 354q0 -149 -103.5 -253t-254.5 -104q-143 0 -248.5 101t-105.5 255q0 152 104.5 254t250.5 102q152 0 254.5 -104t102.5 -251zM416 29q137 0 231 94.5t94 230.5q0 134 -93.5 228.5t-229.5 94.5t-230.5 -95t-94.5 -229q0 -136 94.5 -230
t228.5 -94z" />
    <glyph glyph-name="macron" unicode="&#xaf;" horiz-adv-x="271" 
d="M2 668q0 27 31 27q6 0 41.5 -1.5t42.5 -1.5q14 0 21 1q1 0 14.5 1.5t20.5 1.5q2 0 16.5 -1.5t17.5 -1.5q2 0 14 1.5t15 1.5q10 0 15.5 -1t11.5 -6.5t6 -16.5q0 -2 -2 -16t-2 -16q0 -1 0.5 -8.5t0.5 -8.5q0 -23 -30 -23q-3 0 -24 1.5t-25 1.5q-10 0 -19 -3q-3 0 -14 -0.5
t-12 -0.5q-3 0 -20.5 1.5t-21.5 1.5q-2 0 -14 -1t-14 -1h-19q-1 0 -11 -0.5t-12 -0.5q-13 0 -21 7t-8 16q0 1 1.5 11.5t1.5 12.5q0 4 -1 11.5t-1 10.5z" />
    <glyph glyph-name="twosuperior" unicode="&#xb2;" horiz-adv-x="313" 
d="M179 366h34q1 0 11 -0.5t11 -0.5q2 0 14.5 1t15.5 1q22 0 22 -21q0 -4 -0.5 -28.5t-0.5 -29.5q0 -14 -6.5 -18.5t-20.5 -4.5q-5 0 -15.5 0.5t-16.5 0.5h-18h-31.5h-19.5q-4 0 -24 0.5t-24 0.5q-5 0 -33 -1t-34 -1q-21 0 -21 22v46q0 13 3.5 18t15.5 14q7 6 30 29t28 30
t13 21l18 24q39 54 39 106q0 34 -24 34q-13 0 -17.5 -15t-4.5 -26q0 -2 0.5 -11.5t0.5 -11.5q0 -18 -23 -23q-1 0 -11.5 0.5t-12.5 0.5t-14.5 -0.5t-14.5 -0.5q-16 0 -21 12q-2 4 -2 46q0 75 39 108q32 26 91 26q18 0 32 -2q34 -10 53 -23q48 -36 48 -106q0 -68 -25 -110
q-2 -3 -5.5 -9t-4.5 -9t-4 -8.5t-5 -7.5q-2 -5 -14 -21q-20 -27 -51 -52z" />
    <glyph glyph-name="threesuperior" unicode="&#xb3;" horiz-adv-x="313" 
d="M18 630q0 9 6.5 16.5t39.5 36.5q33 31 88 31q50 0 82 -28q14 -13 26 -37t12 -52q0 -46 -28 -77q-9 -9 -9 -13q0 -5 2 -7l4.5 -4.5t8 -7.5t5.5 -5q14 -15 21 -31.5t8 -26.5t1 -29q0 -24 -6.5 -43t-13.5 -28t-21 -24q-17 -19 -35 -28q-34 -16 -79 -16q-55 0 -95 39
q-24 24 -24 41q0 11 10 23q26 34 33.5 41.5t15.5 7.5q10 0 17 -10q24 -30 41 -30q18 0 29.5 12.5t11.5 30.5q0 7 -4 15q-13 19 -38 19q-1 0 -7.5 -0.5t-7.5 -0.5q-17 0 -20 14q-2 10 -2 58q0 16 7 19.5t25 3.5q19 0 27 7q12 10 12 27q0 26 -27 26q-23 0 -37 -20
q-12 -17 -22 -17q-8 0 -14 6q-4 4 -19 24q-4 4 -12 16q-12 16 -12 21z" />
    <glyph glyph-name="acute" unicode="&#xb4;" horiz-adv-x="271" 
d="M105 590h-7q-3 0 -19.5 -0.5t-19.5 -0.5q-20 0 -20 14q0 7 5 15q1 2 10 25t10 26q7 20 13 28t20 8q3 0 9 -0.5t10 -0.5q8 -2 46 -2q7 0 21 0.5t21 0.5q12 0 16.5 -0.5t8 -3.5t3.5 -9q0 -9 -22 -30q-25 -23 -54 -55q-16 -17 -26 -17q-1 0 -12 1t-13 1z" />
    <glyph glyph-name="mu" unicode="&#xb5;" 
d="M184 5v-21q0 -3 1 -19t1 -19q0 -35 -33 -35q-4 0 -26 2q-24 2 -28 2q-3 0 -17 -0.5t-17 -0.5q-10 0 -16 2t-11.5 12.5t-5.5 30.5q0 8 1.5 55.5t1.5 56.5v35q0 9 0.5 27.5t0.5 27.5q0 27 -3 54v29q0 46 2 86t2 59q0 26 -4 70q-1 11 -1 31t1 29.5t9 18t25 8.5
q4 0 28.5 -0.5t29.5 -0.5h50q24 0 24 -34q0 -3 -2 -23.5t-2 -24.5t1.5 -31.5t1.5 -33.5q0 -31 -3 -58q0 -6 -1 -39t-1 -38q0 -3 1 -20t1 -20v-26q0 -29 12.5 -45t22.5 -16t18.5 17t8.5 48q0 2 -0.5 18t-0.5 19q0 6 2 43t2 44q0 5 -1.5 30t-1.5 29t1 25.5t1 25.5
q0 5 -2.5 37.5t-2.5 38.5q0 16 7.5 24.5t15 9.5t20.5 1q8 0 24.5 -1t24.5 -1q4 0 26.5 0.5t26.5 0.5q18 0 22.5 -7.5t4.5 -24.5q0 -4 -2 -29t-2 -30q0 -4 1.5 -30.5t1.5 -31.5q0 -4 -1.5 -32t-1.5 -33q0 -4 1 -32.5t1 -34.5l-2 -44q-1 -16 -1 -42q0 -4 1 -27.5t1 -28.5
q0 -1 -0.5 -7.5t-0.5 -8.5t0.5 -15.5t0.5 -16.5t0.5 -21t0.5 -22q0 -9 -1 -13.5t-8.5 -9t-21.5 -4.5q-2 0 -12.5 1t-12.5 1q-19 0 -42 -4q-9 -3 -20 -3q-10 0 -18 12q-7 11 -9 13t-6 2t-18 -12q-21 -15 -30 -15q-12 0 -20 8l-14 11q-7 0 -7 -9z" />
    <glyph glyph-name="periodcentered" unicode="&#xb7;" horiz-adv-x="208" 
d="M18 295q0 40 4 51t13 16.5t20 5.5h24h73q17 0 25.5 -8t9.5 -14.5t1 -18.5q0 -4 -0.5 -30.5t-0.5 -31.5q0 -2 1 -15t1 -16q0 -20 -8.5 -31t-15.5 -12.5t-16 -1.5h-83q-47 0 -47 36v28q0 3 -0.5 21t-0.5 21z" />
    <glyph glyph-name="cedilla" unicode="&#xb8;" horiz-adv-x="271" 
d="M120 28l56 -1q-13 -36 -13 -42t9 -10q14 -5 20.5 -9t13.5 -15t7 -28q0 -32 -23 -60q-25 -31 -77 -31q-3 0 -21 0.5t-22 0.5q-13 0 -13 12q0 3 2 9q0 1 3 14q1 21 5.5 25t24.5 4q31 0 31 16q0 11 -9 15q-2 1 -8 2t-9 3q-5 5 -5 14q0 1 20 61q3 13 8 20z" />
    <glyph glyph-name="onesuperior" unicode="&#xb9;" horiz-adv-x="313" 
d="M131 518v38l-2 18q-3 0 -24 -23q-14 -16 -21 -16q-6 0 -13 5q-2 2 -13 10.5t-13 9.5q-12 7 -12 17q0 7 3.5 11.5t17.5 17.5q11 10 42 44l9 9t15 14.5t10 9.5q14 16 19.5 19.5t14.5 3.5h11q16 -2 26 -2q11 0 17 1q3 1 10 1q13 0 16 -8t3 -26q0 -7 -1 -44.5t-1 -40.5
t0.5 -21t0.5 -22v-34v-16.5t-0.5 -24t-0.5 -17.5q0 -1 0.5 -11t0.5 -12q0 -3 -0.5 -10.5t-0.5 -11.5q-1 -4 -1 -44q0 -5 1 -34.5t1 -35.5q0 -14 -5.5 -21t-22.5 -7q-3 0 -18.5 1t-18.5 1t-15 -0.5t-15 -0.5q-26 0 -26 26l3 33q2 22 2 33q0 4 -1 26.5t-1 26.5q0 8 0.5 22.5
t0.5 21.5v21q0 3 1 21t1 21z" />
    <glyph glyph-name="ordmasculine" unicode="&#xba;" horiz-adv-x="313" 
d="M28 513v20q0 37 9 80q9 51 39 73q32 26 83 26q69 0 103 -52q23 -34 23 -127q0 -80 -23 -122q-32 -58 -104 -58q-27 0 -47 5.5t-40.5 21t-31.5 49.5t-11 84zM180 518v54q0 6 -1.5 14.5t-7 17.5t-14.5 9q-10 0 -15.5 -7t-8 -24t-3 -31t-0.5 -43q0 -51 24 -51q26 0 26 61z
" />
    <glyph glyph-name="guillemotright" unicode="&#xbb;" horiz-adv-x="292" 
d="M21 232q0 13 2.5 17t10.5 8q22 13 22 17q0 5 -16 13q-14 8 -16.5 13.5t-1.5 25.5q0 3 -0.5 21.5t-0.5 21.5q0 5 0.5 16t0.5 16q0 20 15 20q6 0 20 -10q4 -3 50 -34q17 -11 22 -17.5t6 -20.5q0 -1 -0.5 -33t-0.5 -39q0 -3 0.5 -21t0.5 -22q0 -22 -8 -30q-1 -1 -16.5 -12.5
t-34 -24t-22.5 -16.5q-11 -11 -20 -11t-11 4t-2 22v76zM146 238q0 11 2.5 14.5t11.5 8.5q24 12 24 18q0 4 -18 13q-14 7 -17.5 13t-2.5 25v18v31v19q0 24 16 24q5 0 17 -8q36 -25 61 -40q18 -12 22 -17t5 -18v-74q0 -2 0.5 -17.5t0.5 -18.5q0 -15 -4 -21t-24 -19
q-3 -1 -27.5 -18.5t-33.5 -26.5q-13 -13 -19 -13q-17 0 -14 21v86z" />
    <glyph glyph-name="questiondown" unicode="&#xbf;" horiz-adv-x="333" 
d="M93 646v22q0 26 18 35q9 6 77 4q2 0 17.5 0.5t18.5 0.5q18 0 27.5 -12t9.5 -30q0 -2 -0.5 -16t-0.5 -17t1 -24.5t1 -25.5q0 -31 -10.5 -43t-32.5 -12h-71q-13 0 -20 1t-17 4t-15 12t-5 23q0 5 1 38t1 40zM80 304q36 68 36 157q0 10 8 17t17 7q2 0 6 -0.5t6 -0.5
q14 -2 30 -2q2 0 13 0.5t13 0.5q28 0 28 -36q0 -72 -6.5 -105.5t-29.5 -94.5q-9 -27 -9 -36q0 -19 13 -31t27 -12q6 0 14 3l18 7q2 0 6 -1.5t5 -1.5q13 -7 13 -19v-48q0 -3 1 -23t1 -24t-1 -10.5t-1 -12.5q-1 -21 -10 -28q-8 -6 -43 -11.5t-59 -5.5q-32 0 -52 5
q-35 10 -54 27q-44 41 -44 109q0 66 26 119q5 10 15 27.5t13 23.5z" />
    <glyph glyph-name="Agrave" unicode="&#xc0;" horiz-adv-x="500" 
d="M46 298q2 15 7.5 45t7.5 44q1 9 3 26.5t4 26.5q2 14 8 40t8 36q4 19 9 58.5t9 59.5q12 51 23.5 63t44.5 12q11 0 33 -2q40 -2 60 -2q25 0 75 2q28 0 39 -9t16 -37q12 -49 15 -77q1 -7 6 -46.5t6 -43.5q2 -14 16 -85t16 -80q6 -33 10 -82q4 -42 20 -126q2 -8 5.5 -24.5
t5.5 -24.5q3 -15 3 -30q0 -17 -9 -29.5t-22 -12.5q-5 0 -33.5 1.5t-34.5 1.5q-3 0 -25.5 -1.5t-26.5 -1.5q-33 0 -33 36q0 14 -4 44q-3 33 -15 38q-4 2 -64 2q-28 0 -34 -10q-3 -5 -9 -73q-1 -37 -34 -37q-3 0 -23.5 1.5t-24.5 1.5t-30 -0.5t-31 -0.5q-16 0 -24 2
q-17 5 -17 25q0 3 11.5 69t11.5 69q1 5 3.5 16.5t3.5 18.5q2 7 7.5 48t6.5 48zM219 371q-6 -30 -6 -44q0 -20 7 -28.5t23 -8.5q39 0 39 34q0 39 -6 76q-1 8 -4 24t-4 24q-1 6 -2.5 18.5t-2.5 18.5q-2 19 -12 19q-9 0 -12 -25q-3 -21 -9 -41q-3 -13 -6.5 -37t-4.5 -30z
M193 857q35 0 54 1q18 2 25 2q10 0 16.5 -5.5t9 -11t6.5 -17.5q2 -5 6 -15.5t6 -15.5q1 -2 4.5 -10.5t6.5 -16.5t3 -10q0 -14 -23 -14q-2 0 -19 0.5t-20 0.5q-2 0 -14.5 -1t-15.5 -1q-4 0 -10 2q-7 4 -38 40q-12 11 -35 34q-19 19 -19 26q0 14 26 14q2 0 15 -1t16 -1z" />
    <glyph glyph-name="Aacute" unicode="&#xc1;" horiz-adv-x="500" 
d="M46 298q2 15 7.5 45t7.5 44q1 9 3 26.5t4 26.5q2 14 8 40t8 36q4 19 9 58.5t9 59.5q12 51 23.5 63t44.5 12q11 0 33 -2q40 -2 60 -2q25 0 75 2q28 0 39 -9t16 -37q12 -49 15 -77q1 -7 6 -46.5t6 -43.5q2 -14 16 -85t16 -80q6 -33 10 -82q4 -42 20 -126q2 -8 5.5 -24.5
t5.5 -24.5q3 -15 3 -30q0 -17 -9 -29.5t-22 -12.5q-5 0 -33.5 1.5t-34.5 1.5q-3 0 -25.5 -1.5t-26.5 -1.5q-33 0 -33 36q0 14 -4 44q-3 33 -15 38q-4 2 -64 2q-28 0 -34 -10q-3 -5 -9 -73q-1 -37 -34 -37q-3 0 -23.5 1.5t-24.5 1.5t-30 -0.5t-31 -0.5q-16 0 -24 2
q-17 5 -17 25q0 3 11.5 69t11.5 69q1 5 3.5 16.5t3.5 18.5q2 7 7.5 48t6.5 48zM219 371q-6 -30 -6 -44q0 -20 7 -28.5t23 -8.5q39 0 39 34q0 39 -6 76q-1 8 -4 24t-4 24q-1 6 -2.5 18.5t-2.5 18.5q-2 19 -12 19q-9 0 -12 -25q-3 -21 -9 -41q-3 -13 -6.5 -37t-4.5 -30z
M170 758q0 3 5 15q13 27 19 49q8 23 14.5 30.5t20.5 7.5q7 0 19 -2q15 -1 50 -1h22q12 2 17 2q26 0 26 -14q0 -8 -21 -29q-38 -36 -55 -55q-15 -18 -26 -18q-1 0 -12 1t-13 1q-3 0 -22.5 -0.5t-23.5 -0.5q-20 0 -20 14z" />
    <glyph glyph-name="Acircumflex" unicode="&#xc2;" horiz-adv-x="500" 
d="M46 298q2 15 7.5 45t7.5 44q1 9 3 26.5t4 26.5q2 14 8 40t8 36q4 19 9 58.5t9 59.5q12 51 23.5 63t44.5 12q11 0 33 -2q40 -2 60 -2q25 0 75 2q28 0 39 -9t16 -37q12 -49 15 -77q1 -7 6 -46.5t6 -43.5q2 -14 16 -85t16 -80q6 -33 10 -82q4 -42 20 -126q2 -8 5.5 -24.5
t5.5 -24.5q3 -15 3 -30q0 -17 -9 -29.5t-22 -12.5q-5 0 -33.5 1.5t-34.5 1.5q-3 0 -25.5 -1.5t-26.5 -1.5q-33 0 -33 36q0 14 -4 44q-3 33 -15 38q-4 2 -64 2q-28 0 -34 -10q-3 -5 -9 -73q-1 -37 -34 -37q-3 0 -23.5 1.5t-24.5 1.5t-30 -0.5t-31 -0.5q-16 0 -24 2
q-17 5 -17 25q0 3 11.5 69t11.5 69q1 5 3.5 16.5t3.5 18.5q2 7 7.5 48t6.5 48zM219 371q-6 -30 -6 -44q0 -20 7 -28.5t23 -8.5q39 0 39 34q0 39 -6 76q-1 8 -4 24t-4 24q-1 6 -2.5 18.5t-2.5 18.5q-2 19 -12 19q-9 0 -12 -25q-3 -21 -9 -41q-3 -13 -6.5 -37t-4.5 -30z
M239 859q4 0 27 1t27 1q21 0 30 -6.5t31 -36.5q20 -26 32 -37q18 -17 18 -24q0 -12 -12 -12q-4 0 -29 1t-29 1q-2 0 -14 -0.5t-14 -0.5q-15 0 -24 8q-2 2 -9 11t-14 16.5t-11 7.5q-3 0 -16 -17q-12 -16 -17.5 -20t-17.5 -4q-3 0 -15.5 0.5t-14.5 0.5q-3 0 -17 -0.5t-17 -0.5
l-22 -1q-15 0 -15 12q0 6 8 14q2 2 5 4.5t4 3.5q10 10 14 16q2 3 16 18.5t16 18.5q11 15 19.5 20.5t24.5 5.5q2 0 17.5 -0.5t18.5 -0.5z" />
    <glyph glyph-name="Atilde" unicode="&#xc3;" horiz-adv-x="500" 
d="M46 298q2 15 7.5 45t7.5 44q1 9 3 26.5t4 26.5q2 14 8 40t8 36q4 19 9 58.5t9 59.5q12 51 23.5 63t44.5 12q11 0 33 -2q40 -2 60 -2q25 0 75 2q28 0 39 -9t16 -37q12 -49 15 -77q1 -7 6 -46.5t6 -43.5q2 -14 16 -85t16 -80q6 -33 10 -82q4 -42 20 -126q2 -8 5.5 -24.5
t5.5 -24.5q3 -15 3 -30q0 -17 -9 -29.5t-22 -12.5q-5 0 -33.5 1.5t-34.5 1.5q-3 0 -25.5 -1.5t-26.5 -1.5q-33 0 -33 36q0 14 -4 44q-3 33 -15 38q-4 2 -64 2q-28 0 -34 -10q-3 -5 -9 -73q-1 -37 -34 -37q-3 0 -23.5 1.5t-24.5 1.5t-30 -0.5t-31 -0.5q-16 0 -24 2
q-17 5 -17 25q0 3 11.5 69t11.5 69q1 5 3.5 16.5t3.5 18.5q2 7 7.5 48t6.5 48zM219 371q-6 -30 -6 -44q0 -20 7 -28.5t23 -8.5q39 0 39 34q0 39 -6 76q-1 8 -4 24t-4 24q-1 6 -2.5 18.5t-2.5 18.5q-2 19 -12 19q-9 0 -12 -25q-3 -21 -9 -41q-3 -13 -6.5 -37t-4.5 -30z
M402 831v-22q0 -74 -59 -74q-24 0 -70 14q-32 9 -54 17q-6 3 -11 3q-10 0 -10 -11q0 -8 -4.5 -13.5t-11.5 -5.5q-2 0 -5 0.5t-4 0.5q-6 1 -26 1q-1 0 -11.5 -0.5t-12.5 -0.5q-9 0 -14 7.5t-5 15.5q0 32 3 53q8 42 61 42q38 0 113 -25q12 -4 17 -4q6 0 9 3q1 2 1 6t1 6
q5 9 15 9q7 0 10 -1q7 -1 21 -1q2 0 14.5 0.5t15.5 0.5q17 0 17 -21z" />
    <glyph glyph-name="Adieresis" unicode="&#xc4;" horiz-adv-x="500" 
d="M46 298q2 15 7.5 45t7.5 44q1 9 3 26.5t4 26.5q2 14 8 40t8 36q4 19 9 58.5t9 59.5q12 51 23.5 63t44.5 12q11 0 33 -2q40 -2 60 -2q25 0 75 2q28 0 39 -9t16 -37q12 -49 15 -77q1 -7 6 -46.5t6 -43.5q2 -14 16 -85t16 -80q6 -33 10 -82q4 -42 20 -126q2 -8 5.5 -24.5
t5.5 -24.5q3 -15 3 -30q0 -17 -9 -29.5t-22 -12.5q-5 0 -33.5 1.5t-34.5 1.5q-3 0 -25.5 -1.5t-26.5 -1.5q-33 0 -33 36q0 14 -4 44q-3 33 -15 38q-4 2 -64 2q-28 0 -34 -10q-3 -5 -9 -73q-1 -37 -34 -37q-3 0 -23.5 1.5t-24.5 1.5t-30 -0.5t-31 -0.5q-16 0 -24 2
q-17 5 -17 25q0 3 11.5 69t11.5 69q1 5 3.5 16.5t3.5 18.5q2 7 7.5 48t6.5 48zM219 371q-6 -30 -6 -44q0 -20 7 -28.5t23 -8.5q39 0 39 34q0 39 -6 76q-1 8 -4 24t-4 24q-1 6 -2.5 18.5t-2.5 18.5q-2 19 -12 19q-9 0 -12 -25q-3 -21 -9 -41q-3 -13 -6.5 -37t-4.5 -30z
M89 829q0 24 30 24q4 0 27.5 -1.5t28.5 -1.5q3 0 22.5 0.5t23.5 0.5q29 0 29 -18q0 -3 -0.5 -15t-0.5 -14v-29q0 -25 -35 -25q-5 0 -38.5 1t-39.5 1q-2 0 -12 -0.5t-11 -0.5q-24 0 -24 22q0 1 0.5 4t0.5 5q1 5 1 19q0 2 -1 13.5t-1 14.5zM276 831q0 9 4 13.5t9.5 4
t10.5 -0.5h15q3 0 25.5 -0.5t26.5 -0.5q3 0 23 1t24 1q25 0 25 -17v-5q-2 -8 -2 -24q0 -3 0.5 -15t0.5 -15q0 -25 -32 -25q-4 0 -26.5 1.5t-27.5 1.5q-2 0 -19.5 -0.5t-20.5 -0.5q-20 0 -27 2.5t-9 14.5v8t0.5 12.5t0.5 8.5q0 2 -0.5 17t-0.5 18z" />
    <glyph glyph-name="Aring" unicode="&#xc5;" horiz-adv-x="500" 
d="M46 298q2 15 7.5 45t7.5 44q1 9 3 26.5t4 26.5q2 14 8 40t8 36q4 19 9 58.5t9 59.5q12 51 23.5 63t44.5 12q11 0 33 -2q40 -2 60 -2q25 0 75 2q28 0 39 -9t16 -37q12 -49 15 -77q1 -7 6 -46.5t6 -43.5q2 -14 16 -85t16 -80q6 -33 10 -82q4 -42 20 -126q2 -8 5.5 -24.5
t5.5 -24.5q3 -15 3 -30q0 -17 -9 -29.5t-22 -12.5q-5 0 -33.5 1.5t-34.5 1.5q-3 0 -25.5 -1.5t-26.5 -1.5q-33 0 -33 36q0 14 -4 44q-3 33 -15 38q-4 2 -64 2q-28 0 -34 -10q-3 -5 -9 -73q-1 -37 -34 -37q-3 0 -23.5 1.5t-24.5 1.5t-30 -0.5t-31 -0.5q-16 0 -24 2
q-17 5 -17 25q0 3 11.5 69t11.5 69q1 5 3.5 16.5t3.5 18.5q2 7 7.5 48t6.5 48zM219 371q-6 -30 -6 -44q0 -20 7 -28.5t23 -8.5q39 0 39 34q0 39 -6 76q-1 8 -4 24t-4 24q-1 6 -2.5 18.5t-2.5 18.5q-2 19 -12 19q-9 0 -12 -25q-3 -21 -9 -41q-3 -13 -6.5 -37t-4.5 -30z
M150 839q0 9 4.5 22.5t14.5 30t31.5 27.5t50.5 11q56 0 82 -29q21 -22 21 -64q0 -50 -37 -74l-4 -2q-4 -2 -11 -5t-15 -6t-18.5 -5t-19.5 -2q-61 0 -86 44q-13 25 -13 52zM253 870q-15 0 -24.5 -10t-9.5 -24q0 -15 10 -22.5t23 -7.5q4 0 9.5 1t14 9t8.5 23q0 11 -4 18
q-7 13 -27 13z" />
    <glyph glyph-name="AE" unicode="&#xc6;" horiz-adv-x="708" 
d="M623 167l19 2q43 0 43 -39q0 -2 -0.5 -16t-0.5 -17t0.5 -25.5t0.5 -27.5q0 -35 -23 -39q-6 -1 -26 -2t-23 -1q-7 0 -52 0.5t-54 0.5q-15 0 -45 -0.5t-45 -0.5q-3 0 -24.5 -1t-25.5 -1q-16 0 -25 7t-10.5 14t-2.5 20q0 13 -5 28q-8 34 -12 41t-19 7q-5 0 -15 -0.5
t-15 -0.5q-3 0 -16.5 1t-16.5 1q-11 0 -16.5 -9t-13.5 -33q-1 -2 -5 -18t-8 -30l-4 -14q-7 -13 -25 -13q-3 0 -22 1t-23 1q-1 0 -40.5 -1t-47.5 -1q-20 0 -20 17q0 1 4 20.5t5 20.5q2 13 9 38.5t10 38.5q2 11 5 33t5 33q5 28 7 38q14 74 23 115q9 44 14 84q1 7 3 20.5
t3 20.5q19 87 20 98q1 7 2.5 21t2.5 21q4 31 12 51t18.5 27.5t17.5 9.5t18 2q5 0 33 -2t33 -2t33.5 0.5t33.5 0.5q7 0 52 -2t54 -2q5 0 35 1t36 1q12 0 36.5 -0.5t36.5 -0.5q28 0 50 2q8 1 14 1.5t8 1t4 0.5q28 0 28 -36q0 -3 -1 -23t-1 -24q0 -2 0.5 -16t0.5 -17
q0 -34 -23 -42q-5 -2 -27 -2q-1 0 -31 -3h-37q-3 0 -20.5 -0.5t-21.5 -0.5q-2 0 -13.5 0.5t-14.5 0.5q-26 0 -37.5 -11t-11.5 -22q0 -4 2 -14q5 -27 10 -34q14 -18 47 -18q4 0 30 1.5t31 1.5q3 0 19 -1t19 -1t20 1t21 1q14 0 21.5 -8.5t8.5 -16.5t2 -23q1 -28 1 -77
q0 -38 -36 -38q-3 0 -11 0.5t-11 0.5q-17 1 -49 1q-51 0 -61 -7q-15 -9 -15 -31q0 -14 6 -46q7 -29 28 -35q5 -2 38.5 -2.5t35.5 -0.5q4 0 11 -0.5t10 -0.5q8 0 12 1zM297 321q0 20 -3 29q-6 64 -13 97q-4 22 -5 33q-5 20 -9 20q-5 0 -9 -9q-1 -2 -2 -9t-2.5 -15t-1.5 -9
q-20 -96 -20 -130q0 -39 35 -39q15 0 22.5 10t7.5 22z" />
    <glyph glyph-name="Ccedilla" unicode="&#xc7;" horiz-adv-x="375" 
d="M360 675v-16q-2 -16 -2 -46q0 -5 0.5 -32.5t0.5 -32.5q0 -39 -33 -39q-2 0 -16 2.5t-16 2.5q-7 0 -27 -8t-25 -12q-44 -31 -44 -156q0 -44 12 -76q12 -34 34 -50q2 -2 11 -7.5t24 -12.5t26 -7q2 0 14 1.5t15 1.5q25 0 25 -34q0 -3 -1.5 -24t-1.5 -25q0 -25 2 -51
q0 -3 0.5 -9.5t0.5 -9.5q0 -42 -45 -42q-4 0 -29 1t-30 1q-9 0 -9 -8t2 -10.5t10 -4.5q6 -2 9 -4q29 -16 29 -47q0 -26 -21 -57q-25 -35 -73 -35q-42 0 -52 2q-11 0 -11 11q0 1 3 10q2 10 2 14q2 27 14 29h16q31 0 31 16q0 9 -7 14q-2 2 -8 3.5t-8 2.5q-8 3 -8 13q0 6 10 33
t10 29t-10 4q-48 13 -90 66q-11 11 -23 27t-28 53t-21 62q-4 18 -7.5 70t-3.5 67q0 84 19 164q15 59 49 99q16 19 56 46q26 20 41 27q44 23 114 23q27 0 39.5 -1.5t21.5 -10.5t9 -27z" />
    <glyph glyph-name="Egrave" unicode="&#xc8;" horiz-adv-x="437" 
d="M322 707h21q3 0 16 0.5t16 0.5q14 0 22 -8.5t8 -22.5q0 -4 -1.5 -27t-1.5 -28q0 -2 0.5 -16.5t0.5 -17.5q0 -37 -36 -40h-17q-2 0 -15 -1t-16 -1t-20.5 1.5t-21.5 1.5q-44 0 -55 -17q-4 -6 -4 -37q0 -49 35 -49q2 0 14.5 1t15.5 1t20 -1t21 -1q2 0 15.5 0.5t16.5 0.5
q22 0 30.5 -9t8.5 -31q0 -3 -1 -20.5t-1 -21.5q0 -3 1 -20.5t1 -21.5q0 -12 -3 -18q-10 -23 -40 -23q-5 0 -40 2t-41 2q-36 0 -47 -19q-5 -9 -5 -52q0 -13 1 -19.5t6.5 -14.5t17.5 -11q11 -3 40 -3q5 -1 15 -2.5t14 -1.5q7 -1 21 -1q16 0 23 1q14 2 20 2q13 0 25 -8.5
t12 -27.5q0 -12 -1 -18q-1 -11 -1 -29q0 -3 0.5 -21t0.5 -22q0 -22 -11.5 -31t-24.5 -9q-3 0 -18 1t-17 1t-16.5 -0.5t-17.5 -0.5q-10 0 -31 1t-32 1q-2 0 -17.5 -0.5t-18.5 -0.5t-17 0.5t-17 0.5q-5 0 -31 -0.5t-31 -0.5q-3 0 -19 -0.5t-19 -0.5q-18 0 -29.5 11.5
t-11.5 27.5q0 2 0.5 6t0.5 6q2 21 2 63q0 5 -0.5 31.5t-0.5 30.5t1.5 24t1.5 23t-0.5 23t-0.5 23q0 6 0.5 42.5t0.5 43.5q0 6 -1 47t-1 49q0 17 1 53t1 53q0 5 -0.5 37.5t-0.5 38.5q0 23 1 33.5t5.5 22.5t15 16.5t29.5 4.5q1 0 12 -0.5t18 -0.5q24 -2 29 -2h52q6 0 41.5 -1
t42.5 -1q2 0 18.5 1t19.5 1zM162 857q35 0 54 1q18 2 25 2q10 0 16.5 -5.5t9 -11t6.5 -17.5q2 -5 6 -15.5t6 -15.5q1 -2 4.5 -10.5t6.5 -16.5t3 -10q0 -14 -23 -14q-2 0 -19 0.5t-20 0.5q-2 0 -14.5 -1t-15.5 -1q-4 0 -10 2q-7 4 -38 40q-12 11 -35 34q-19 19 -19 26
q0 14 26 14q2 0 15 -1t16 -1z" />
    <glyph glyph-name="Eacute" unicode="&#xc9;" horiz-adv-x="437" 
d="M322 707h21q3 0 16 0.5t16 0.5q14 0 22 -8.5t8 -22.5q0 -4 -1.5 -27t-1.5 -28q0 -2 0.5 -16.5t0.5 -17.5q0 -37 -36 -40h-17q-2 0 -15 -1t-16 -1t-20.5 1.5t-21.5 1.5q-44 0 -55 -17q-4 -6 -4 -37q0 -49 35 -49q2 0 14.5 1t15.5 1t20 -1t21 -1q2 0 15.5 0.5t16.5 0.5
q22 0 30.5 -9t8.5 -31q0 -3 -1 -20.5t-1 -21.5q0 -3 1 -20.5t1 -21.5q0 -12 -3 -18q-10 -23 -40 -23q-5 0 -40 2t-41 2q-36 0 -47 -19q-5 -9 -5 -52q0 -13 1 -19.5t6.5 -14.5t17.5 -11q11 -3 40 -3q5 -1 15 -2.5t14 -1.5q7 -1 21 -1q16 0 23 1q14 2 20 2q13 0 25 -8.5
t12 -27.5q0 -12 -1 -18q-1 -11 -1 -29q0 -3 0.5 -21t0.5 -22q0 -22 -11.5 -31t-24.5 -9q-3 0 -18 1t-17 1t-16.5 -0.5t-17.5 -0.5q-10 0 -31 1t-32 1q-2 0 -17.5 -0.5t-18.5 -0.5t-17 0.5t-17 0.5q-5 0 -31 -0.5t-31 -0.5q-3 0 -19 -0.5t-19 -0.5q-18 0 -29.5 11.5
t-11.5 27.5q0 2 0.5 6t0.5 6q2 21 2 63q0 5 -0.5 31.5t-0.5 30.5t1.5 24t1.5 23t-0.5 23t-0.5 23q0 6 0.5 42.5t0.5 43.5q0 6 -1 47t-1 49q0 17 1 53t1 53q0 5 -0.5 37.5t-0.5 38.5q0 23 1 33.5t5.5 22.5t15 16.5t29.5 4.5q1 0 12 -0.5t18 -0.5q24 -2 29 -2h52q6 0 41.5 -1
t42.5 -1q2 0 18.5 1t19.5 1zM139 758q0 3 5 15q14 27 19 49q8 23 14.5 30.5t20.5 7.5q7 0 19 -2q15 -1 50 -1h22q12 2 17 2q26 0 26 -14q0 -8 -21 -29q-38 -36 -55 -55q-15 -18 -26 -18q-1 0 -12 1t-13 1q-3 0 -22.5 -0.5t-23.5 -0.5q-20 0 -20 14z" />
    <glyph glyph-name="Ecircumflex" unicode="&#xca;" horiz-adv-x="437" 
d="M322 707h21q3 0 16 0.5t16 0.5q14 0 22 -8.5t8 -22.5q0 -4 -1.5 -27t-1.5 -28q0 -2 0.5 -16.5t0.5 -17.5q0 -37 -36 -40h-17q-2 0 -15 -1t-16 -1t-20.5 1.5t-21.5 1.5q-44 0 -55 -17q-4 -6 -4 -37q0 -49 35 -49q2 0 14.5 1t15.5 1t20 -1t21 -1q2 0 15.5 0.5t16.5 0.5
q22 0 30.5 -9t8.5 -31q0 -3 -1 -20.5t-1 -21.5q0 -3 1 -20.5t1 -21.5q0 -12 -3 -18q-10 -23 -40 -23q-5 0 -40 2t-41 2q-36 0 -47 -19q-5 -9 -5 -52q0 -13 1 -19.5t6.5 -14.5t17.5 -11q11 -3 40 -3q5 -1 15 -2.5t14 -1.5q7 -1 21 -1q16 0 23 1q14 2 20 2q13 0 25 -8.5
t12 -27.5q0 -12 -1 -18q-1 -11 -1 -29q0 -3 0.5 -21t0.5 -22q0 -22 -11.5 -31t-24.5 -9q-3 0 -18 1t-17 1t-16.5 -0.5t-17.5 -0.5q-10 0 -31 1t-32 1q-2 0 -17.5 -0.5t-18.5 -0.5t-17 0.5t-17 0.5q-5 0 -31 -0.5t-31 -0.5q-3 0 -19 -0.5t-19 -0.5q-18 0 -29.5 11.5
t-11.5 27.5q0 2 0.5 6t0.5 6q2 21 2 63q0 5 -0.5 31.5t-0.5 30.5t1.5 24t1.5 23t-0.5 23t-0.5 23q0 6 0.5 42.5t0.5 43.5q0 6 -1 47t-1 49q0 17 1 53t1 53q0 5 -0.5 37.5t-0.5 38.5q0 23 1 33.5t5.5 22.5t15 16.5t29.5 4.5q1 0 12 -0.5t18 -0.5q24 -2 29 -2h52q6 0 41.5 -1
t42.5 -1q2 0 18.5 1t19.5 1zM208 859q4 0 27 1t27 1q21 0 30 -6.5t31 -36.5q20 -26 32 -37q18 -17 18 -24q0 -12 -12 -12q-5 0 -29 1t-29 1q-2 0 -14 -0.5t-14 -0.5q-15 0 -24 8q-2 2 -9 11t-14 16.5t-11 7.5q-3 0 -16 -17q-12 -16 -17.5 -20t-17.5 -4q-3 0 -15.5 0.5
t-14.5 0.5t-17 -0.5t-17 -0.5l-22 -1q-15 0 -15 12q0 6 8 14q1 2 4 4.5t5 3.5q10 10 14 16q2 3 16 18.5t16 18.5q11 15 19.5 20.5t24.5 5.5q2 0 17.5 -0.5t18.5 -0.5z" />
    <glyph glyph-name="Edieresis" unicode="&#xcb;" horiz-adv-x="437" 
d="M322 707h21q3 0 16 0.5t16 0.5q14 0 22 -8.5t8 -22.5q0 -4 -1.5 -27t-1.5 -28q0 -2 0.5 -16.5t0.5 -17.5q0 -37 -36 -40h-17q-2 0 -15 -1t-16 -1t-20.5 1.5t-21.5 1.5q-44 0 -55 -17q-4 -6 -4 -37q0 -49 35 -49q2 0 14.5 1t15.5 1t20 -1t21 -1q2 0 15.5 0.5t16.5 0.5
q22 0 30.5 -9t8.5 -31q0 -3 -1 -20.5t-1 -21.5q0 -3 1 -20.5t1 -21.5q0 -12 -3 -18q-10 -23 -40 -23q-5 0 -40 2t-41 2q-36 0 -47 -19q-5 -9 -5 -52q0 -13 1 -19.5t6.5 -14.5t17.5 -11q11 -3 40 -3q5 -1 15 -2.5t14 -1.5q7 -1 21 -1q16 0 23 1q14 2 20 2q13 0 25 -8.5
t12 -27.5q0 -12 -1 -18q-1 -11 -1 -29q0 -3 0.5 -21t0.5 -22q0 -22 -11.5 -31t-24.5 -9q-3 0 -18 1t-17 1t-16.5 -0.5t-17.5 -0.5q-10 0 -31 1t-32 1q-2 0 -17.5 -0.5t-18.5 -0.5t-17 0.5t-17 0.5q-5 0 -31 -0.5t-31 -0.5q-3 0 -19 -0.5t-19 -0.5q-18 0 -29.5 11.5
t-11.5 27.5q0 2 0.5 6t0.5 6q2 21 2 63q0 5 -0.5 31.5t-0.5 30.5t1.5 24t1.5 23t-0.5 23t-0.5 23q0 6 0.5 42.5t0.5 43.5q0 6 -1 47t-1 49q0 17 1 53t1 53q0 5 -0.5 37.5t-0.5 38.5q0 23 1 33.5t5.5 22.5t15 16.5t29.5 4.5q1 0 12 -0.5t18 -0.5q24 -2 29 -2h52q6 0 41.5 -1
t42.5 -1q2 0 18.5 1t19.5 1zM42 833q0 24 30 24q4 0 27.5 -1.5t28.5 -1.5q3 0 22.5 0.5t23.5 0.5q29 0 29 -18q0 -3 -0.5 -15t-0.5 -14v-29q0 -25 -35 -25q-5 0 -38.5 1t-39.5 1q-2 0 -12 -0.5t-11 -0.5q-24 0 -24 22q0 1 0.5 4t0.5 5q1 5 1 19q0 2 -1 13.5t-1 14.5z
M229 835q0 9 4 13.5t9.5 4t10.5 -0.5h15q3 0 25.5 -0.5t26.5 -0.5t24 1t23 1q25 0 25 -17v-5q-2 -8 -2 -24q0 -3 0.5 -15t0.5 -15q0 -25 -32 -25q-4 0 -26.5 1.5t-27.5 1.5q-2 0 -19.5 -0.5t-20.5 -0.5q-20 0 -27 2.5t-9 14.5v8t0.5 12.5t0.5 8.5q0 2 -0.5 17t-0.5 18z" />
    <glyph glyph-name="Igrave" unicode="&#xcc;" horiz-adv-x="250" 
d="M216 342v-49q0 -7 2 -51.5t2 -53.5q0 -5 -1.5 -37.5t-1.5 -38.5t2 -41.5t2 -42.5q0 -26 -31 -26q-3 0 -20.5 1t-21.5 1q-5 0 -34 -1.5t-34 -1.5h-6q-32 0 -37 22q-1 4 -1 65q0 4 1.5 31t1.5 32v73q0 7 -1.5 51t-1.5 52v125q0 7 1.5 52.5t1.5 54.5v68q0 3 -1.5 24t-1.5 24
q0 19 16 29q6 3 30 3q4 0 30.5 -0.5t31.5 -0.5q24 0 36 1q1 0 8 0.5t9 0.5q24 0 24 -37q0 -4 -1.5 -27t-1.5 -28q-1 -24 -1 -138q0 -5 0.5 -37t0.5 -38q0 -4 -1 -30t-1 -31zM68 857q35 0 54 1q18 2 25 2q10 0 16.5 -5.5t9 -11t6.5 -17.5q2 -5 6 -15.5t6 -15.5
q1 -2 4.5 -10.5t6.5 -16.5t3 -10q0 -14 -23 -14q-2 0 -19 0.5t-20 0.5q-2 0 -14.5 -1t-15.5 -1q-4 0 -10 2q-7 4 -38 40q-12 11 -35 34q-19 19 -19 26q0 14 26 14q2 0 15 -1t16 -1z" />
    <glyph glyph-name="Iacute" unicode="&#xcd;" horiz-adv-x="250" 
d="M216 342v-49q0 -7 2 -51.5t2 -53.5q0 -5 -1.5 -37.5t-1.5 -38.5t2 -41.5t2 -42.5q0 -26 -31 -26q-3 0 -20.5 1t-21.5 1q-5 0 -34 -1.5t-34 -1.5h-6q-32 0 -37 22q-1 4 -1 65q0 4 1.5 31t1.5 32v73q0 7 -1.5 51t-1.5 52v125q0 7 1.5 52.5t1.5 54.5v68q0 3 -1.5 24t-1.5 24
q0 19 16 29q6 3 30 3q4 0 30.5 -0.5t31.5 -0.5q24 0 36 1q1 0 8 0.5t9 0.5q24 0 24 -37q0 -4 -1.5 -27t-1.5 -28q-1 -24 -1 -138q0 -5 0.5 -37t0.5 -38q0 -4 -1 -30t-1 -31zM45 758q0 3 5 15q14 27 19 49q8 23 14.5 30.5t20.5 7.5q7 0 19 -2q15 -1 50 -1h22q12 2 17 2
q26 0 26 -14q0 -8 -21 -29q-38 -36 -55 -55q-15 -18 -26 -18q-1 0 -12 1t-13 1q-3 0 -22.5 -0.5t-23.5 -0.5q-20 0 -20 14z" />
    <glyph glyph-name="Icircumflex" unicode="&#xce;" horiz-adv-x="250" 
d="M216 342v-49q0 -7 2 -51.5t2 -53.5q0 -5 -1.5 -37.5t-1.5 -38.5t2 -41.5t2 -42.5q0 -26 -31 -26q-3 0 -20.5 1t-21.5 1q-5 0 -34 -1.5t-34 -1.5h-6q-32 0 -37 22q-1 4 -1 65q0 4 1.5 31t1.5 32v73q0 7 -1.5 51t-1.5 52v125q0 7 1.5 52.5t1.5 54.5v68q0 3 -1.5 24t-1.5 24
q0 19 16 29q6 3 30 3q4 0 30.5 -0.5t31.5 -0.5q24 0 36 1q1 0 8 0.5t9 0.5q24 0 24 -37q0 -4 -1.5 -27t-1.5 -28q-1 -24 -1 -138q0 -5 0.5 -37t0.5 -38q0 -4 -1 -30t-1 -31zM114 859q4 0 27 1t27 1q21 0 30 -6.5t31 -36.5q20 -26 32 -37q18 -17 18 -24q0 -12 -12 -12
q-5 0 -29 1t-29 1q-2 0 -14 -0.5t-14 -0.5q-15 0 -24 8q-2 2 -9 11t-14 16.5t-11 7.5q-3 0 -16 -17q-12 -16 -17.5 -20t-17.5 -4q-3 0 -15.5 0.5t-14.5 0.5t-17 -0.5t-17 -0.5l-22 -1q-15 0 -15 12q0 6 8 14q1 2 4 4.5t5 3.5q10 10 14 16q2 3 16 18.5t16 18.5
q11 15 19.5 20.5t24.5 5.5q2 0 17.5 -0.5t18.5 -0.5z" />
    <glyph glyph-name="Idieresis" unicode="&#xcf;" horiz-adv-x="250" 
d="M216 342v-49q0 -7 2 -51.5t2 -53.5q0 -5 -1.5 -37.5t-1.5 -38.5t2 -41.5t2 -42.5q0 -26 -31 -26q-3 0 -20.5 1t-21.5 1q-5 0 -34 -1.5t-34 -1.5h-6q-32 0 -37 22q-1 4 -1 65q0 4 1.5 31t1.5 32v73q0 7 -1.5 51t-1.5 52v125q0 7 1.5 52.5t1.5 54.5v68q0 3 -1.5 24t-1.5 24
q0 19 16 29q6 3 30 3q4 0 30.5 -0.5t31.5 -0.5q24 0 36 1q1 0 8 0.5t9 0.5q24 0 24 -37q0 -4 -1.5 -27t-1.5 -28q-1 -24 -1 -138q0 -5 0.5 -37t0.5 -38q0 -4 -1 -30t-1 -31zM-52 833q0 24 30 24q4 0 27.5 -1.5t28.5 -1.5q3 0 22.5 0.5t23.5 0.5q29 0 29 -18q0 -3 -0.5 -15
t-0.5 -14v-29q0 -25 -35 -25q-5 0 -38.5 1t-39.5 1q-2 0 -12 -0.5t-11 -0.5q-24 0 -24 22q0 1 0.5 4t0.5 5q1 5 1 19q0 2 -1 13.5t-1 14.5zM135 835q0 9 4 13.5t9.5 4t10.5 -0.5h15q3 0 25.5 -0.5t26.5 -0.5t24 1t23 1q25 0 25 -17v-5q-2 -8 -2 -24q0 -3 0.5 -15t0.5 -15
q0 -25 -32 -25q-4 0 -26.5 1.5t-27.5 1.5q-2 0 -19.5 -0.5t-20.5 -0.5q-20 0 -27 2.5t-9 14.5v8t0.5 12.5t0.5 8.5q0 2 -0.5 17t-0.5 18z" />
    <glyph glyph-name="Eth" unicode="&#xd0;" horiz-adv-x="521" 
d="M37 644q0 40 12.5 51t39.5 11q5 0 32.5 -1t33.5 -1t43 1t44 1q38 0 64 -5q47 -9 80 -33q9 -7 56 -60q22 -24 33 -58q10 -28 19.5 -95t9.5 -119q0 -51 -10 -97q-19 -83 -71 -153q-32 -44 -71 -65t-117 -21q-4 0 -32 1.5t-33 1.5q-10 0 -30 -1.5t-30 -1.5h-26
q-25 0 -38 9.5t-13 36.5q0 7 2.5 50t2.5 51q0 13 -1 45t-1 45q0 4 -0.5 26.5t-0.5 27.5q0 1 0.5 6.5t0.5 6.5q0 12 -7 12q-1 0 -4 -0.5t-4 -0.5q-12 0 -12 14q0 4 -0.5 26.5t-0.5 26.5q0 22 11 22q1 0 4 -1t5 -1q9 0 9 8q0 5 -1 8v14q0 2 -0.5 11t-0.5 11q0 42 2 68
q0 9 1 28.5t1 29.5q0 4 -1 31.5t-1 32.5zM265 314h-38q-8 0 -11.5 -2.5t-3.5 -14.5q0 -2 0.5 -6.5t0.5 -7.5q1 -6 1 -19q0 -4 -0.5 -26t-0.5 -26q0 -31 11 -42q10 -10 24 -10q30 0 43 36q3 8 14 76q8 48 8 72q0 64 -9 115q-16 75 -58 75q-34 0 -34 -47q0 -3 1 -22t1 -23
q1 -37 3 -39q4 -3 21 -3q2 0 14 1t14 1q20 0 20 -16v-29q0 -1 0.5 -12t0.5 -13q0 -18 -22 -18z" />
    <glyph glyph-name="Ntilde" unicode="&#xd1;" horiz-adv-x="542" 
d="M38 172v31q0 4 -0.5 26.5t-0.5 26.5q0 28 2 74q2 28 2 42q0 1 -1 18.5t-1 20.5q-1 18 -1 63q0 40 1 60q1 21 1 45q0 7 -1.5 49.5t-1.5 50.5q0 10 6.5 19t21.5 9q3 0 10 -1t10 -1q4 -1 39 -1q5 0 30.5 1.5t27.5 1.5q18 0 25 -14q18 -27 34 -73q1 -2 2.5 -6.5t2.5 -6.5
q0 -6 19 -44q8 -14 11 -21q2 -5 5.5 -14.5t5.5 -14.5l9 -18q4 -9 9 -24l10.5 -31.5t7.5 -21.5q4 -15 9 -15t5 39q0 4 -0.5 11t-0.5 10q-2 12 -2 18q0 3 1 21t1 22q0 8 -2.5 57.5t-2.5 59.5q0 38 4 46q10 20 37 20q2 0 8 -0.5t9 -0.5q9 -1 59 -1q2 0 16 0.5t16 0.5
q10 0 13 -2q14 -7 14 -25q0 -2 -0.5 -6t-0.5 -7q-4 -20 -4 -71q0 -8 1.5 -57.5t1.5 -59.5q0 -21 -2 -87q0 -7 -0.5 -22t-0.5 -23t2 -59.5t2 -61.5q0 -8 -2.5 -57t-2.5 -58q0 -17 2 -51q0 -3 1.5 -16t1.5 -16q0 -14 -13 -21q-5 -3 -24 -3q-4 0 -25 1t-25 1q-5 0 -34.5 -1
t-34.5 -1q-18 0 -28 33q-2 6 -14 36q-19 38 -23 48q-4 11 -10 31q-9 24 -18 43q-13 26 -15 31q-3 6 -5.5 13t-5 15.5t-4.5 13.5q-16 47 -20 47t-4 -9l3 -27q5 -35 5 -77q0 -15 -1.5 -44t-1.5 -43q0 -6 2.5 -42t2.5 -43q0 -28 -30 -28q-5 0 -36.5 1t-37.5 1q-12 0 -36 -2
q-4 -1 -13 -1q-27 0 -27 32q0 11 3.5 61.5t3.5 51.5q0 19 -2 27zM423 831v-22q0 -74 -59 -74q-24 0 -70 14q-32 9 -54 17q-6 3 -11 3q-10 0 -10 -11q0 -8 -4.5 -13.5t-11.5 -5.5q-2 0 -5 0.5t-4 0.5q-6 1 -26 1q-1 0 -11.5 -0.5t-12.5 -0.5q-9 0 -14 7.5t-5 15.5q0 32 3 53
q8 42 61 42q38 0 113 -25q12 -4 17 -4q6 0 9 3q1 2 1 6t1 6q4 9 15 9q7 0 10 -1q7 -1 21 -1q2 0 14.5 0.5t15.5 0.5q17 0 17 -21z" />
    <glyph glyph-name="Ograve" unicode="&#xd2;" horiz-adv-x="521" 
d="M26 403q0 127 19.5 184.5t77.5 96.5q18 12 28.5 17t38.5 9.5t73 4.5q48 0 75 -10t63 -36q25 -18 34 -28q54 -61 54 -229q0 -12 -0.5 -35t-0.5 -34q-1 -105 -11 -160q-9 -53 -18 -78t-28 -47q-15 -18 -30.5 -30t-25.5 -16.5t-29 -10.5q-42 -12 -79 -12q-74 0 -126 24.5
t-76 66.5q-20 34 -30 84q-8 37 -8 92q0 5 0.5 36t0.5 37q0 5 -1 36.5t-1 37.5zM257 545q-49 0 -49 -81q0 -5 1 -35t1 -36q0 -10 -1.5 -70.5t-1.5 -72.5q0 -19 1 -30t5 -28t14 -25.5t27 -8.5q44 0 47 58v43q0 5 2 39.5t2 41.5q0 9 -0.5 27t-0.5 27q0 2 0.5 18.5t0.5 19.5
q0 25 -4 63q-5 50 -44 50zM203 857q35 0 54 1q18 2 25 2q10 0 16.5 -5.5t9 -11t6.5 -17.5q2 -5 6 -15.5t6 -15.5q1 -2 4.5 -10.5t6.5 -16.5t3 -10q0 -14 -23 -14q-2 0 -19 0.5t-20 0.5q-2 0 -14.5 -1t-15.5 -1q-4 0 -10 2q-7 4 -38 40q-12 11 -35 34q-19 19 -19 26
q0 14 26 14q2 0 15 -1t16 -1z" />
    <glyph glyph-name="Oacute" unicode="&#xd3;" horiz-adv-x="521" 
d="M26 403q0 127 19.5 184.5t77.5 96.5q18 12 28.5 17t38.5 9.5t73 4.5q48 0 75 -10t63 -36q25 -18 34 -28q54 -61 54 -229q0 -12 -0.5 -35t-0.5 -34q-1 -105 -11 -160q-9 -53 -18 -78t-28 -47q-15 -18 -30.5 -30t-25.5 -16.5t-29 -10.5q-42 -12 -79 -12q-74 0 -126 24.5
t-76 66.5q-20 34 -30 84q-8 37 -8 92q0 5 0.5 36t0.5 37q0 5 -1 36.5t-1 37.5zM257 545q-49 0 -49 -81q0 -5 1 -35t1 -36q0 -10 -1.5 -70.5t-1.5 -72.5q0 -19 1 -30t5 -28t14 -25.5t27 -8.5q44 0 47 58v43q0 5 2 39.5t2 41.5q0 9 -0.5 27t-0.5 27q0 2 0.5 18.5t0.5 19.5
q0 25 -4 63q-5 50 -44 50zM180 758q0 3 5 15q13 27 19 49q8 23 14.5 30.5t20.5 7.5q7 0 19 -2q15 -1 50 -1h22q12 2 17 2q26 0 26 -14q0 -8 -21 -29q-38 -36 -55 -55q-15 -18 -26 -18q-1 0 -12 1t-13 1q-3 0 -22.5 -0.5t-23.5 -0.5q-20 0 -20 14z" />
    <glyph glyph-name="Ocircumflex" unicode="&#xd4;" horiz-adv-x="521" 
d="M26 403q0 127 19.5 184.5t77.5 96.5q18 12 28.5 17t38.5 9.5t73 4.5q48 0 75 -10t63 -36q25 -18 34 -28q54 -61 54 -229q0 -12 -0.5 -35t-0.5 -34q-1 -105 -11 -160q-9 -53 -18 -78t-28 -47q-15 -18 -30.5 -30t-25.5 -16.5t-29 -10.5q-42 -12 -79 -12q-74 0 -126 24.5
t-76 66.5q-20 34 -30 84q-8 37 -8 92q0 5 0.5 36t0.5 37q0 5 -1 36.5t-1 37.5zM257 545q-49 0 -49 -81q0 -5 1 -35t1 -36q0 -10 -1.5 -70.5t-1.5 -72.5q0 -19 1 -30t5 -28t14 -25.5t27 -8.5q44 0 47 58v43q0 5 2 39.5t2 41.5q0 9 -0.5 27t-0.5 27q0 2 0.5 18.5t0.5 19.5
q0 25 -4 63q-5 50 -44 50zM249 859q4 0 27 1t27 1q21 0 30 -6.5t31 -36.5q20 -26 32 -37q18 -17 18 -24q0 -12 -12 -12q-4 0 -29 1t-29 1q-2 0 -14 -0.5t-14 -0.5q-15 0 -24 8q-2 2 -9 11t-14 16.5t-11 7.5q-3 0 -16 -17q-12 -16 -17.5 -20t-17.5 -4q-3 0 -15.5 0.5
t-14.5 0.5q-3 0 -17 -0.5t-17 -0.5l-22 -1q-15 0 -15 12q0 6 8 14q2 2 5 4.5t4 3.5q10 10 14 16q2 3 16 18.5t16 18.5q11 15 19.5 20.5t24.5 5.5q2 0 17.5 -0.5t18.5 -0.5z" />
    <glyph glyph-name="Otilde" unicode="&#xd5;" horiz-adv-x="521" 
d="M26 403q0 127 19.5 184.5t77.5 96.5q18 12 28.5 17t38.5 9.5t73 4.5q48 0 75 -10t63 -36q25 -18 34 -28q54 -61 54 -229q0 -12 -0.5 -35t-0.5 -34q-1 -105 -11 -160q-9 -53 -18 -78t-28 -47q-15 -18 -30.5 -30t-25.5 -16.5t-29 -10.5q-42 -12 -79 -12q-74 0 -126 24.5
t-76 66.5q-20 34 -30 84q-8 37 -8 92q0 5 0.5 36t0.5 37q0 5 -1 36.5t-1 37.5zM257 545q-49 0 -49 -81q0 -5 1 -35t1 -36q0 -10 -1.5 -70.5t-1.5 -72.5q0 -19 1 -30t5 -28t14 -25.5t27 -8.5q44 0 47 58v43q0 5 2 39.5t2 41.5q0 9 -0.5 27t-0.5 27q0 2 0.5 18.5t0.5 19.5
q0 25 -4 63q-5 50 -44 50zM412 831v-22q0 -74 -59 -74q-24 0 -70 14q-32 9 -54 17q-6 3 -11 3q-10 0 -10 -11q0 -8 -4.5 -13.5t-11.5 -5.5q-2 0 -5 0.5t-4 0.5q-6 1 -26 1q-1 0 -11.5 -0.5t-12.5 -0.5q-9 0 -14 7.5t-5 15.5q0 32 3 53q8 42 61 42q38 0 113 -25q12 -4 17 -4
q6 0 9 3q1 2 1 6t1 6q5 9 15 9q7 0 10 -1q7 -1 21 -1q2 0 14.5 0.5t15.5 0.5q17 0 17 -21z" />
    <glyph glyph-name="Odieresis" unicode="&#xd6;" horiz-adv-x="521" 
d="M26 403q0 127 19.5 184.5t77.5 96.5q18 12 28.5 17t38.5 9.5t73 4.5q48 0 75 -10t63 -36q25 -18 34 -28q54 -61 54 -229q0 -12 -0.5 -35t-0.5 -34q-1 -105 -11 -160q-9 -53 -18 -78t-28 -47q-15 -18 -30.5 -30t-25.5 -16.5t-29 -10.5q-42 -12 -79 -12q-74 0 -126 24.5
t-76 66.5q-20 34 -30 84q-8 37 -8 92q0 5 0.5 36t0.5 37q0 5 -1 36.5t-1 37.5zM257 545q-49 0 -49 -81q0 -5 1 -35t1 -36q0 -10 -1.5 -70.5t-1.5 -72.5q0 -19 1 -30t5 -28t14 -25.5t27 -8.5q44 0 47 58v43q0 5 2 39.5t2 41.5q0 9 -0.5 27t-0.5 27q0 2 0.5 18.5t0.5 19.5
q0 25 -4 63q-5 50 -44 50zM81 832q0 24 30 24q4 0 27.5 -1.5t28.5 -1.5q3 0 22.5 0.5t23.5 0.5q29 0 29 -18q0 -3 -0.5 -15t-0.5 -14v-29q0 -25 -35 -25q-5 0 -38.5 1t-39.5 1q-2 0 -12 -0.5t-11 -0.5q-24 0 -24 22q0 1 0.5 4t0.5 5q1 5 1 19q0 2 -1 13.5t-1 14.5zM268 834
q0 9 4 13.5t9.5 4t10.5 -0.5h15q3 0 25.5 -0.5t26.5 -0.5q3 0 23 1t24 1q25 0 25 -17v-5q-2 -8 -2 -24q0 -2 0.5 -15t0.5 -15q0 -25 -32 -25q-4 0 -26.5 1.5t-27.5 1.5q-2 0 -19.5 -0.5t-20.5 -0.5q-20 0 -27 2.5t-9 14.5v8t0.5 12.5t0.5 8.5q0 2 -0.5 17t-0.5 18z" />
    <glyph glyph-name="Oslash" unicode="&#xd8;" horiz-adv-x="521" 
d="M427 662q2 2 15.5 19t16.5 20q9 7 18 7t26 -14q22 -19 22 -31q0 -9 -7 -23q-3 -4 -10 -12.5t-10 -12.5q-9 -13 -19 -34q14 -55 14 -139q0 -7 -0.5 -21.5t-0.5 -22.5q0 -18 -1.5 -54.5t-2.5 -55.5q-1 -49 -5 -90q-4 -36 -16 -70q-17 -50 -34 -70q-61 -69 -178 -69
q-105 0 -157 50l-18 -27q-13 -22 -28 -22q-5 0 -11 3q-4 2 -16 12q-2 1 -6.5 3.5t-7.5 4.5q-13 9 -13 21q0 9 10 24q2 3 13.5 21.5t12.5 19.5q7 10 14 25q-2 4 -4 12q-3 10 -8 46q-8 46 -8 104q0 43 1 65q1 127 15 193q8 41 23.5 68.5t27 37.5t35.5 26q21 14 32.5 20.5
t35 12.5t51.5 6q49 0 94 -8q22 -4 37 -11.5t47 -33.5zM210 358l99 139q3 6 3 9q0 4 -2.5 12.5t-14 20t-29.5 11.5q-24 0 -39 -20q-15 -22 -15 -83q0 -1 -0.5 -24t-1.5 -44v-21zM312 332q0 4 -2 22q-4 -11 -19 -31q-2 -2 -33 -47t-38 -54q-10 -13 -10 -20q0 -17 12.5 -32.5
t35.5 -15.5q38 0 47 43q7 32 7 135z" />
    <glyph glyph-name="Ugrave" unicode="&#xd9;" horiz-adv-x="521" 
d="M38 642q0 39 6.5 51.5t28.5 12.5q4 0 31.5 -1.5t32.5 -1.5q10 0 17 1h16q29 0 36 -4q16 -8 16 -27q0 -7 -1 -11q-3 -36 -3 -80q0 -3 0.5 -23t0.5 -24q0 -2 -0.5 -18.5t-0.5 -19.5v-40q0 -6 -1.5 -45.5t-1.5 -47.5q0 -4 0.5 -30t0.5 -31q0 -12 -0.5 -36.5t-0.5 -37.5
q0 -37 7 -49q13 -21 34 -21q13 0 27 8q15 9 19.5 26.5t4.5 52.5q0 3 -0.5 22.5t-0.5 22.5q0 12 0.5 37.5t0.5 38.5q0 9 -2 64t-2 66q0 7 1.5 49.5t1.5 50.5q0 7 -0.5 20.5t-0.5 19.5q0 47 9 57q10 12 26 12q4 0 32 -1.5t34 -1.5q1 0 10.5 0.5t15.5 0.5q11 1 25 1
q32 0 32 -38q0 -11 -1 -17q-4 -70 -4 -101q0 -20 1 -30q0 -3 1.5 -24.5t1.5 -25.5q0 -8 -1 -24t-1 -23q-2 -34 -2 -50q0 -8 1.5 -61.5t1.5 -63.5q0 -21 -1 -31q-2 -18 -2 -26q0 -5 -0.5 -19.5t-1.5 -22.5q-3 -38 -25 -72q-25 -37 -70 -60q-33 -17 -59 -21.5t-85 -4.5
q-69 0 -132 37q-43 25 -59 65q-14 37 -14 99q0 8 1.5 54t1.5 55q0 11 -2 76.5t-2 77.5q0 6 1.5 45t1.5 46t-1 48t-1 49zM203 857q35 0 54 1q18 2 25 2q10 0 16.5 -5.5t9 -11t6.5 -17.5q2 -5 6 -15.5t6 -15.5q1 -2 4.5 -10.5t6.5 -16.5t3 -10q0 -14 -23 -14q-2 0 -19 0.5
t-20 0.5q-2 0 -14.5 -1t-15.5 -1q-4 0 -10 2q-7 4 -38 40q-12 11 -35 34q-19 19 -19 26q0 14 26 14q2 0 15 -1t16 -1z" />
    <glyph glyph-name="Uacute" unicode="&#xda;" horiz-adv-x="521" 
d="M38 642q0 39 6.5 51.5t28.5 12.5q4 0 31.5 -1.5t32.5 -1.5q10 0 17 1h16q29 0 36 -4q16 -8 16 -27q0 -7 -1 -11q-3 -36 -3 -80q0 -3 0.5 -23t0.5 -24q0 -2 -0.5 -18.5t-0.5 -19.5v-40q0 -6 -1.5 -45.5t-1.5 -47.5q0 -4 0.5 -30t0.5 -31q0 -12 -0.5 -36.5t-0.5 -37.5
q0 -37 7 -49q13 -21 34 -21q13 0 27 8q15 9 19.5 26.5t4.5 52.5q0 3 -0.5 22.5t-0.5 22.5q0 12 0.5 37.5t0.5 38.5q0 9 -2 64t-2 66q0 7 1.5 49.5t1.5 50.5q0 7 -0.5 20.5t-0.5 19.5q0 47 9 57q10 12 26 12q4 0 32 -1.5t34 -1.5q1 0 10.5 0.5t15.5 0.5q11 1 25 1
q32 0 32 -38q0 -11 -1 -17q-4 -70 -4 -101q0 -20 1 -30q0 -3 1.5 -24.5t1.5 -25.5q0 -8 -1 -24t-1 -23q-2 -34 -2 -50q0 -8 1.5 -61.5t1.5 -63.5q0 -21 -1 -31q-2 -18 -2 -26q0 -5 -0.5 -19.5t-1.5 -22.5q-3 -38 -25 -72q-25 -37 -70 -60q-33 -17 -59 -21.5t-85 -4.5
q-69 0 -132 37q-43 25 -59 65q-14 37 -14 99q0 8 1.5 54t1.5 55q0 11 -2 76.5t-2 77.5q0 6 1.5 45t1.5 46t-1 48t-1 49zM180 758q0 3 5 15q13 27 19 49q8 23 14.5 30.5t20.5 7.5q7 0 19 -2q15 -1 50 -1h22q12 2 17 2q26 0 26 -14q0 -8 -21 -29q-38 -36 -55 -55
q-15 -18 -26 -18q-1 0 -12 1t-13 1q-3 0 -22.5 -0.5t-23.5 -0.5q-20 0 -20 14z" />
    <glyph glyph-name="Ucircumflex" unicode="&#xdb;" horiz-adv-x="521" 
d="M38 642q0 39 6.5 51.5t28.5 12.5q4 0 31.5 -1.5t32.5 -1.5q10 0 17 1h16q29 0 36 -4q16 -8 16 -27q0 -7 -1 -11q-3 -36 -3 -80q0 -3 0.5 -23t0.5 -24q0 -2 -0.5 -18.5t-0.5 -19.5v-40q0 -6 -1.5 -45.5t-1.5 -47.5q0 -4 0.5 -30t0.5 -31q0 -12 -0.5 -36.5t-0.5 -37.5
q0 -37 7 -49q13 -21 34 -21q13 0 27 8q15 9 19.5 26.5t4.5 52.5q0 3 -0.5 22.5t-0.5 22.5q0 12 0.5 37.5t0.5 38.5q0 9 -2 64t-2 66q0 7 1.5 49.5t1.5 50.5q0 7 -0.5 20.5t-0.5 19.5q0 47 9 57q10 12 26 12q4 0 32 -1.5t34 -1.5q1 0 10.5 0.5t15.5 0.5q11 1 25 1
q32 0 32 -38q0 -11 -1 -17q-4 -70 -4 -101q0 -20 1 -30q0 -3 1.5 -24.5t1.5 -25.5q0 -8 -1 -24t-1 -23q-2 -34 -2 -50q0 -8 1.5 -61.5t1.5 -63.5q0 -21 -1 -31q-2 -18 -2 -26q0 -5 -0.5 -19.5t-1.5 -22.5q-3 -38 -25 -72q-25 -37 -70 -60q-33 -17 -59 -21.5t-85 -4.5
q-69 0 -132 37q-43 25 -59 65q-14 37 -14 99q0 8 1.5 54t1.5 55q0 11 -2 76.5t-2 77.5q0 6 1.5 45t1.5 46t-1 48t-1 49zM249 859q4 0 27 1t27 1q21 0 30 -6.5t31 -36.5q20 -26 32 -37q18 -17 18 -24q0 -12 -12 -12q-4 0 -29 1t-29 1q-2 0 -14 -0.5t-14 -0.5q-15 0 -24 8
q-2 2 -9 11t-14 16.5t-11 7.5q-3 0 -16 -17q-12 -16 -17.5 -20t-17.5 -4q-3 0 -15.5 0.5t-14.5 0.5q-3 0 -17 -0.5t-17 -0.5l-22 -1q-15 0 -15 12q0 6 8 14q2 2 5 4.5t4 3.5q10 10 14 16q2 3 16 18.5t16 18.5q11 15 19.5 20.5t24.5 5.5q2 0 17.5 -0.5t18.5 -0.5z" />
    <glyph glyph-name="Udieresis" unicode="&#xdc;" horiz-adv-x="521" 
d="M38 642q0 39 6.5 51.5t28.5 12.5q4 0 31.5 -1.5t32.5 -1.5q10 0 17 1h16q29 0 36 -4q16 -8 16 -27q0 -7 -1 -11q-3 -36 -3 -80q0 -3 0.5 -23t0.5 -24q0 -2 -0.5 -18.5t-0.5 -19.5v-40q0 -6 -1.5 -45.5t-1.5 -47.5q0 -4 0.5 -30t0.5 -31q0 -12 -0.5 -36.5t-0.5 -37.5
q0 -37 7 -49q13 -21 34 -21q13 0 27 8q15 9 19.5 26.5t4.5 52.5q0 3 -0.5 22.5t-0.5 22.5q0 12 0.5 37.5t0.5 38.5q0 9 -2 64t-2 66q0 7 1.5 49.5t1.5 50.5q0 7 -0.5 20.5t-0.5 19.5q0 47 9 57q10 12 26 12q4 0 32 -1.5t34 -1.5q1 0 10.5 0.5t15.5 0.5q11 1 25 1
q32 0 32 -38q0 -11 -1 -17q-4 -70 -4 -101q0 -20 1 -30q0 -3 1.5 -24.5t1.5 -25.5q0 -8 -1 -24t-1 -23q-2 -34 -2 -50q0 -8 1.5 -61.5t1.5 -63.5q0 -21 -1 -31q-2 -18 -2 -26q0 -5 -0.5 -19.5t-1.5 -22.5q-3 -38 -25 -72q-25 -37 -70 -60q-33 -17 -59 -21.5t-85 -4.5
q-69 0 -132 37q-43 25 -59 65q-14 37 -14 99q0 8 1.5 54t1.5 55q0 11 -2 76.5t-2 77.5q0 6 1.5 45t1.5 46t-1 48t-1 49zM86 831q0 24 30 24q4 0 27.5 -1.5t28.5 -1.5q3 0 22.5 0.5t23.5 0.5q29 0 29 -18q0 -3 -0.5 -15t-0.5 -14v-29q0 -25 -35 -25q-5 0 -38.5 1t-39.5 1
q-2 0 -12 -0.5t-11 -0.5q-24 0 -24 22q0 1 0.5 4t0.5 5q1 5 1 19q0 2 -1 13.5t-1 14.5zM273 833q0 9 4 13.5t9.5 4t10.5 -0.5h15q3 0 25.5 -0.5t26.5 -0.5t24 1t23 1q25 0 25 -17v-5q-2 -8 -2 -24q0 -3 0.5 -15t0.5 -15q0 -25 -32 -25q-4 0 -26.5 1.5t-27.5 1.5
q-2 0 -19.5 -0.5t-20.5 -0.5q-20 0 -27 2.5t-9 14.5v8t0.5 12.5t0.5 8.5q0 2 -0.5 17t-0.5 18z" />
    <glyph glyph-name="Yacute" unicode="&#xdd;" horiz-adv-x="479" 
d="M219 0l-34 -1q-35 0 -35 33v52q0 2 -0.5 14t-0.5 14q0 3 1.5 23.5t1.5 24.5q0 7 -1 21.5t-1 21.5v28q0 9 -2 25q-1 6 -25 85q-19 58 -46 118q-17 39 -29 75q-17 59 -35 103q-15 39 -15 44q0 3 2 9q6 17 27 17q3 0 25.5 -1t26.5 -1q5 0 35.5 1t36.5 1q17 0 27 -11
q10 -13 23 -66l9 -45q1 -3 6 -21t10 -35t6 -23q7 -28 10 -28q7 0 9 13q4 34 19 76q7 18 18 71q8 46 17 58t35 12q10 0 28 -1t27 -1q3 0 21 0.5t22 0.5q19 0 26 -4q15 -9 15 -25t-8 -40q-13 -52 -49 -147q-8 -18 -9 -23q-2 -5 -5.5 -15.5l-5.5 -16.5q-8 -20 -12 -31
q-16 -44 -29 -74q-26 -60 -29 -73q-4 -16 -4 -36q0 -6 0.5 -18.5t0.5 -19.5q0 -5 -1.5 -34.5t-1.5 -35.5q0 -5 1 -34.5t1 -35.5q0 -41 -26 -43h-40q-3 0 -21 -0.5t-22 -0.5zM159 758q0 3 5 15q14 27 19 49q8 23 14.5 30.5t20.5 7.5q7 0 19 -2q15 -1 50 -1h22q12 2 17 2
q26 0 26 -14q0 -8 -21 -29q-38 -36 -55 -55q-15 -18 -26 -18q-1 0 -12 1t-13 1q-3 0 -22.5 -0.5t-23.5 -0.5q-20 0 -20 14z" />
    <glyph glyph-name="Thorn" unicode="&#xde;" horiz-adv-x="500" 
d="M37 304v59q0 5 1 37.5t1 38.5q0 5 -2 73.5t-2 71.5q0 2 0.5 18.5t0.5 19.5t-1 22.5t-1 23.5q0 38 27 38q5 0 11 -2q21 -3 61 -3q4 0 27.5 1.5t28.5 1.5q29 0 29 -29q0 -3 -2.5 -16t-2.5 -15q0 -12 11 -12q1 0 6 0.5t6 0.5h41q19 0 38 -3q57 -7 95 -34q41 -29 60 -85
q24 -70 24 -114q0 -57 -10 -117q-7 -42 -29 -76q-59 -98 -153 -104h-50q-40 0 -40 -41q0 -3 1 -16t1 -16q0 -27 -25 -29q-12 0 -21 3q-21 2 -63 2q-5 0 -16 -0.5t-16 -0.5q-4 -1 -11 -1q-26 0 -26 27q0 3 0.5 9t0.5 9q1 3 1 40q0 5 -1 37.5t-1 39.5q0 5 1 40t1 42
q0 5 -0.5 30t-0.5 29zM255 465q-12 0 -21 -7q-17 -13 -19 -51q0 -3 0.5 -20.5t0.5 -21.5q0 -2 -0.5 -15t-0.5 -16q0 -23 11.5 -40t30.5 -17q17 0 32 15t15 41q0 1 -0.5 13t-0.5 14q0 6 1 18t1 18q0 34 -15 51.5t-35 17.5z" />
    <glyph glyph-name="germandbls" unicode="&#xdf;" 
d="M34 544q0 58 21.5 92.5t75.5 59.5q45 20 91 20q29 0 48 -1.5t51.5 -14t57.5 -36.5q46 -44 46 -115q0 -37 -15 -69q-13 -32 -14 -35q-2 -10 -2 -14q0 -19 12 -43q17 -41 25 -63t16 -61.5t8 -81.5q0 -99 -43 -143q-39 -43 -111 -43q-45 0 -59 8q-18 14 -18 35q0 2 0.5 7.5
t0.5 8.5q1 12 1 61q0 1 -0.5 12t-0.5 13q0 11 5 19t9.5 10.5t5.5 2.5q3 1 12 1q12 0 18 7.5t6 33.5q0 31 -26 83q-2 5 -6.5 13.5t-8 15.5l-6.5 13q-12 28 -12 55q0 31 13 58q2 5 12.5 25t12.5 30q1 4 1 12q0 21 -17 32q-5 4 -18 4q-18 0 -28 -23q-5 -13 -5 -85q0 -5 -1 -37
t-1 -38q0 -2 0.5 -15.5t0.5 -16.5v-45q0 -4 1 -30t1 -31q0 -21 -1 -32v-45q0 -5 -0.5 -33t-0.5 -33q0 -4 1 -27.5t1 -28.5q0 -36 -28 -36q-3 0 -26.5 1t-28.5 1q-3 0 -25.5 -1t-26.5 -1q-17 0 -25 19q-2 7 -1 26v43q0 5 1.5 37.5t1.5 38.5q0 7 -1 51.5t-1 53.5q0 8 -1 55
t-1 56q0 2 1 14.5t1 15.5v39q0 2 0.5 18t0.5 19q0 9 -0.5 28.5t-0.5 29.5z" />
    <glyph glyph-name="agrave" unicode="&#xe0;" horiz-adv-x="437" 
d="M178 354h5q4 0 27 -2t25 -2q10 0 15 6.5t5 13.5q0 16 -8.5 24t-16.5 9.5t-23 2.5q-2 0 -17 1t-18 1q-28 0 -58 -12q-32 -12 -38 -12q-29 0 -29 40q0 2 0.5 18.5t0.5 19.5t-1 20.5t-1 20.5q0 26 36 33q87 20 140 20t98.5 -17t64.5 -39q22 -27 22 -99q0 -5 -1 -33.5
t-1 -34.5q0 -4 1 -27t1 -28q0 -2 -0.5 -18.5t-0.5 -19.5q0 -5 0.5 -33.5t0.5 -34.5q0 -5 -1.5 -39t-1.5 -40q0 -5 1.5 -31t1.5 -31q0 -28 -27 -28q-3 0 -23.5 0.5t-24.5 0.5t-26 -1.5t-26 -1.5q-10 0 -15 9q-1 2 -2 5t-2 5q-2 4 -6 4q-3 0 -10 -7q-25 -22 -80 -22
q-67 0 -108 42q-44 45 -44 116q0 85 17 116q25 41 56 57q56 28 92 28zM219 234q-17 0 -30.5 -14.5t-13.5 -47.5q0 -26 12.5 -38t25.5 -12q42 0 42 59q0 21 -9 37t-27 16zM241 590h-6q-2 0 -13.5 -1t-14.5 -1q-9 0 -24 15q-19 21 -44 46q-34 33 -34 41q0 13 27 13
q3 0 24 -0.5t25 -0.5q22 0 33 1q27 3 28 3q20 0 30 -33q8 -22 22 -55q5 -8 5 -15q0 -14 -21 -14q-2 0 -18 0.5t-19 0.5z" />
    <glyph glyph-name="aacute" unicode="&#xe1;" horiz-adv-x="437" 
d="M178 354h5q4 0 27 -2t25 -2q10 0 15 6.5t5 13.5q0 16 -8.5 24t-16.5 9.5t-23 2.5q-2 0 -17 1t-18 1q-28 0 -58 -12q-32 -12 -38 -12q-29 0 -29 40q0 2 0.5 18.5t0.5 19.5t-1 20.5t-1 20.5q0 26 36 33q87 20 140 20t98.5 -17t64.5 -39q22 -27 22 -99q0 -5 -1 -33.5
t-1 -34.5q0 -4 1 -27t1 -28q0 -2 -0.5 -18.5t-0.5 -19.5q0 -5 0.5 -33.5t0.5 -34.5q0 -5 -1.5 -39t-1.5 -40q0 -5 1.5 -31t1.5 -31q0 -28 -27 -28q-3 0 -23.5 0.5t-24.5 0.5t-26 -1.5t-26 -1.5q-10 0 -15 9q-1 2 -2 5t-2 5q-2 4 -6 4q-3 0 -10 -7q-25 -22 -80 -22
q-67 0 -108 42q-44 45 -44 116q0 85 17 116q25 41 56 57q56 28 92 28zM219 234q-17 0 -30.5 -14.5t-13.5 -47.5q0 -26 12.5 -38t25.5 -12q42 0 42 59q0 21 -9 37t-27 16zM202 590h-7q-3 0 -19.5 -0.5t-19.5 -0.5q-20 0 -20 14q0 7 5 15q1 2 10 25t10 26q7 20 13 28t20 8
q3 0 9 -0.5t10 -0.5q8 -2 46 -2q7 0 21 0.5t21 0.5q12 0 16.5 -0.5t8 -3.5t3.5 -9q0 -9 -22 -30q-25 -23 -54 -55q-16 -17 -26 -17q-1 0 -12 1t-13 1z" />
    <glyph glyph-name="acircumflex" unicode="&#xe2;" horiz-adv-x="437" 
d="M178 354h5q4 0 27 -2t25 -2q10 0 15 6.5t5 13.5q0 16 -8.5 24t-16.5 9.5t-23 2.5q-2 0 -17 1t-18 1q-28 0 -58 -12q-32 -12 -38 -12q-29 0 -29 40q0 2 0.5 18.5t0.5 19.5t-1 20.5t-1 20.5q0 26 36 33q87 20 140 20t98.5 -17t64.5 -39q22 -27 22 -99q0 -5 -1 -33.5
t-1 -34.5q0 -4 1 -27t1 -28q0 -2 -0.5 -18.5t-0.5 -19.5q0 -5 0.5 -33.5t0.5 -34.5q0 -5 -1.5 -39t-1.5 -40q0 -5 1.5 -31t1.5 -31q0 -28 -27 -28q-3 0 -23.5 0.5t-24.5 0.5t-26 -1.5t-26 -1.5q-10 0 -15 9q-1 2 -2 5t-2 5q-2 4 -6 4q-3 0 -10 -7q-25 -22 -80 -22
q-67 0 -108 42q-44 45 -44 116q0 85 17 116q25 41 56 57q56 28 92 28zM219 234q-17 0 -30.5 -14.5t-13.5 -47.5q0 -26 12.5 -38t25.5 -12q42 0 42 59q0 21 -9 37t-27 16zM64 607q0 6 17 21q13 12 42 49q10 13 15 18t13.5 9t20.5 4q2 0 16 -1t16 -1h20q3 0 22 1t23 1
q9 0 16 -3q8 -4 13.5 -10t21.5 -28q25 -30 32 -37q21 -21 21 -27q0 -11 -15 -11q-5 0 -8 1l-10 1q-9 0 -19.5 0.5t-13.5 0.5t-17 -1t-17 -1q-12 0 -17 3.5t-19 20.5q-14 19 -21 19q-3 0 -16 -17q-12 -16 -17.5 -20t-17.5 -4q-1 0 -11.5 0.5t-12.5 0.5q-40 0 -51 -1
q-3 -1 -9 -1q-17 0 -17 13z" />
    <glyph glyph-name="atilde" unicode="&#xe3;" horiz-adv-x="437" 
d="M178 354h5q4 0 27 -2t25 -2q10 0 15 6.5t5 13.5q0 16 -8.5 24t-16.5 9.5t-23 2.5q-2 0 -17 1t-18 1q-28 0 -58 -12q-32 -12 -38 -12q-29 0 -29 40q0 2 0.5 18.5t0.5 19.5t-1 20.5t-1 20.5q0 26 36 33q87 20 140 20t98.5 -17t64.5 -39q22 -27 22 -99q0 -5 -1 -33.5
t-1 -34.5q0 -4 1 -27t1 -28q0 -2 -0.5 -18.5t-0.5 -19.5q0 -5 0.5 -33.5t0.5 -34.5q0 -5 -1.5 -39t-1.5 -40q0 -5 1.5 -31t1.5 -31q0 -28 -27 -28q-3 0 -23.5 0.5t-24.5 0.5t-26 -1.5t-26 -1.5q-10 0 -15 9q-1 2 -2 5t-2 5q-2 4 -6 4q-3 0 -10 -7q-25 -22 -80 -22
q-67 0 -108 42q-44 45 -44 116q0 85 17 116q25 41 56 57q56 28 92 28zM219 234q-17 0 -30.5 -14.5t-13.5 -47.5q0 -26 12.5 -38t25.5 -12q42 0 42 59q0 21 -9 37t-27 16zM72 618q0 3 0.5 8.5t0.5 7.5q2 38 9 49q16 24 56 24q20 0 44 -7q4 -1 24.5 -6.5t38 -10.5t19.5 -5
q7 0 12 5q2 2 3 6.5t3 6.5q4 6 16 5q2 0 13 -1t13 -1q4 0 11 0.5t11 0.5q24 0 24 -24q0 -51 -10 -66q-15 -26 -47 -26q-31 0 -91 21q-36 12 -46 12q-5 0 -7 -2t-4 -8.5t-3 -8.5q-6 -8 -21 -8q-6 0 -24 2q-1 0 -8.5 -0.5t-9.5 -0.5q-8 0 -13 1t-9.5 7.5t-4.5 18.5z" />
    <glyph glyph-name="adieresis" unicode="&#xe4;" horiz-adv-x="437" 
d="M178 354h5q4 0 27 -2t25 -2q10 0 15 6.5t5 13.5q0 16 -8.5 24t-16.5 9.5t-23 2.5q-2 0 -17 1t-18 1q-28 0 -58 -12q-32 -12 -38 -12q-29 0 -29 40q0 2 0.5 18.5t0.5 19.5t-1 20.5t-1 20.5q0 26 36 33q87 20 140 20t98.5 -17t64.5 -39q22 -27 22 -99q0 -5 -1 -33.5
t-1 -34.5q0 -4 1 -27t1 -28q0 -2 -0.5 -18.5t-0.5 -19.5q0 -5 0.5 -33.5t0.5 -34.5q0 -5 -1.5 -39t-1.5 -40q0 -5 1.5 -31t1.5 -31q0 -28 -27 -28q-3 0 -23.5 0.5t-24.5 0.5t-26 -1.5t-26 -1.5q-10 0 -15 9q-1 2 -2 5t-2 5q-2 4 -6 4q-3 0 -10 -7q-25 -22 -80 -22
q-67 0 -108 42q-44 45 -44 116q0 85 17 116q25 41 56 57q56 28 92 28zM219 234q-17 0 -30.5 -14.5t-13.5 -47.5q0 -26 12.5 -38t25.5 -12q42 0 42 59q0 21 -9 37t-27 16zM42 682q0 20 20 23h12.5h20.5h12q2 0 16 -0.5t17 -0.5q2 0 18.5 0.5t19.5 0.5q15 0 20 -6t5 -18
q-1 -13 -1 -53q0 -25 -29 -25q-2 0 -14.5 0.5t-14.5 0.5q-4 0 -24 0.5t-24 0.5q-2 0 -15 -0.5t-15 -0.5q-24 0 -24 21q0 3 1 16t1 15t-1 13t-1 13zM229 686q0 18 16 18q4 0 6 -1h79q5 0 18.5 0.5t18.5 0.5q25 0 25 -18q0 -1 -0.5 -13.5t-0.5 -15.5v-29q0 -24 -44 -24
q-3 0 -21 1t-22 1q-6 0 -19 -0.5t-20 -0.5q-21 0 -28.5 3.5t-7.5 20.5q0 1 0.5 12.5t0.5 13.5q0 5 -0.5 15t-0.5 16z" />
    <glyph glyph-name="aring" unicode="&#xe5;" horiz-adv-x="437" 
d="M178 354h5q4 0 27 -2t25 -2q10 0 15 6.5t5 13.5q0 16 -8.5 24t-16.5 9.5t-23 2.5q-2 0 -17 1t-18 1q-28 0 -58 -12q-32 -12 -38 -12q-29 0 -29 40q0 2 0.5 18.5t0.5 19.5t-1 20.5t-1 20.5q0 26 36 33q87 20 140 20t98.5 -17t64.5 -39q22 -27 22 -99q0 -5 -1 -33.5
t-1 -34.5q0 -4 1 -27t1 -28q0 -2 -0.5 -18.5t-0.5 -19.5q0 -5 0.5 -33.5t0.5 -34.5q0 -5 -1.5 -39t-1.5 -40q0 -5 1.5 -31t1.5 -31q0 -28 -27 -28q-3 0 -23.5 0.5t-24.5 0.5t-26 -1.5t-26 -1.5q-10 0 -15 9q-1 2 -2 5t-2 5q-2 4 -6 4q-3 0 -10 -7q-25 -22 -80 -22
q-67 0 -108 42q-44 45 -44 116q0 85 17 116q25 41 56 57q56 28 92 28zM219 234q-17 0 -30.5 -14.5t-13.5 -47.5q0 -26 12.5 -38t25.5 -12q42 0 42 59q0 21 -9 37t-27 16zM104 686q0 26 21 53q30 36 78 36q38 0 65 -16q39 -21 39 -78q0 -29 -13 -49q-12 -20 -41.5 -32
t-49.5 -12q-10 0 -21.5 2.5t-31.5 10.5t-33 30t-13 55zM207 714q-18 0 -26 -11.5t-8 -23.5q0 -11 8 -19.5t25 -8.5q31 0 31 34q0 13 -8.5 21t-21.5 8z" />
    <glyph glyph-name="ae" unicode="&#xe6;" horiz-adv-x="688" 
d="M56 453v11v24l-1 20q0 16 13 24q4 3 28.5 9.5t46.5 7.5q36 4 81 4q65 0 119 -28q51 27 127 27q19 0 61 -6q61 -11 90 -45q56 -62 56 -148q0 -5 -2 -36t-2 -37v-25q0 -19 -17 -32t-33 -13q-2 0 -17 1.5t-18 1.5t-24.5 -1t-25.5 -1q-5 0 -35.5 1.5t-36.5 1.5
q-15 0 -23.5 -1t-15 -6t-6.5 -15q0 -25 23 -42q8 -6 33 -12t31 -6q9 -1 28 -1q11 0 43 8q33 11 37 12q3 1 10 1q18 0 29 -14q6 -8 6 -47q0 -4 -0.5 -12t-0.5 -13q0 -32 -5 -41q-4 -7 -12 -10t-42 -13q-25 -8 -60 -8q-96 0 -133 14q-41 13 -73 43q-44 -35 -74.5 -45
t-66.5 -10q-66 0 -108 26q-18 11 -29.5 24.5t-15.5 23.5t-10 28q-14 48 -14 81q0 9 2 27t3 28q0 16 1 24q1 16 8 32q17 47 49 69q8 7 37.5 18.5t52.5 11.5q21 0 51 -10q1 0 6.5 -2.5t11 -4.5t7.5 -2q9 0 9 27q0 23 -30 30q-22 5 -56 5q-27 0 -52 -9q-32 -11 -38 -11
q-20 0 -23 20v21zM475 429q-1 0 -6 -0.5t-6 -0.5q-20 -3 -29 -16q-8 -14 -13 -37q-1 -4 -1 -12q0 -5 2 -19q2 -21 24 -21q2 0 10 0.5t10 0.5q4 0 11.5 -0.5t11.5 -0.5q25 0 25 19q0 2 -0.5 10t-0.5 9t0.5 9t0.5 10q0 20 -12 34.5t-27 14.5zM253 166v58q0 18 -12.5 29
t-26.5 11q-19 0 -30.5 -18t-11.5 -42q0 -2 1 -15t1 -16q3 -26 5 -31q10 -22 39 -22q16 0 21 9q2 2 4 7t3 7q0 2 3 5.5t3 4.5q2 5 1 13z" />
    <glyph glyph-name="ccedilla" unicode="&#xe7;" horiz-adv-x="313" 
d="M254 -6h-27h-6l-5 1q-2 0 -3.5 -2.5t-1.5 -5.5v-3q0 -5 7 -9q2 -1 4.5 -2t5.5 -2t5 -2q13 -5 21 -18q7 -11 7 -29q0 -28 -18.5 -55.5t-49.5 -33.5q-11 -2 -67 -2q-21 0 -21 12q0 1 3 10q2 10 2 15q1 21 6 24.5t29 3.5q26 0 26 16q0 9 -7 14q-2 2 -8 3t-8 2q-8 4 -8 14
q0 6 4 16q1 4 4 12t4 11q5 15 5 16q0 2 -8 3q-18 3 -41 19q-31 20 -54 66q-17 35 -24 63t-7 78q0 94 5 128q10 59 36 105t73 70.5t97 24.5q38 0 51.5 -6.5t13.5 -30.5q0 -4 -1 -28t-1 -29q0 -7 0.5 -21.5t0.5 -21.5q0 -26 -8 -34t-36 -8q-23 0 -36 -12q-24 -22 -24 -83v-36
q0 -38 17 -57t33 -23q5 -1 15 -1.5t13 -0.5q26 -4 23 -27q0 -3 -0.5 -24.5t-0.5 -25.5q0 -3 -0.5 -19t-0.5 -19q0 -1 0.5 -11.5t0.5 -12.5q0 -32 -40 -32z" />
    <glyph glyph-name="egrave" unicode="&#xe8;" 
d="M431 59v-17q0 -24 -30 -34q-46 -12 -153 -12q-46 0 -102 16q-21 7 -37 21q-34 29 -44 41t-19 35q-17 47 -19 97q0 4 -2 28.5t-2 29.5q0 8 1 23t1 22q1 9 1 29.5t1.5 36.5t4.5 30q9 41 40 80q27 33 72 48.5t90 15.5q103 0 157 -56q52 -59 52 -146q0 -10 -1 -28t-1 -27v-23
q0 -20 -2 -28q-20 -30 -39 -30q-2 0 -15 1t-16 1q-2 0 -4.5 -0.5t-7.5 -1t-10 -0.5q-26 -2 -50 -2q-14 0 -22 1q-2 0 -18.5 1.5t-17.5 1.5q-19 0 -27.5 -2.5t-10 -6.5t-1.5 -15q0 -21 6 -29q9 -17 44 -24q27 -5 31 -5h2q59 0 88 15q15 7 27 7q15 0 22.5 -8.5t8.5 -16
t1 -20.5q0 -41 1 -49zM281 339v27q0 30 -12 45t-28 15q-7 0 -15 -3q-14 -4 -21 -16q-13 -52 -13 -59q0 -28 20 -28q2 0 16.5 0.5t17.5 0.5q1 0 8 -0.5t8 -0.5q19 0 19 19zM262 590h-6q-2 0 -13.5 -1t-14.5 -1q-9 0 -24 15q-19 21 -44 46q-34 33 -34 41q0 13 27 13
q3 0 24 -0.5t25 -0.5q22 0 33 1q27 3 28 3q20 0 30 -33q8 -22 22 -55q5 -8 5 -15q0 -14 -21 -14q-2 0 -18 0.5t-19 0.5z" />
    <glyph glyph-name="eacute" unicode="&#xe9;" 
d="M431 59v-17q0 -24 -30 -34q-46 -12 -153 -12q-46 0 -102 16q-21 7 -37 21q-34 29 -44 41t-19 35q-17 47 -19 97q0 4 -2 28.5t-2 29.5q0 8 1 23t1 22q1 9 1 29.5t1.5 36.5t4.5 30q9 41 40 80q27 33 72 48.5t90 15.5q103 0 157 -56q52 -59 52 -146q0 -10 -1 -28t-1 -27v-23
q0 -20 -2 -28q-20 -30 -39 -30q-2 0 -15 1t-16 1q-2 0 -4.5 -0.5t-7.5 -1t-10 -0.5q-26 -2 -50 -2q-14 0 -22 1q-2 0 -18.5 1.5t-17.5 1.5q-19 0 -27.5 -2.5t-10 -6.5t-1.5 -15q0 -21 6 -29q9 -17 44 -24q27 -5 31 -5h2q59 0 88 15q15 7 27 7q15 0 22.5 -8.5t8.5 -16
t1 -20.5q0 -41 1 -49zM281 339v27q0 30 -12 45t-28 15q-7 0 -15 -3q-14 -4 -21 -16q-13 -52 -13 -59q0 -28 20 -28q2 0 16.5 0.5t17.5 0.5q1 0 8 -0.5t8 -0.5q19 0 19 19zM223 590h-7q-3 0 -19.5 -0.5t-19.5 -0.5q-20 0 -20 14q0 7 5 15q1 2 10 25t10 26q7 20 13 28t20 8
q3 0 9 -0.5t10 -0.5q8 -2 46 -2q7 0 21 0.5t21 0.5q12 0 16.5 -0.5t8 -3.5t3.5 -9q0 -9 -22 -30q-25 -23 -54 -55q-16 -17 -26 -17q-1 0 -12 1t-13 1z" />
    <glyph glyph-name="ecircumflex" unicode="&#xea;" 
d="M431 59v-17q0 -24 -30 -34q-46 -12 -153 -12q-46 0 -102 16q-21 7 -37 21q-34 29 -44 41t-19 35q-17 47 -19 97q0 4 -2 28.5t-2 29.5q0 8 1 23t1 22q1 9 1 29.5t1.5 36.5t4.5 30q9 41 40 80q27 33 72 48.5t90 15.5q103 0 157 -56q52 -59 52 -146q0 -10 -1 -28t-1 -27v-23
q0 -20 -2 -28q-20 -30 -39 -30q-2 0 -15 1t-16 1q-2 0 -4.5 -0.5t-7.5 -1t-10 -0.5q-26 -2 -50 -2q-14 0 -22 1q-2 0 -18.5 1.5t-17.5 1.5q-19 0 -27.5 -2.5t-10 -6.5t-1.5 -15q0 -21 6 -29q9 -17 44 -24q27 -5 31 -5h2q59 0 88 15q15 7 27 7q15 0 22.5 -8.5t8.5 -16
t1 -20.5q0 -41 1 -49zM281 339v27q0 30 -12 45t-28 15q-7 0 -15 -3q-14 -4 -21 -16q-13 -52 -13 -59q0 -28 20 -28q2 0 16.5 0.5t17.5 0.5q1 0 8 -0.5t8 -0.5q19 0 19 19zM85 607q0 6 17 21q13 12 42 49q10 13 15 18t13.5 9t20.5 4q3 0 16 -1t16 -1h20q3 0 22 1t23 1
q8 0 16 -3q8 -4 13.5 -10t21.5 -28q25 -30 32 -37q21 -21 21 -27q0 -11 -15 -11q-5 0 -8 1l-9 1q-10 0 -20.5 0.5t-13.5 0.5q-2 0 -17 -1t-17 -1q-12 0 -17 3.5t-19 20.5q-14 19 -21 19q-3 0 -16 -17q-12 -16 -17.5 -20t-17.5 -4q-1 0 -11.5 0.5t-12.5 0.5q-40 0 -51 -1
q-3 -1 -9 -1q-17 0 -17 13z" />
    <glyph glyph-name="edieresis" unicode="&#xeb;" 
d="M431 59v-17q0 -24 -30 -34q-46 -12 -153 -12q-46 0 -102 16q-21 7 -37 21q-34 29 -44 41t-19 35q-17 47 -19 97q0 4 -2 28.5t-2 29.5q0 8 1 23t1 22q1 9 1 29.5t1.5 36.5t4.5 30q9 41 40 80q27 33 72 48.5t90 15.5q103 0 157 -56q52 -59 52 -146q0 -10 -1 -28t-1 -27v-23
q0 -20 -2 -28q-20 -30 -39 -30q-2 0 -15 1t-16 1q-2 0 -4.5 -0.5t-7.5 -1t-10 -0.5q-26 -2 -50 -2q-14 0 -22 1q-2 0 -18.5 1.5t-17.5 1.5q-19 0 -27.5 -2.5t-10 -6.5t-1.5 -15q0 -21 6 -29q9 -17 44 -24q27 -5 31 -5h2q59 0 88 15q15 7 27 7q15 0 22.5 -8.5t8.5 -16
t1 -20.5q0 -41 1 -49zM281 339v27q0 30 -12 45t-28 15q-7 0 -15 -3q-14 -4 -21 -16q-13 -52 -13 -59q0 -28 20 -28q2 0 16.5 0.5t17.5 0.5q1 0 8 -0.5t8 -0.5q19 0 19 19zM63 681q0 20 20 23h45q2 0 16 -0.5t17 -0.5q2 0 18.5 0.5t19.5 0.5q15 0 20 -6t5 -18q-1 -13 -1 -53
q0 -25 -29 -25q-2 0 -14.5 0.5t-14.5 0.5q-3 0 -24 0.5t-24 0.5t-15 -0.5t-15 -0.5q-24 0 -24 21q0 2 1 15t1 16q0 2 -1 13t-1 13zM250 685q0 18 16 18q4 0 6 -1h79q5 0 18.5 0.5t18.5 0.5q25 0 25 -18q0 -1 -0.5 -13.5t-0.5 -15.5v-29q0 -24 -44 -24q-3 0 -21 1t-22 1
q-7 0 -20 -0.5t-19 -0.5q-15 0 -21 1t-10.5 6t-4.5 17q0 1 0.5 12.5t0.5 13.5q0 5 -0.5 15t-0.5 16z" />
    <glyph glyph-name="igrave" unicode="&#xec;" horiz-adv-x="229" 
d="M158 553q21 0 30.5 -7t9.5 -32q0 -3 -0.5 -10.5t-0.5 -11.5q-2 -28 -2 -42q0 -6 0.5 -42.5t0.5 -43.5q0 -5 -0.5 -38t-0.5 -39q0 -4 1 -27t1 -28v-39v-98q0 -70 -2 -78q-2 -10 -10.5 -13.5t-32.5 -3.5q-3 0 -23.5 1t-24.5 1q-20 0 -30 -1q-5 -1 -14 -1q-21 0 -28 16
q-3 7 -3 44q0 4 1 30.5t1 31.5q0 10 -1 29.5t-1 28.5q0 4 0.5 28.5t0.5 29.5t0.5 36t0.5 37t-1 43t-1 44q0 4 0.5 31.5t0.5 33.5q0 2 -0.5 17.5t-0.5 18.5q0 27 2.5 35t12.5 14q7 3 58 3q4 0 27.5 1t28.5 1zM137 590h-6q-2 0 -13.5 -1t-14.5 -1q-9 0 -24 15q-19 21 -44 46
q-34 33 -34 41q0 13 27 13q3 0 24 -0.5t25 -0.5q22 0 33 1q27 3 28 3q20 0 30 -33q8 -22 22 -55q5 -8 5 -15q0 -14 -21 -14q-2 0 -18 0.5t-19 0.5z" />
    <glyph glyph-name="iacute" unicode="&#xed;" horiz-adv-x="229" 
d="M158 553q21 0 30.5 -7t9.5 -32q0 -3 -0.5 -10.5t-0.5 -11.5q-2 -28 -2 -42q0 -6 0.5 -42.5t0.5 -43.5q0 -5 -0.5 -38t-0.5 -39q0 -4 1 -27t1 -28v-39v-98q0 -70 -2 -78q-2 -10 -10.5 -13.5t-32.5 -3.5q-3 0 -23.5 1t-24.5 1q-20 0 -30 -1q-5 -1 -14 -1q-21 0 -28 16
q-3 7 -3 44q0 4 1 30.5t1 31.5q0 10 -1 29.5t-1 28.5q0 4 0.5 28.5t0.5 29.5t0.5 36t0.5 37t-1 43t-1 44q0 4 0.5 31.5t0.5 33.5q0 2 -0.5 17.5t-0.5 18.5q0 27 2.5 35t12.5 14q7 3 58 3q4 0 27.5 1t28.5 1zM98 590h-7q-3 0 -19.5 -0.5t-19.5 -0.5q-20 0 -20 14q0 7 5 15
q1 2 10 25t10 26q7 20 13 28t20 8q3 0 9 -0.5t10 -0.5q8 -2 46 -2q7 0 21 0.5t21 0.5q12 0 16.5 -0.5t8 -3.5t3.5 -9q0 -9 -22 -30q-25 -23 -54 -55q-16 -17 -26 -17q-1 0 -12 1t-13 1z" />
    <glyph glyph-name="icircumflex" unicode="&#xee;" horiz-adv-x="229" 
d="M158 553q21 0 30.5 -7t9.5 -32q0 -3 -0.5 -10.5t-0.5 -11.5q-2 -28 -2 -42q0 -6 0.5 -42.5t0.5 -43.5q0 -5 -0.5 -38t-0.5 -39q0 -4 1 -27t1 -28v-39v-98q0 -70 -2 -78q-2 -10 -10.5 -13.5t-32.5 -3.5q-3 0 -23.5 1t-24.5 1q-20 0 -30 -1q-5 -1 -14 -1q-21 0 -28 16
q-3 7 -3 44q0 4 1 30.5t1 31.5q0 10 -1 29.5t-1 28.5q0 4 0.5 28.5t0.5 29.5t0.5 36t0.5 37t-1 43t-1 44q0 4 0.5 31.5t0.5 33.5q0 2 -0.5 17.5t-0.5 18.5q0 27 2.5 35t12.5 14q7 3 58 3q4 0 27.5 1t28.5 1zM-40 607q0 6 17 21q13 12 42 49q10 13 15 18t13.5 9t20.5 4
q2 0 16 -1t16 -1h20q3 0 22 1t23 1q9 0 16 -3q8 -4 13.5 -10t21.5 -28q25 -30 32 -37q21 -21 21 -27q0 -11 -15 -11q-5 0 -8 1l-10 1q-9 0 -19.5 0.5t-13.5 0.5t-17 -1t-17 -1q-12 0 -17 3.5t-19 20.5q-14 19 -21 19q-3 0 -16 -17q-12 -16 -17.5 -20t-17.5 -4
q-1 0 -11.5 0.5t-12.5 0.5q-40 0 -51 -1q-3 -1 -9 -1q-17 0 -17 13z" />
    <glyph glyph-name="idieresis" unicode="&#xef;" horiz-adv-x="229" 
d="M158 553q21 0 30.5 -7t9.5 -32q0 -3 -0.5 -10.5t-0.5 -11.5q-2 -28 -2 -42q0 -6 0.5 -42.5t0.5 -43.5q0 -5 -0.5 -38t-0.5 -39q0 -4 1 -27t1 -28v-39v-98q0 -70 -2 -78q-2 -10 -10.5 -13.5t-32.5 -3.5q-3 0 -23.5 1t-24.5 1q-20 0 -30 -1q-5 -1 -14 -1q-21 0 -28 16
q-3 7 -3 44q0 4 1 30.5t1 31.5q0 10 -1 29.5t-1 28.5q0 4 0.5 28.5t0.5 29.5t0.5 36t0.5 37t-1 43t-1 44q0 4 0.5 31.5t0.5 33.5q0 2 -0.5 17.5t-0.5 18.5q0 27 2.5 35t12.5 14q7 3 58 3q4 0 27.5 1t28.5 1zM-62 681q0 20 20 23h45q2 0 16 -0.5t17 -0.5q2 0 18.5 0.5
t19.5 0.5q15 0 20 -6t5 -18q-1 -13 -1 -53q0 -25 -29 -25q-2 0 -14.5 0.5t-14.5 0.5q-4 0 -24 0.5t-24 0.5q-2 0 -15 -0.5t-15 -0.5q-24 0 -24 21q0 2 1 15t1 16q0 2 -1 13t-1 13zM125 685q0 18 16 18q4 0 6 -1h79q5 0 18.5 0.5t18.5 0.5q25 0 25 -18q0 -1 -0.5 -13.5
t-0.5 -15.5v-29q0 -24 -44 -24q-3 0 -21 1t-22 1q-6 0 -19 -0.5t-20 -0.5q-15 0 -21 1t-10.5 6t-4.5 17q0 1 0.5 12.5t0.5 13.5q0 5 -0.5 15t-0.5 16z" />
    <glyph glyph-name="eth" unicode="&#xf0;" 
d="M226 702q24 0 37 3q16 4 17 4q16 0 30 -16q1 -1 14 -22q12 -16 26 -16q3 0 20 1t21 1q13 0 17 -17l5 -15q5 -15 5 -18q0 -14 -10 -19q-6 -2 -17 -2q-1 0 -5.5 0.5t-5.5 0.5q-5 0 -5 -5q0 -1 0.5 -3t0.5 -3l12 -21q1 -2 3 -6.5t3 -6.5q11 -24 19 -51q16 -54 19 -96v-11
q1 -11 1.5 -26.5t0.5 -32t0.5 -30.5t0.5 -19q0 -25 -8 -92q-9 -82 -49 -132q-50 -63 -142 -63q-24 0 -40 1.5t-43.5 8t-50.5 24t-40 45.5q-26 42 -33 87t-7 133q0 50 6 81q0 1 3 16t8 34t8 28q13 33 34.5 56.5t43.5 33.5t37 13.5t27 3.5q14 0 21 -2l15 -3q6 0 6 5l-1 2v2
q-1 2 -8.5 12t-10.5 11q-5 3 -12 3q-1 0 -9.5 -1t-10.5 -1q-3 0 -11 1t-12 1q-1 0 -8.5 -1t-9.5 -1q-16 0 -21 17q-2 5 -4 15q0 1 -3.5 11t-3.5 12q0 6 5 10.5t12 4.5q1 0 10 -1t11 -1q19 0 19 4q0 5 -12 17q-9 9 -9 17q0 16 20 18q4 0 31.5 -2t32.5 -2zM186 279v-46
q0 -78 39 -78q37 0 42 69q0 3 0.5 45.5t0.5 49.5q0 39 -9 61q-10 25 -29 25q-29 0 -39 -45q-5 -27 -5 -81z" />
    <glyph glyph-name="ntilde" unicode="&#xf1;" 
d="M140 2h-38q-18 0 -26 -1q-2 0 -7 -0.5t-8 -0.5q-29 0 -29 35q0 5 1 32t1 32q0 8 -1.5 56.5t-1.5 57.5q0 21 2 65q2 22 4 64q0 3 -0.5 23t-0.5 24q0 2 0.5 18.5t0.5 19.5q0 4 -1.5 31.5t-1.5 32.5q0 36 5 45q9 16 30 16q12 0 21 -1q5 0 12.5 -0.5t8.5 -0.5q23 0 41 2
q3 0 9 0.5t9 0.5q14 0 19 -8q2 -2 3 -7.5t2 -6.5q2 -7 6 -7l4 2q3 2 6.5 4.5t4.5 2.5q39 25 82 25q58 0 97 -43q35 -38 35 -117q0 -3 -1 -21t-1 -22t0.5 -28t0.5 -29t-1 -36t-1 -37q0 -4 0.5 -27t0.5 -28q0 -4 -1 -30t-1 -31q0 -3 1 -21.5t1 -22.5q0 -32 -6.5 -48t-26.5 -16
q-2 0 -22 1.5t-24 1.5t-27 -1.5t-27 -1.5q-16 0 -23 5q-13 13 -13 25q0 6 2.5 44t2.5 45q0 8 -1.5 53.5t-1.5 54.5q0 29 1 43q1 9 2 27t2 27v26q0 41 -32 41q-31 0 -33 -38q-5 -67 -5 -107q0 -4 1 -29t1 -30q0 -14 -1.5 -43.5t-1.5 -44.5q0 -14 2 -50q1 -6 1 -18
q0 -32 -23 -32q-1 0 -16.5 1t-17.5 1zM83 618q0 3 0.5 8.5t0.5 7.5q2 38 9 49q16 24 56 24q19 0 44 -7q4 -1 24.5 -6.5t38 -10.5t19.5 -5q7 0 12 5q1 2 3 6.5t3 6.5q4 6 16 5q2 0 13 -1t13 -1q3 0 11 0.5t11 0.5q24 0 24 -24q0 -51 -10 -66q-15 -26 -47 -26q-31 0 -91 21
q-36 12 -46 12q-5 0 -7 -2t-4 -8.5t-3 -8.5q-6 -8 -21 -8q-6 0 -24 2q-1 0 -8.5 -0.5t-9.5 -0.5q-8 0 -13 1t-9.5 7.5t-4.5 18.5z" />
    <glyph glyph-name="ograve" unicode="&#xf2;" 
d="M23 289q0 44 4 66q7 49 15 73q2 9 7 22.5t19 36t32 36.5q51 41 131 41q87 0 138 -48q29 -29 42 -58q16 -36 20.5 -73t4.5 -108q0 -75 -14 -131q-6 -29 -18.5 -54.5t-34 -50t-56 -38.5t-79.5 -14q-97 0 -143 44q-60 55 -67 171q-1 15 -1 85zM268 338q0 21 -8.5 44
t-29.5 23q-26 0 -38 -48q-5 -28 -4 -77q0 -3 -0.5 -21t-0.5 -21q0 -83 39 -83q13 0 24 12t14 33q4 23 4 138zM252 590h-6q-2 0 -13.5 -1t-14.5 -1q-9 0 -24 15q-19 21 -44 46q-34 33 -34 41q0 13 27 13q3 0 24 -0.5t25 -0.5q22 0 33 1q27 3 28 3q20 0 30 -33q8 -22 22 -55
q5 -8 5 -15q0 -14 -21 -14q-2 0 -18 0.5t-19 0.5z" />
    <glyph glyph-name="oacute" unicode="&#xf3;" 
d="M23 289q0 44 4 66q7 49 15 73q2 9 7 22.5t19 36t32 36.5q51 41 131 41q87 0 138 -48q29 -29 42 -58q16 -36 20.5 -73t4.5 -108q0 -75 -14 -131q-6 -29 -18.5 -54.5t-34 -50t-56 -38.5t-79.5 -14q-97 0 -143 44q-60 55 -67 171q-1 15 -1 85zM268 338q0 21 -8.5 44
t-29.5 23q-26 0 -38 -48q-5 -28 -4 -77q0 -3 -0.5 -21t-0.5 -21q0 -83 39 -83q13 0 24 12t14 33q4 23 4 138zM213 590h-7q-3 0 -19.5 -0.5t-19.5 -0.5q-20 0 -20 14q0 7 5 15q1 2 10 25t10 26q7 20 13 28t20 8q3 0 9 -0.5t10 -0.5q8 -2 46 -2q7 0 21 0.5t21 0.5
q12 0 16.5 -0.5t8 -3.5t3.5 -9q0 -9 -22 -30q-25 -23 -54 -55q-16 -17 -26 -17q-1 0 -12 1t-13 1z" />
    <glyph glyph-name="ocircumflex" unicode="&#xf4;" 
d="M23 289q0 44 4 66q7 49 15 73q2 9 7 22.5t19 36t32 36.5q51 41 131 41q87 0 138 -48q29 -29 42 -58q16 -36 20.5 -73t4.5 -108q0 -75 -14 -131q-6 -29 -18.5 -54.5t-34 -50t-56 -38.5t-79.5 -14q-97 0 -143 44q-60 55 -67 171q-1 15 -1 85zM268 338q0 21 -8.5 44
t-29.5 23q-26 0 -38 -48q-5 -28 -4 -77q0 -3 -0.5 -21t-0.5 -21q0 -83 39 -83q13 0 24 12t14 33q4 23 4 138zM75 607q0 6 17 21q13 12 42 49q10 13 15 18t13.5 9t20.5 4q3 0 16 -1t16 -1h20q3 0 22 1t23 1q8 0 16 -3q8 -4 13.5 -10t21.5 -28q25 -30 32 -37q21 -21 21 -27
q0 -11 -15 -11q-5 0 -8 1l-9 1q-10 0 -20.5 0.5t-13.5 0.5q-2 0 -17 -1t-17 -1q-12 0 -17 3.5t-19 20.5q-14 19 -21 19q-3 0 -16 -17q-12 -16 -17.5 -20t-17.5 -4q-1 0 -11.5 0.5t-12.5 0.5q-40 0 -51 -1q-3 -1 -9 -1q-17 0 -17 13z" />
    <glyph glyph-name="otilde" unicode="&#xf5;" 
d="M23 289q0 44 4 66q7 49 15 73q2 9 7 22.5t19 36t32 36.5q51 41 131 41q87 0 138 -48q29 -29 42 -58q16 -36 20.5 -73t4.5 -108q0 -75 -14 -131q-6 -29 -18.5 -54.5t-34 -50t-56 -38.5t-79.5 -14q-97 0 -143 44q-60 55 -67 171q-1 15 -1 85zM268 338q0 21 -8.5 44
t-29.5 23q-26 0 -38 -48q-5 -28 -4 -77q0 -3 -0.5 -21t-0.5 -21q0 -83 39 -83q13 0 24 12t14 33q4 23 4 138zM83 618q0 3 0.5 8.5t0.5 7.5q2 38 9 49q16 24 56 24q19 0 44 -7q4 -1 24.5 -6.5t38 -10.5t19.5 -5q7 0 12 5q1 2 3 6.5t3 6.5q4 6 16 5q2 0 13 -1t13 -1
q3 0 11 0.5t11 0.5q24 0 24 -24q0 -51 -10 -66q-15 -26 -47 -26q-31 0 -91 21q-36 12 -46 12q-5 0 -7 -2t-4 -8.5t-3 -8.5q-6 -8 -21 -8q-6 0 -24 2q-1 0 -8.5 -0.5t-9.5 -0.5q-8 0 -13 1t-9.5 7.5t-4.5 18.5z" />
    <glyph glyph-name="odieresis" unicode="&#xf6;" 
d="M23 289q0 44 4 66q7 49 15 73q2 9 7 22.5t19 36t32 36.5q51 41 131 41q87 0 138 -48q29 -29 42 -58q16 -36 20.5 -73t4.5 -108q0 -75 -14 -131q-6 -29 -18.5 -54.5t-34 -50t-56 -38.5t-79.5 -14q-97 0 -143 44q-60 55 -67 171q-1 15 -1 85zM268 338q0 21 -8.5 44
t-29.5 23q-26 0 -38 -48q-5 -28 -4 -77q0 -3 -0.5 -21t-0.5 -21q0 -83 39 -83q13 0 24 12t14 33q4 23 4 138zM45 680q0 20 20 23h45q2 0 16 -0.5t17 -0.5q2 0 18.5 0.5t19.5 0.5q15 0 20 -6t5 -18q-1 -13 -1 -53q0 -25 -29 -25q-2 0 -14.5 0.5t-14.5 0.5q-3 0 -24 0.5
t-24 0.5t-15 -0.5t-15 -0.5q-24 0 -24 21q0 3 1 16t1 15t-1 13t-1 13zM232 684q0 18 16 18q4 0 6 -1h79q5 0 18.5 0.5t18.5 0.5q25 0 25 -18q0 -1 -0.5 -13.5t-0.5 -15.5v-29q0 -24 -44 -24q-3 0 -21 1t-22 1q-7 0 -20 -0.5t-19 -0.5q-21 0 -28.5 3.5t-7.5 20.5
q0 1 0.5 12.5t0.5 13.5q0 5 -0.5 15t-0.5 16z" />
    <glyph glyph-name="oslash" unicode="&#xf8;" 
d="M359 532q6 8 13 18q8 17 21 17q10 0 26 -14t16 -25q0 -3 -6 -15q-16 -25 -24 -42q19 -41 26 -83q4 -29 4 -50q0 -88 -3 -119t-14 -74q-5 -20 -9.5 -33.5t-15.5 -36t-30.5 -39t-45.5 -27.5q-29 -12 -46 -14.5t-64 -2.5q-58 0 -103 35q-17 -25 -23 -32q-8 -9 -14 -9t-34 22
q-11 8 -11 19q0 7 12 22l21 30q-20 39 -26.5 69t-6.5 89q0 100 13 168.5t56 111.5q50 49 135 49q79 0 133 -34zM185 272q22 34 34 52q2 3 9 12t14.5 20t8.5 13q10 14 10 19q0 7 -9 14.5t-22 7.5q-15 0 -24.5 -8.5t-13 -26.5t-4.5 -28.5t-2 -30.5q0 -8 -0.5 -22t-0.5 -22z
M274 282q-3 -5 -31 -45.5t-33 -49.5q-12 -18 -12 -20q0 -5 10 -11.5t21 -6.5q14 0 23 7t13 21t5.5 23.5t2.5 26.5q2 22 2 34q0 13 -1 21z" />
    <glyph glyph-name="ugrave" unicode="&#xf9;" 
d="M67 547h16q12 -2 66 -2q1 0 12 1t13 1q25 0 25 -29q0 -13 -2 -29q-2 -22 -2 -27q0 -4 1.5 -31.5t1.5 -32.5q0 -14 -1 -21q0 -9 -2 -29q0 -5 -0.5 -39t-0.5 -40q0 -11 1 -33t1 -33q0 -16 -1 -24q-1 -5 -1 -15q0 -14 8 -22.5t19 -8.5q35 0 35 70q0 2 -0.5 18.5t-0.5 19.5
q0 5 2 38t2 39q0 5 -1.5 34.5t-1.5 35.5q0 8 1 26t1 26q0 6 -2 36t-2 36q0 22 15 31q6 4 32 4q2 0 17.5 -1t18.5 -1q4 0 28.5 0.5t29.5 0.5q31 0 31 -24q0 -4 -1.5 -32t-1.5 -34q0 -4 1 -33.5t1 -35.5q0 -12 -1 -36t-1 -37q0 -3 0.5 -26t0.5 -28q0 -6 -1.5 -42.5t-1.5 -43.5
q0 -4 1 -24t1 -23t-0.5 -21.5t-0.5 -22.5t1 -29t1 -30q0 -23 -29 -23q-3 0 -26 1t-28 1t-29.5 -1.5t-26.5 -1.5q-11 0 -14 7q-2 2 -2.5 7t-1.5 7q-2 8 -10 8q-4 0 -19 -10q-37 -24 -95 -24q-74 2 -100 53q-11 21 -11 56q0 3 1.5 21.5t1.5 22.5q0 7 -2 51.5t-2 53.5t2.5 65.5
t2.5 67.5q0 17 -2 51q-3 42 -3 69q0 41 36 41zM252 590h-6q-2 0 -13.5 -1t-14.5 -1q-9 0 -24 15q-19 21 -44 46q-34 33 -34 41q0 13 27 13q3 0 24 -0.5t25 -0.5q22 0 33 1q27 3 28 3q20 0 30 -33q8 -22 22 -55q5 -8 5 -15q0 -14 -21 -14q-2 0 -18 0.5t-19 0.5z" />
    <glyph glyph-name="uacute" unicode="&#xfa;" 
d="M67 547h16q12 -2 66 -2q1 0 12 1t13 1q25 0 25 -29q0 -13 -2 -29q-2 -22 -2 -27q0 -4 1.5 -31.5t1.5 -32.5q0 -14 -1 -21q0 -9 -2 -29q0 -5 -0.5 -39t-0.5 -40q0 -11 1 -33t1 -33q0 -16 -1 -24q-1 -5 -1 -15q0 -14 8 -22.5t19 -8.5q35 0 35 70q0 2 -0.5 18.5t-0.5 19.5
q0 5 2 38t2 39q0 5 -1.5 34.5t-1.5 35.5q0 8 1 26t1 26q0 6 -2 36t-2 36q0 22 15 31q6 4 32 4q2 0 17.5 -1t18.5 -1q4 0 28.5 0.5t29.5 0.5q31 0 31 -24q0 -4 -1.5 -32t-1.5 -34q0 -4 1 -33.5t1 -35.5q0 -12 -1 -36t-1 -37q0 -3 0.5 -26t0.5 -28q0 -6 -1.5 -42.5t-1.5 -43.5
q0 -4 1 -24t1 -23t-0.5 -21.5t-0.5 -22.5t1 -29t1 -30q0 -23 -29 -23q-3 0 -26 1t-28 1t-29.5 -1.5t-26.5 -1.5q-11 0 -14 7q-2 2 -2.5 7t-1.5 7q-2 8 -10 8q-4 0 -19 -10q-37 -24 -95 -24q-74 2 -100 53q-11 21 -11 56q0 3 1.5 21.5t1.5 22.5q0 7 -2 51.5t-2 53.5t2.5 65.5
t2.5 67.5q0 17 -2 51q-3 42 -3 69q0 41 36 41zM213 590h-7q-3 0 -19.5 -0.5t-19.5 -0.5q-20 0 -20 14q0 7 5 15q1 2 10 25t10 26q7 20 13 28t20 8q3 0 9 -0.5t10 -0.5q8 -2 46 -2q7 0 21 0.5t21 0.5q12 0 16.5 -0.5t8 -3.5t3.5 -9q0 -9 -22 -30q-25 -23 -54 -55
q-16 -17 -26 -17q-1 0 -12 1t-13 1z" />
    <glyph glyph-name="ucircumflex" unicode="&#xfb;" 
d="M67 547h16q12 -2 66 -2q1 0 12 1t13 1q25 0 25 -29q0 -13 -2 -29q-2 -22 -2 -27q0 -4 1.5 -31.5t1.5 -32.5q0 -14 -1 -21q0 -9 -2 -29q0 -5 -0.5 -39t-0.5 -40q0 -11 1 -33t1 -33q0 -16 -1 -24q-1 -5 -1 -15q0 -14 8 -22.5t19 -8.5q35 0 35 70q0 2 -0.5 18.5t-0.5 19.5
q0 5 2 38t2 39q0 5 -1.5 34.5t-1.5 35.5q0 8 1 26t1 26q0 6 -2 36t-2 36q0 22 15 31q6 4 32 4q2 0 17.5 -1t18.5 -1q4 0 28.5 0.5t29.5 0.5q31 0 31 -24q0 -4 -1.5 -32t-1.5 -34q0 -4 1 -33.5t1 -35.5q0 -12 -1 -36t-1 -37q0 -3 0.5 -26t0.5 -28q0 -6 -1.5 -42.5t-1.5 -43.5
q0 -4 1 -24t1 -23t-0.5 -21.5t-0.5 -22.5t1 -29t1 -30q0 -23 -29 -23q-3 0 -26 1t-28 1t-29.5 -1.5t-26.5 -1.5q-11 0 -14 7q-2 2 -2.5 7t-1.5 7q-2 8 -10 8q-4 0 -19 -10q-37 -24 -95 -24q-74 2 -100 53q-11 21 -11 56q0 3 1.5 21.5t1.5 22.5q0 7 -2 51.5t-2 53.5t2.5 65.5
t2.5 67.5q0 17 -2 51q-3 42 -3 69q0 41 36 41zM75 607q0 6 17 21q13 12 42 49q10 13 15 18t13.5 9t20.5 4q3 0 16 -1t16 -1h20q3 0 22 1t23 1q8 0 16 -3q8 -4 13.5 -10t21.5 -28q25 -30 32 -37q21 -21 21 -27q0 -11 -15 -11q-5 0 -8 1l-9 1q-10 0 -20.5 0.5t-13.5 0.5
q-2 0 -17 -1t-17 -1q-12 0 -17 3.5t-19 20.5q-14 19 -21 19q-3 0 -16 -17q-12 -16 -17.5 -20t-17.5 -4q-1 0 -11.5 0.5t-12.5 0.5q-40 0 -51 -1q-3 -1 -9 -1q-17 0 -17 13z" />
    <glyph glyph-name="udieresis" unicode="&#xfc;" 
d="M67 547h16q12 -2 66 -2q1 0 12 1t13 1q25 0 25 -29q0 -13 -2 -29q-2 -22 -2 -27q0 -4 1.5 -31.5t1.5 -32.5q0 -14 -1 -21q0 -9 -2 -29q0 -5 -0.5 -39t-0.5 -40q0 -11 1 -33t1 -33q0 -16 -1 -24q-1 -5 -1 -15q0 -14 8 -22.5t19 -8.5q35 0 35 70q0 2 -0.5 18.5t-0.5 19.5
q0 5 2 38t2 39q0 5 -1.5 34.5t-1.5 35.5q0 8 1 26t1 26q0 6 -2 36t-2 36q0 22 15 31q6 4 32 4q2 0 17.5 -1t18.5 -1q4 0 28.5 0.5t29.5 0.5q31 0 31 -24q0 -4 -1.5 -32t-1.5 -34q0 -4 1 -33.5t1 -35.5q0 -12 -1 -36t-1 -37q0 -3 0.5 -26t0.5 -28q0 -6 -1.5 -42.5t-1.5 -43.5
q0 -4 1 -24t1 -23t-0.5 -21.5t-0.5 -22.5t1 -29t1 -30q0 -23 -29 -23q-3 0 -26 1t-28 1t-29.5 -1.5t-26.5 -1.5q-11 0 -14 7q-2 2 -2.5 7t-1.5 7q-2 8 -10 8q-4 0 -19 -10q-37 -24 -95 -24q-74 2 -100 53q-11 21 -11 56q0 3 1.5 21.5t1.5 22.5q0 7 -2 51.5t-2 53.5t2.5 65.5
t2.5 67.5q0 17 -2 51q-3 42 -3 69q0 41 36 41zM58 680q0 20 20 23h12.5h20.5h12q2 0 16 -0.5t17 -0.5q2 0 18.5 0.5t19.5 0.5q15 0 20 -6t5 -18q-1 -13 -1 -53q0 -25 -29 -25q-2 0 -14.5 0.5t-14.5 0.5q-4 0 -24 0.5t-24 0.5q-2 0 -15 -0.5t-15 -0.5q-24 0 -24 21q0 3 1 16
t1 15t-1 13t-1 13zM245 684q0 18 16 18q4 0 6 -1h79q5 0 18.5 0.5t18.5 0.5q25 0 25 -18q0 -1 -0.5 -13.5t-0.5 -15.5v-29q0 -24 -44 -24q-3 0 -21 1t-22 1q-6 0 -19 -0.5t-20 -0.5q-21 0 -28.5 3.5t-7.5 20.5q0 1 0.5 12.5t0.5 13.5q0 5 -0.5 15t-0.5 16z" />
    <glyph glyph-name="yacute" unicode="&#xfd;" horiz-adv-x="375" 
d="M221 474l2 40q0 37 27 39q2 0 16 -0.5t17 -0.5q1 0 11 0.5t12 0.5q19 0 27 -2q1 0 10 0.5t11 0.5q9 0 17 -7t8 -22q-4 -72 -5 -75q0 -2 -6 -31q-2 -7 -9.5 -42.5t-8.5 -40.5q-2 -8 -15 -62q-16 -67 -19 -79q-2 -7 -21 -61l-6 -24q-19 -70 -26.5 -90t-24.5 -43
q-36 -47 -100 -56q-22 -2 -81 -2q-24 0 -39 13q-8 7 -9.5 12.5t-2.5 25.5v79q0 12 2 16q7 14 30 14q5 0 13 -2l6 -2t5 -1l2 -1q15 0 20 15q1 2 1 16v8q-2 8 -7 33q-5 29 -18 74q-5 16 -14 55q-8 47 -9 52q-1 6 -3.5 17t-3.5 16q-6 33 -15 69q-15 65 -15 98q0 29 26 29
q6 0 9 -1q12 -1 36 -1q26 0 39 1q2 0 16 1t17 1q23 0 27 -23q0 -5 2 -29.5t2 -28.5q0 -9 6.5 -61.5t7.5 -62.5q0 -45 8 -45l3 6q10 67 10 72q1 4 3 27t2 27q1 5 3.5 18t3.5 20zM170 590h-7q-3 0 -19.5 -0.5t-19.5 -0.5q-20 0 -20 14q0 7 5 15q1 2 10 25t10 26q7 20 13 28
t20 8q3 0 9 -0.5t10 -0.5q8 -2 46 -2q7 0 21 0.5t21 0.5q12 0 16.5 -0.5t8 -3.5t3.5 -9q0 -9 -22 -30q-25 -23 -54 -55q-16 -17 -26 -17q-1 0 -12 1t-13 1z" />
    <glyph glyph-name="thorn" unicode="&#xfe;" 
d="M32 369v59q0 7 -1.5 48t-1.5 49q0 6 1.5 43t1.5 44q0 3 -1 25t-1 26q0 43 35 43q1 0 10.5 -1t11.5 -1q6 -1 18 -1q16 0 31.5 0.5t16.5 0.5q12 2 18 2q13 0 19.5 -7t7.5 -13.5t1 -19.5q0 -5 -2 -33.5t-2 -34.5v-64q2 -8 5 -8q1 0 2.5 0.5t3.5 1.5t3 1q3 2 7.5 6t5.5 5
q20 15 56 15t72 -21q8 -5 15.5 -11.5t13 -13t9.5 -12t6 -9.5l3 -4q10 -17 20.5 -53.5t12.5 -52.5q4 -25 4 -137q0 -38 -5 -63q-13 -62 -31 -98q-19 -37 -55.5 -63.5t-78.5 -26.5q-19 0 -37 7q-1 0 -12 4.5t-14 4.5q-10 0 -10 -32q0 -2 0.5 -17.5t0.5 -18.5q0 -26 -25 -26
q-9 0 -13 1q-1 0 -17 0.5t-37 0.5q-2 0 -17 -0.5t-18 -0.5q-16 0 -24.5 7t-9.5 12.5t-1 13.5q0 5 1.5 80t1.5 90q0 24 -2 74q0 7 -0.5 21t-0.5 21q0 5 1.5 38.5t1.5 40.5q0 9 -0.5 28.5t-0.5 29.5zM234 379q-40 0 -40 -119q0 -99 38 -99q14 0 24 13q16 21 16 102q0 51 -6 72
q-7 31 -32 31z" />
    <glyph glyph-name="ydieresis" unicode="&#xff;" horiz-adv-x="375" 
d="M221 474l2 40q0 37 27 39q2 0 16 -0.5t17 -0.5q1 0 11 0.5t12 0.5q19 0 27 -2q1 0 10 0.5t11 0.5q9 0 17 -7t8 -22q-4 -72 -5 -75q0 -2 -6 -31q-2 -7 -9.5 -42.5t-8.5 -40.5q-2 -8 -15 -62q-16 -67 -19 -79q-2 -7 -21 -61l-6 -24q-19 -70 -26.5 -90t-24.5 -43
q-36 -47 -100 -56q-22 -2 -81 -2q-24 0 -39 13q-8 7 -9.5 12.5t-2.5 25.5v79q0 12 2 16q7 14 30 14q5 0 13 -2l6 -2t5 -1l2 -1q15 0 20 15q1 2 1 16v8q-2 8 -7 33q-5 29 -18 74q-5 16 -14 55q-8 47 -9 52q-1 6 -3.5 17t-3.5 16q-6 33 -15 69q-15 65 -15 98q0 29 26 29
q6 0 9 -1q12 -1 36 -1q26 0 39 1q2 0 16 1t17 1q23 0 27 -23q0 -5 2 -29.5t2 -28.5q0 -9 6.5 -61.5t7.5 -62.5q0 -45 8 -45l3 6q10 67 10 72q1 4 3 27t2 27q1 5 3.5 18t3.5 20zM10 681q0 20 20 23h45q2 0 16 -0.5t17 -0.5q2 0 18.5 0.5t19.5 0.5q15 0 20 -6t5 -18
q-1 -13 -1 -53q0 -25 -29 -25q-2 0 -14.5 0.5t-14.5 0.5q-4 0 -24 0.5t-24 0.5q-2 0 -15 -0.5t-15 -0.5q-24 0 -24 21q0 2 1 15t1 16q0 2 -1 13t-1 13zM197 685q0 18 16 18q4 0 6 -1h79q5 0 18.5 0.5t18.5 0.5q25 0 25 -18q0 -1 -0.5 -13.5t-0.5 -15.5v-29q0 -24 -44 -24
q-3 0 -21 1t-22 1q-6 0 -19 -0.5t-20 -0.5q-15 0 -21 1t-10.5 6t-4.5 17q0 1 0.5 12.5t0.5 13.5q0 5 -0.5 15t-0.5 16z" />
    <glyph glyph-name="dotlessi" unicode="&#x131;" horiz-adv-x="229" 
d="M158 553q21 0 30.5 -7t9.5 -32q0 -3 -0.5 -10.5t-0.5 -11.5q-2 -28 -2 -42q0 -6 0.5 -42.5t0.5 -43.5q0 -5 -0.5 -38t-0.5 -39q0 -4 1 -27t1 -28v-39v-98q0 -70 -2 -78q-2 -10 -10.5 -13.5t-32.5 -3.5q-3 0 -23.5 1t-24.5 1q-20 0 -30 -1q-5 -1 -14 -1q-21 0 -28 16
q-3 7 -3 44q0 4 1 30.5t1 31.5q0 10 -1 29.5t-1 28.5q0 4 0.5 28.5t0.5 29.5t0.5 36t0.5 37t-1 43t-1 44q0 4 0.5 31.5t0.5 33.5q0 2 -0.5 17.5t-0.5 18.5q0 27 2.5 35t12.5 14q7 3 58 3q4 0 27.5 1t28.5 1z" />
    <glyph glyph-name="Lslash" unicode="&#x141;" horiz-adv-x="396" 
d="M34 383v35v27v35.5v27.5q0 7 1.5 49t1.5 50q0 4 -1 32t-1 34q0 36 37 36q3 0 23.5 -1.5t24.5 -1.5q1 0 10.5 0.5t15.5 0.5q12 1 27 1q46 0 46 -28l-1 -10q-1 -11 -1 -16q-4 -43 -4 -73q0 -7 0.5 -50t0.5 -51t-1 -12q-2 -6 -2 -7q0 -7 7 -7l8 8q1 2 11.5 10t22.5 16.5
t14 10.5q21 19 31 19q11 0 11 -15q0 -7 -1 -10q0 -3 -0.5 -9t-0.5 -9t0.5 -21.5t0.5 -19.5q0 -9 -1.5 -14.5t-4 -8t-9.5 -7.5q-2 -1 -16 -12t-17 -13q-15 -15 -39 -31q-11 -8 -13.5 -13.5t-2.5 -26.5q0 -3 1.5 -24.5t1.5 -25.5q0 -1 -0.5 -12t-0.5 -13q0 -51 42 -58
q3 -1 27 -1q1 0 10 -0.5t10 -0.5q3 0 17 1t16 1q26 0 34 -13.5t8 -52.5q0 -5 -1 -37t-1 -38q0 -35 -33 -35q-4 0 -28 1.5t-29 1.5q-3 0 -20.5 -0.5t-20.5 -0.5q-8 0 -57 0.5t-58 0.5q-4 0 -27 -1.5t-27 -1.5q-20 0 -30.5 6.5t-12.5 14t-2 20.5v29q3 63 3 64q0 2 -0.5 15
t-0.5 16l1 5v6q0 16 -8 16q-1 0 -2 -1t-3 -2.5t-3 -2.5q-3 -3 -7 -3q-11 0 -11 13v21q0 4 -0.5 26.5t-0.5 26.5q0 7 3 12.5t6 8.5t15 13q8 6 10.5 12.5t2.5 27.5q0 14 -2 40z" />
    <glyph glyph-name="lslash" unicode="&#x142;" horiz-adv-x="229" 
d="M115 705q3 0 25.5 0.5t26.5 0.5q31 0 31 -29q0 -11 -1 -19q-3 -35 -3 -53q0 -5 1 -34.5t1 -35.5q-1 -8 -1 -31q0 -7 2 -7q4 0 14 10q6 3 8 3q11 0 11 -16q0 -2 -0.5 -16t-0.5 -17v-33q0 -11 -4 -17t-19 -17q-8 -6 -10 -12.5t-2 -34.5q0 -11 1.5 -79t1.5 -81
q0 -5 -0.5 -36t-0.5 -37q0 -5 1.5 -36.5t1.5 -37.5q0 -28 -7.5 -34.5t-27.5 -6.5q-4 0 -30 0.5t-30 0.5q-3 0 -20 -0.5t-21 -0.5q-29 0 -33 22q-1 2 -1 22q0 5 1.5 38t1.5 39t-1 40.5t-1 41.5q0 2 0.5 13t0.5 13q0 1 -0.5 8.5t-0.5 9.5q0 6 -2 6q-1 0 -8.5 -4.5t-9.5 -4.5
q-9 0 -9 12q0 1 1 16.5t1 18.5q0 2 -1.5 19t-1.5 20q0 15 21 30q9 6 9 17v20v44.5v28.5v51q0 5 1 39t1 41q0 12 -2 40q0 3 -0.5 9.5t-0.5 9.5q0 24 5 34t23 11q7 1 58 1z" />
    <glyph glyph-name="OE" unicode="&#x152;" horiz-adv-x="708" 
d="M269 -8h-10q-105 0 -161 49q-38 32 -52 106q-16 80 -16 216q0 24 2 87q1 40 2.5 61.5t9 52.5t23.5 59q22 41 73 68t124 27q2 0 53 -3q5 0 34 -4.5t35 -5.5q46 -3 81 -2h62q3 0 18.5 -0.5t18.5 -0.5q25 0 61 3q11 1 24 1q16 0 21 -8q7 -7 7 -27q0 -3 -0.5 -9t-0.5 -9
q-2 -20 -2 -67q0 -41 -30 -41q-6 0 -43 -0.5t-44 -0.5q-49 0 -60 -8t-11 -47q0 -45 33 -45q1 0 12 0.5t13 0.5t16 -0.5t16 -0.5q4 0 12 0.5t13 0.5q3 0 10 -0.5t11 -0.5q2 0 9 0.5t9 0.5q27 0 27 -35v-88q0 -8 -2 -16.5t-10 -18t-22 -9.5q-7 0 -47 2t-48 2q-36 0 -46 -15
q-5 -9 -5 -47t16 -46q10 -6 41.5 -9.5t45.5 -3.5q2 0 18.5 1.5t19.5 1.5q5 1 17 1q11 0 16 -1t12.5 -6t10.5 -17t3 -32q0 -4 -1 -29t-1 -30v-11q0 -28 -16 -38q-8 -4 -42 -4q-72 0 -116 2q-38 2 -56 2q-9 0 -53.5 -1t-52.5 -1q-9 -1 -38 -3.5t-44 -3.5zM260 548
q-23 0 -37 -19q-10 -13 -12 -35t-2 -89q0 -26 1.5 -72t2.5 -82l1 -36q5 -56 47 -56q18 0 28.5 6.5t15 22t5.5 28.5t1 39q0 21 -1 77t-1 78q0 78 -4 97q-3 17 -15 29t-30 12z" />
    <glyph glyph-name="oe" unicode="&#x153;" horiz-adv-x="708" 
d="M367 524q68 28 116 28q16 0 52 -6q56 -10 88 -35q29 -22 48.5 -63t19.5 -85q0 -6 -1 -39t-1 -40q0 -1 0.5 -12t0.5 -13q0 -19 -12 -34t-30 -15q-2 0 -16 0.5t-17 0.5q-11 0 -32 -0.5t-31 -0.5q-5 0 -36 1.5t-37 1.5q-20 0 -24 -2q-13 -5 -13 -22q0 -21 23 -38
q26 -18 79 -18q35 0 56 7l39 12q3 1 7 1q27 0 31 -25v-15t-0.5 -22.5t-0.5 -16.5q0 -2 0.5 -15t0.5 -16q0 -10 -3 -16q-5 -9 -40 -21q-32 -12 -101 -12q-79 0 -127 17q-20 7 -34 15q-2 0 -4 -1t-4 -1q-1 0 -10 -4t-11 -5q-35 -15 -53.5 -17.5t-78.5 -2.5q-34 0 -67 12.5
t-46 21.5t-18 14q-30 27 -43 70.5t-13 81.5q0 9 0.5 26.5t0.5 25.5q0 4 -1 28.5t-1 29.5q0 1 3 55q3 39 8 60q17 69 69 101q51 31 115 31q63 0 107 -11q21 -6 42 -17zM531 346v30q0 27 -13.5 38.5t-29.5 11.5q-23 0 -34 -17q-3 -3 -10 -28q-6 -21 -6 -32q0 -15 7 -21.5
t15 -6.5q4 0 13.5 1t13.5 1q10 1 25 1q6 0 9.5 0.5t7 6t2.5 15.5zM191 271v-50q0 -3 -0.5 -22t-0.5 -23q0 -25 12 -34.5t25 -9.5q23 0 37 17q11 15 11 73q0 4 -2 31t-2 32q0 7 1 20t1 19q1 10 1 30q0 32 -8 45q-11 18 -32 18q-44 0 -44 -83q0 -3 1 -20.5t1 -20.5t-0.5 -10.5
t-0.5 -11.5z" />
    <glyph glyph-name="Scaron" unicode="&#x160;" horiz-adv-x="417" 
d="M23 503q0 70 17 109q25 57 75 81q52 23 122 23h40t32.5 -1.5t28.5 -4t19.5 -7t14.5 -12t4 -18.5q0 -1 -0.5 -16t-1 -32t-0.5 -22q0 -2 0.5 -17t0.5 -18q0 -38 -38 -38h-7q-3 0 -40 11q-15 4 -35 4q-44 0 -44 -36q0 -19 11 -33t48 -47q5 -5 18.5 -17.5t18.5 -17.5
q14 -12 19 -17q48 -47 64.5 -83t16.5 -86q0 -92 -27 -132q-37 -56 -107 -75q-42 -11 -111 -11q-97 0 -129 23q-17 12 -17 31q0 4 1.5 31t1.5 32q0 3 -1 22t-1 23q0 45 36 45q25 0 39 -12q2 -2 5.5 -5t6.5 -5.5t6 -4.5q15 -10 48 -10q59 0 59 37q0 16 -10.5 28.5t-59.5 59.5
q-41 41 -45 44q-39 36 -56 67q-16 28 -19.5 49t-3.5 58zM55 853q0 11 13 11h8q7 -1 8 -1q3 0 19.5 -1t20.5 -1q2 0 15 1t15 1q16 0 29 -15q2 -2 5.5 -6.5t5.5 -7.5q9 -15 17 -15q4 0 10 10q16 21 23 26t19 5q3 0 16 -0.5t15 -0.5q4 0 26.5 1t26.5 1q6 0 10 -3t5 -5.5t1 -4.5
q0 -4 -13 -17q-9 -8 -48 -55q-15 -17 -23.5 -22t-27.5 -5q-3 0 -18.5 0.5t-17.5 0.5q-8 0 -23.5 -1t-22.5 -1q-23 0 -32 6t-29 33q-16 23 -37 43q-16 16 -16 23z" />
    <glyph glyph-name="scaron" unicode="&#x161;" horiz-adv-x="375" 
d="M334 436l-1 -14q0 -8 -10.5 -16.5t-20.5 -8.5q-4 0 -7 1q-2 0 -31 12q-19 8 -30 8q-13 0 -22.5 -6.5t-9.5 -15.5t6 -15q6 -8 34 -22q7 -4 33.5 -19.5t30.5 -17.5q8 -7 18 -20q1 -1 3.5 -4t3.5 -5q35 -39 35 -110q0 -57 -27 -105q-47 -85 -188 -85q-60 0 -108 17
q-21 8 -25 17t-4 40q0 5 -0.5 35t-0.5 36q0 41 37 41q8 0 25 -8q24 -12 58 -12q50 0 50 28q0 15 -18 29q-5 4 -52 35q-34 22 -44 30q-29 28 -39.5 54.5t-10.5 67.5q0 39 14 68q11 22 19.5 34t27 28.5t50 24t76.5 7.5q29 0 89 -5q40 -5 40 -35q0 -5 -2 -17q-1 -7 -1 -23
q0 -3 1 -24t1 -25zM64 708h31q2 0 18.5 0.5t19.5 0.5q14 0 28 -15q2 -3 5.5 -7.5t5.5 -6.5q11 -15 16 -15t11 10q5 7 10 13q12 17 25 18h8.5h14.5h9q4 0 29.5 0.5t30.5 0.5q14 0 14 -12q1 -4 -11 -16q-17 -16 -42 -47q-19 -25 -27.5 -31t-26.5 -6q-3 0 -18.5 0.5t-18.5 0.5
t-25 -1t-26 -1q-17 0 -25.5 3.5t-20.5 16.5q-6 7 -15.5 20t-12.5 17q-14 18 -23 26q-15 14 -15 21q0 12 16 12q5 0 15 -2z" />
    <glyph glyph-name="Ydieresis" unicode="&#x178;" horiz-adv-x="479" 
d="M219 0l-34 -1q-35 0 -35 33v52q0 2 -0.5 14t-0.5 14q0 3 1.5 23.5t1.5 24.5q0 7 -1 21.5t-1 21.5v28q0 9 -2 25q-1 6 -25 85q-19 58 -46 118q-17 39 -29 75q-17 59 -35 103q-15 39 -15 44q0 3 2 9q6 17 27 17q3 0 25.5 -1t26.5 -1q5 0 35.5 1t36.5 1q17 0 27 -11
q10 -13 23 -66l9 -45q1 -3 6 -21t10 -35t6 -23q7 -28 10 -28q7 0 9 13q4 34 19 76q7 18 18 71q8 46 17 58t35 12q10 0 28 -1t27 -1q3 0 21 0.5t22 0.5q19 0 26 -4q15 -9 15 -25t-8 -40q-13 -52 -49 -147q-8 -18 -9 -23q-2 -5 -5.5 -15.5l-5.5 -16.5q-8 -20 -12 -31
q-16 -44 -29 -74q-26 -60 -29 -73q-4 -16 -4 -36q0 -6 0.5 -18.5t0.5 -19.5q0 -5 -1.5 -34.5t-1.5 -35.5q0 -5 1 -34.5t1 -35.5q0 -41 -26 -43h-40q-3 0 -21 -0.5t-22 -0.5zM62 833q0 24 30 24q4 0 27.5 -1.5t28.5 -1.5q3 0 22.5 0.5t23.5 0.5q29 0 29 -18q0 -3 -0.5 -15
t-0.5 -14v-29q0 -25 -35 -25q-5 0 -38.5 1t-39.5 1q-2 0 -12 -0.5t-11 -0.5q-24 0 -24 22q0 1 0.5 4t0.5 5q1 5 1 19q0 2 -1 13.5t-1 14.5zM249 835q0 9 4 13.5t9.5 4t10.5 -0.5h15q3 0 25.5 -0.5t26.5 -0.5t24 1t23 1q25 0 25 -17v-5q-2 -8 -2 -24q0 -3 0.5 -15t0.5 -15
q0 -25 -32 -25q-4 0 -26.5 1.5t-27.5 1.5q-2 0 -19.5 -0.5t-20.5 -0.5q-20 0 -27 2.5t-9 14.5v8t0.5 12.5t0.5 8.5q0 2 -0.5 17t-0.5 18z" />
    <glyph glyph-name="Zcaron" unicode="&#x17d;" horiz-adv-x="437" 
d="M120 537h-33q-1 0 -7 -0.5t-7 -0.5q-12 0 -21.5 10t-9.5 20q0 2 0.5 11t0.5 10t0.5 12t0.5 13q0 7 -0.5 20.5t-0.5 20.5q0 28 2 34q4 10 12 15t14.5 5.5t20.5 0.5q8 0 56.5 -0.5t57.5 -0.5q4 0 26 0.5t27 0.5q4 0 29 -1t30 -1h18q3 0 24 0.5t25 0.5q13 0 25 -6.5
t13 -20.5q2 -18 2 -84q0 -13 -4 -24t-26 -59q-3 -6 -7 -17.5t-5 -13.5q-12 -26 -19 -39q-38 -67 -47 -85q-10 -17 -18 -38q-17 -41 -38 -79q-24 -48 -24 -59q0 -14 15 -14q2 0 16 0.5t16 0.5q42 3 101 3q40 0 40 -31q0 -3 -0.5 -22.5t-0.5 -23.5t0.5 -26.5t0.5 -27.5
q0 -15 -4 -27q-15 -15 -26 -15q-1 0 -21 2q-24 2 -36 2q-4 0 -28 -1t-29 -1q-9 0 -27.5 0.5t-28.5 0.5q-3 0 -22 -0.5t-23 -0.5q-3 0 -25.5 0.5t-27.5 0.5h-28q-6 0 -24 -1t-25 -1q-22 0 -31 10.5t-9 31.5q0 6 -0.5 37t-0.5 36q0 16 15 41q24 42 47 94q19 41 42 84
q18 32 25 49q11 23 23 45q38 66 38 91q0 14 -10 18l-9 1h-11q-3 0 -24 -0.5t-25 -0.5zM76 853q0 11 13 11h7q8 -1 9 -1q3 0 19.5 -1t20.5 -1q2 0 15 1t15 1q16 0 29 -15q2 -2 5.5 -6.5t5.5 -7.5q9 -15 17 -15q4 0 10 10q16 21 23 26t19 5q2 0 15 -0.5t16 -0.5q4 0 26.5 1
t26.5 1q6 0 10 -3t5 -5.5t1 -4.5q0 -4 -13 -17q-9 -8 -48 -55q-15 -17 -23.5 -22t-27.5 -5q-3 0 -18.5 0.5t-17.5 0.5q-8 0 -23.5 -1t-22.5 -1q-23 0 -32 6t-29 33q-16 23 -37 43q-16 16 -16 23z" />
    <glyph glyph-name="zcaron" unicode="&#x17e;" horiz-adv-x="354" 
d="M28 516q0 32 34 32q2 0 18.5 -1t19.5 -1q4 0 27.5 0.5t28.5 0.5q3 0 26 -0.5t28 -0.5q11 0 32.5 0.5t32.5 0.5q37 0 45 -1q25 -2 25 -29v-60q0 -15 -10 -31q-27 -54 -32 -65q-3 -7 -9 -22t-10 -23q-21 -46 -46 -92q-17 -32 -17 -45q0 -17 31 -17q41 0 53 2q8 2 13 2
q23 0 23 -21q0 -4 -2 -14q-4 -12 -4 -67q0 -17 1 -25q2 -8 2 -13q0 -10 -8 -18.5t-20 -8.5q-2 0 -15 1.5t-16 1.5q-17 0 -59 -1.5t-58 -1.5q-12 0 -36 0.5t-35 0.5q-3 0 -21 -0.5t-22 -0.5q-37 0 -37 36q0 4 0.5 27t0.5 27q0 20 16 44q15 23 31 67q18 44 29 66q21 39 49 88
q5 10 5 17q0 13 -18 16q-1 0 -11.5 -0.5t-12.5 -0.5q-5 0 -17 1t-18 1h-11q-13 0 -21 8t-8 20q2 36 2 39q1 12 1 61zM65 708h31q2 0 18.5 0.5t19.5 0.5q14 0 28 -15q2 -3 5.5 -7.5t5.5 -6.5q11 -15 16 -15t11 10q5 7 10 13q12 17 25 18h32q4 0 29.5 0.5t30.5 0.5
q14 0 14 -12q1 -4 -11 -16q-17 -16 -42 -47q-19 -25 -27.5 -31t-26.5 -6q-3 0 -18.5 0.5t-18.5 0.5t-25 -1t-26 -1q-17 0 -25.5 3.5t-20.5 16.5q-6 7 -15.5 20t-12.5 17q-14 18 -23 26q-15 14 -15 21q0 12 16 12q5 0 15 -2z" />
    <glyph glyph-name="florin" unicode="&#x192;" horiz-adv-x="375" 
d="M240 31l-4 -28q-2 -12 -12 -31.5t-21 -28.5q-1 -1 -3 -2.5t-4.5 -3t-3.5 -2.5t-3 -3.5t-3 -3.5q-22 -18 -89 -18q-3 0 -27 2q-6 0 -16 0.5t-11 0.5t-8 -0.5t-9 -0.5q-31 0 -31 34q0 8 2.5 24t2.5 23q1 3 1 11q0 2 -1 12.5t-1 12.5q0 11 8 19t20 8q1 0 9 -0.5t10 -0.5
q23 0 31 26q7 24 13 126l3 69q6 54 6 65q0 15 -5 20l-15 3q-13 6 -13 24q0 4 3.5 27.5t3.5 28.5q2 22 2 54q0 12 12 18q2 1 7.5 1t7.5 2q7 4 9 25q0 8 2 20q1 9 1 29t2 30q2 16 9 29q13 25 29.5 38.5t28.5 16t30 2.5h21h2l1 -1h2h6q3 0 20.5 2t21.5 2q3 0 16 -0.5t16 -0.5
q15 0 23 -7q12 -9 12 -29v-2q-1 -7 -4 -20.5t-4 -18.5v-10.5t-1 -9.5q0 -29 -5 -37t-21 -10q-30 -4 -36 -11q-7 -7 -7 -22q0 -18 37 -18q1 0 5.5 0.5t5.5 0.5q19 0 19 -20v-1q-1 -7 -5 -19q-8 -36 -8 -77v-18q0 -8 -3.5 -13t-6.5 -6t-5 -1h-16q-20 0 -27.5 -5t-10.5 -20
l-4 -53q-4 -53 -4 -57q0 -2 0.5 -18.5t0.5 -19.5q0 -12 -1 -18t-2 -16t-2 -16q-1 -4 -1.5 -12.5t-0.5 -12.5q-6 -48 -6 -59q0 -16 -1 -24z" />
    <glyph glyph-name="circumflex" unicode="&#x2c6;" horiz-adv-x="271" 
d="M-19 607q0 6 17 21q13 12 42 49q10 13 15 18t13.5 9t20.5 4q3 0 16.5 -1t15.5 -1h20q3 0 22 1t23 1q9 0 16 -3q8 -4 13.5 -10t21.5 -28q25 -30 32 -37q21 -21 21 -27q0 -11 -15 -11q-5 0 -8 1l-9 1q-10 0 -20.5 0.5t-13.5 0.5q-2 0 -17 -1t-17 -1q-12 0 -17 3.5t-19 20.5
q-14 19 -21 19q-3 0 -16 -17q-12 -16 -17.5 -20t-17.5 -4q-1 0 -11.5 0.5t-12.5 0.5q-40 0 -51 -1q-3 -1 -9 -1q-17 0 -17 13z" />
    <glyph glyph-name="caron" unicode="&#x2c7;" horiz-adv-x="271" 
d="M13 708h31q2 0 18.5 0.5t19.5 0.5q14 0 28 -15q2 -3 5.5 -7.5t5.5 -6.5q11 -15 16 -15t11 10q4 7 10 13q12 17 25 18h32q4 0 29.5 0.5t30.5 0.5q14 0 14 -12q1 -4 -11 -16q-17 -16 -42 -47q-19 -25 -27.5 -31t-26.5 -6q-3 0 -18.5 0.5t-18.5 0.5t-25 -1t-26 -1
q-17 0 -25.5 3.5t-20.5 16.5q-6 7 -15.5 20t-12.5 17q-14 18 -23 26q-15 14 -15 21q0 12 16 12q5 0 15 -2z" />
    <glyph glyph-name="breve" unicode="&#x2d8;" horiz-adv-x="271" 
d="M-6 687q0 22 20 22q1 0 11 -1t12 -1q3 0 17 1t16 1q19 0 23 -13q0 -2 0.5 -5t1.5 -5q7 -26 42 -26q32 0 41 26q5 19 15 22h24h6q2 0 17 0.5t18 0.5q20 0 20 -23q0 -40 -29 -63q-36 -27 -120 -27q-88 0 -119 38q-16 21 -16 53z" />
    <glyph glyph-name="dotaccent" unicode="&#x2d9;" horiz-adv-x="271" 
d="M54 682q0 20 16 20q3 0 24.5 -0.5t25.5 -0.5q51 0 61 1q2 0 6 0.5t6 0.5q24 0 24 -18q0 -2 -0.5 -14.5t-0.5 -14.5v-28q0 -11 -6.5 -17t-14 -7.5t-21.5 -1.5q-3 0 -22.5 1t-23.5 1q-2 0 -19.5 -0.5t-20.5 -0.5q-14 0 -19.5 1t-10 6.5t-4.5 17.5q0 1 0.5 12t0.5 13
q0 5 -0.5 14.5t-0.5 14.5z" />
    <glyph glyph-name="ring" unicode="&#x2da;" horiz-adv-x="271" 
d="M34 690q0 26 21 53q30 36 78 36q38 0 65 -16q39 -21 39 -78q0 -29 -13 -49q-12 -20 -41.5 -32t-49.5 -12q-10 0 -21.5 2.5t-31.5 10.5t-33 30t-13 55zM137 718q-18 0 -26 -11.5t-8 -23.5q0 -11 8 -19.5t25 -8.5q31 0 31 34q0 13 -8.5 21t-21.5 8z" />
    <glyph glyph-name="ogonek" unicode="&#x2db;" horiz-adv-x="271" 
d="M136 12l78 4q-36 -36 -47 -57l-3 -6t-4 -6q-8 -13 -8 -16q0 -13 18 -13q7 0 10 1q6 2 9 2q12 0 12 -17v-26q0 -1 0.5 -7t0.5 -7q0 -11 -15 -17q-2 -1 -7 -1t-8 -1q-2 -1 -6.5 -2t-6.5 -1q-15 -5 -36 -5q-23 0 -41 12q-6 5 -16 21.5t-10 28.5q0 34 20 55q5 6 16 15t16 14
q1 1 3.5 4t3.5 5q3 3 21 20z" />
    <glyph glyph-name="tilde" unicode="&#x2dc;" horiz-adv-x="271" 
d="M-13 618q0 3 0.5 8.5t0.5 7.5q2 38 9 49q16 24 56 24q19 0 44 -7q4 -1 24.5 -6.5t38 -10.5t19.5 -5q7 0 12 5q1 2 3 6.5t3 6.5q4 6 16 5q2 0 13 -1t13 -1q4 0 11.5 0.5t10.5 0.5q24 0 24 -24q0 -51 -10 -66q-15 -26 -47 -26q-31 0 -91 21q-36 12 -46 12q-5 0 -7 -2
t-4 -8.5t-3 -8.5q-6 -8 -21 -8q-6 0 -24 2q-1 0 -8.5 -0.5t-9.5 -0.5q-8 0 -13 1t-9.5 7.5t-4.5 18.5z" />
    <glyph glyph-name="hungarumlaut" unicode="&#x2dd;" horiz-adv-x="271" 
d="M275 708q8 0 11.5 -0.5t8 -1.5t6 -4.5t1.5 -8.5q0 -8 -19 -26q-7 -6 -29.5 -29.5t-24.5 -27.5q-10 -12 -15 -16t-16 -4q-2 0 -10 0.5t-10 0.5t-14 -0.5t-15 -0.5q-20 0 -20 12q0 4 3 13q8 20 23 61q5 18 11.5 24.5t18.5 6.5q3 0 25 -1t26 -1q2 0 19 1.5t20 1.5zM37 593
h-21q-2 0 -15 -1t-15 -1q-16 0 -16 13q0 6 3 12q1 2 9 25t13 36q5 17 11.5 23.5t20.5 6.5q3 0 22.5 -1t23.5 -1q3 0 21.5 1t22.5 1q25 0 25 -14q0 -6 -4 -10q-4 -7 -34.5 -36.5t-33.5 -33.5q-10 -13 -15.5 -16.5t-17.5 -3.5z" />
    <glyph glyph-name="endash" unicode="&#x2013;" horiz-adv-x="500" 
d="M103 205h-66q-21 0 -21 20q0 4 1 26.5t1 27.5q0 19 -1 25q0 2 -1 10t-1 10q0 5 1.5 10t8.5 10t17 5q8 0 58 -2t59 -2q28 0 52 3q3 0 25.5 -1t26.5 -1q3 0 16 0.5t15 0.5q4 0 23 -1.5t22 -1.5q4 0 27.5 1.5t27.5 1.5h71q7 0 11 -2q8 -16 8 -20q0 -3 -1 -20t-1 -20
q0 -20 1 -23q0 -3 1 -17l1 -14q0 -10 -7 -18.5t-18 -8.5q-4 0 -31 0.5t-32 0.5q-3 0 -22.5 2t-23.5 2q-9 0 -27 -2t-27 -2h-42h-27q-4 0 -30 1.5t-31 1.5q-4 0 -31.5 -1.5t-32.5 -1.5z" />
    <glyph glyph-name="emdash" unicode="&#x2014;" horiz-adv-x="604" 
d="M556 204h-25q-24 0 -36 1q-3 0 -19.5 2t-19.5 2q-10 0 -26 -4h-29q-1 0 -10 -0.5t-11 -0.5t-16 1.5t-17 1.5t-21 -1.5t-22 -1.5q-3 0 -21 1t-22 1q-2 0 -19.5 -0.5t-21.5 -0.5q-3 0 -25.5 1t-26.5 1q-7 0 -15 -0.5t-18 -1.5t-16 -1q-8 -1 -23 -1q-58 0 -67 4
q-14 2 -14 22q0 2 1.5 16.5t1.5 17.5q0 5 -1.5 31t-1.5 27q0 13 8 19.5t17 7.5t29 1q38 0 58 -2h39q3 0 26 1.5t27 1.5h17q2 0 14.5 0.5t15.5 0.5q15 0 23 -1q27 -3 28 -3t10 0.5t10 0.5q2 0 14 -1t14 -1q3 0 19 1t18 1t17 -1.5t18 -1.5q4 0 27 1.5t27 1.5q3 0 18 -0.5
t17 -0.5t16.5 0.5t17.5 0.5q28 0 28 -25q0 -3 -1 -16t-1 -15q0 -3 1 -21t1 -22q0 -45 -32 -45z" />
    <glyph glyph-name="quoteleft" unicode="&#x2018;" horiz-adv-x="208" 
d="M22 569q0 24 28 82q13 27 21.5 40t11.5 15t7 3q1 0 7.5 -0.5t7.5 -0.5q3 0 19 0.5t19 0.5q21 0 21 -16q0 -5 -9 -26q-12 -30 -12 -40q0 -21 14 -30q5 -2 13 -4q15 -6 15 -31q0 -4 -0.5 -23t-0.5 -22q0 -47 -2 -56q-5 -28 -34 -28q-2 0 -13.5 0.5t-13.5 0.5q-4 0 -27 -1
t-27 -1q-44 0 -44 35q0 1 0.5 11t0.5 12q0 3 -0.5 19.5t-0.5 19.5q-1 9 -1 40z" />
    <glyph glyph-name="quoteright" unicode="&#x2019;" horiz-adv-x="208" 
d="M57 708h30q4 0 27.5 0.5t27.5 0.5q28 0 36 -16q4 -6 4 -44q0 -5 1 -36t1 -37q0 -19 -3 -28q-1 -4 -16.5 -37t-15.5 -34q-15 -30 -21 -37.5t-15 -7.5h-5q-6 1 -7 1q-2 0 -18.5 -0.5t-20.5 -0.5q-20 0 -20 17q0 4 1 6t9 22q11 22 11 39q0 18 -13 28q-3 1 -8.5 2.5t-8.5 3.5
q-11 11 -11 24v30q0 3 0.5 22.5t0.5 23.5v15q0 43 34 43z" />
    <glyph glyph-name="quotesinglbase" unicode="&#x201a;" horiz-adv-x="208" 
d="M88 179q4 0 27.5 1t27.5 1q23 0 36 -10q7 -7 9 -17.5t2 -49.5q0 -3 -0.5 -21.5t-0.5 -22.5v-25q0 -38 -38 -101q-8 -13 -17.5 -15.5t-51.5 -2.5q-1 0 -8.5 -0.5t-9.5 -0.5q-8 0 -12.5 5.5t-4.5 10.5q0 2 6 12q10 17 10 33q0 18 -13 26q-2 1 -7.5 1.5t-8.5 2.5
q-12 5 -12 21q0 1 0.5 10t0.5 11q0 1 -0.5 12.5t-0.5 13.5q0 12 1 19q0 3 -0.5 22.5t-0.5 23.5q0 41 40 41q1 0 12 -0.5t14 -0.5z" />
    <glyph glyph-name="quotedblleft" unicode="&#x201c;" horiz-adv-x="375" 
d="M14 514q0 58 2.5 73.5t14.5 41.5q1 1 14 26t15 30q13 24 27 24q21 0 31 -2q15 0 22 -1t12 -4.5t5 -10.5q0 -5 -10 -25q-13 -29 -13 -41q0 -18 13 -27q2 -1 6 -2.5t6 -2.5q9 -5 12.5 -15.5t3.5 -40.5q0 -58 -4 -77q-6 -26 -45 -26q-10 1 -70 1q-15 0 -24 4t-11.5 8.5
t-4.5 11.5q-2 8 -2 55zM199 507q0 74 6 93q2 7 24 52q18 41 24 49t18 8h23q47 0 47 -17q0 -8 -11 -26q-12 -30 -12 -41q0 -16 12 -25q2 -1 14 -6q13 -6 14 -22q1 -9 1 -50q0 -65 -11.5 -77t-66.5 -10q-2 0 -19 -0.5t-21 -0.5q-29 0 -35.5 14t-6.5 59z" />
    <glyph glyph-name="quotedblright" unicode="&#x201d;" horiz-adv-x="375" 
d="M200 621q0 54 7.5 71t36.5 17q3 0 22.5 -1t23.5 -1q2 0 14.5 0.5t15.5 0.5q34 0 39 -26q2 -10 2 -50q0 -65 -3 -83q-7 -25 -26 -58q-20 -38 -26 -47t-13 -10q-1 -1 -23 -1q-2 0 -14 1t-14 1q-24 3 -24 16q0 7 9 26q13 24 13 43q0 16 -13 25q-2 1 -8.5 4t-9.5 6q-2 2 -6 8
q-3 8 -3 58zM16 610q0 58 4 72q6 22 36 26h79q36 0 40 -32q0 -1 0.5 -25.5t0.5 -27.5q0 -59 -6 -78q-4 -14 -32 -71q-1 -3 -3 -7t-3 -7q-10 -20 -16.5 -23.5t-32.5 -3.5q-49 0 -49 19q0 4 5 13q18 36 18 52t-11 25q-3 2 -9 4l-9 3q-9 6 -10.5 15.5t-1.5 45.5z" />
    <glyph glyph-name="quotedblbase" unicode="&#x201e;" horiz-adv-x="375" 
d="M198 74q0 30 2 44q0 47 39 47q3 0 19.5 -1t19.5 -1h37q39 0 42 -25q2 -8 2 -44q0 -77 -3 -88q-8 -24 -26 -60q-20 -36 -26.5 -45.5t-13.5 -10.5h-19q-24 0 -42 3q-13 2 -13 14q0 7 9 25q13 30 13 42q0 17 -12 25q-3 2 -9.5 5t-9.5 6q-6 6 -7.5 16t-1.5 48zM14 67
q0 4 0.5 27t0.5 28q0 39 36 42h53h25q28 0 38 -12q7 -11 7 -70q0 -31 -2 -45q-1 -24 -6 -41t-29 -64q-6 -10 -8 -15q-8 -18 -14 -22.5t-22 -4.5q-27 0 -41 2q-10 1 -15 6t-5 10t10 25q13 39 13 42q0 17 -14 24q-2 2 -9.5 4.5t-10.5 5.5q-7 7 -7 58z" />
    <glyph glyph-name="bullet" unicode="&#x2022;" horiz-adv-x="333" 
d="M169 508q62 0 107.5 -42.5t45.5 -113.5q-1 -66 -43 -110.5t-109 -44.5q-71 0 -114.5 47.5t-43.5 107.5q0 63 45.5 109.5t111.5 46.5z" />
    <glyph glyph-name="ellipsis" unicode="&#x2026;" horiz-adv-x="1000" 
d="M81 107q0 40 4 51t13 16.5t20 5.5h24h20h32.5h20.5q17 0 25.5 -8t9.5 -14.5t1 -18.5q0 -4 -0.5 -30.5t-0.5 -31.5q0 -2 1 -15t1 -16q0 -20 -8.5 -31t-15.5 -12.5t-16 -1.5h-83q-47 0 -47 36v28q0 3 -0.5 21t-0.5 21zM414 107q0 40 4 51t13 16.5t20 5.5h24h20h32.5h20.5
q17 0 25.5 -8t9.5 -14.5t1 -18.5q0 -4 -0.5 -30.5t-0.5 -31.5q0 -2 1 -15t1 -16q0 -20 -8.5 -31t-15.5 -12.5t-16 -1.5h-83q-47 0 -47 36v28q0 3 -0.5 21t-0.5 21zM747 107q0 40 4 51t13 16.5t20 5.5h24h20h32.5h20.5q17 0 25.5 -8t9.5 -14.5t1 -18.5q0 -4 -0.5 -30.5
t-0.5 -31.5q0 -2 1 -15t1 -16q0 -20 -8.5 -31t-15.5 -12.5t-16 -1.5h-83q-47 0 -47 36v28q0 3 -0.5 21t-0.5 21z" />
    <glyph glyph-name="guilsinglleft" unicode="&#x2039;" horiz-adv-x="167" 
d="M143 154q0 -23 -15 -23q-7 0 -17 8q-10 7 -31.5 21t-29.5 19q-19 12 -22.5 17t-4.5 18v56q0 4 -0.5 26.5t-0.5 27.5q0 15 4 21t24 19q3 1 27.5 18.5t33.5 26.5q13 13 19 13q17 0 14 -21v-86q0 -11 -2.5 -14.5t-11.5 -8.5q-24 -10 -24 -18q0 -4 17 -13q15 -8 18 -14t2 -24
v-69z" />
    <glyph glyph-name="guilsinglright" unicode="&#x203a;" horiz-adv-x="167" 
d="M24 398q0 24 15 24q7 0 17 -8q16 -11 61 -40q18 -12 22 -17t5 -18v-56q0 -4 0.5 -27t0.5 -27q0 -15 -4 -21t-24 -19q-44 -30 -61 -45q-13 -13 -19 -13q-17 0 -14 21v86q0 11 2.5 14.5t11.5 8.5q24 10 24 18q0 5 -17 13q-15 7 -18 13.5t-2 24.5v68z" />
    <glyph glyph-name="trademark" unicode="&#x2122;" horiz-adv-x="688" 
d="M674 706v-332h-82l4 177q0 28 6 68q-10 -40 -14 -54l-56 -191h-75l-59 192q-10 35 -14 51q6 -47 7 -66l4 -177h-81v332h106l76 -240l71 240h107zM187 639v-265h-84v265h-102v67h286v-67h-100z" />
    <glyph glyph-name="fi" unicode="&#xfb01;" horiz-adv-x="500" 
d="M38 163v136q0 1 0.5 11t0.5 11q0 34 -13 38q-3 1 -8 1.5t-7 1.5q-9 4 -9 29q0 3 0.5 24t0.5 25q0 3 -0.5 22.5t-0.5 23.5q0 25 9 29q3 2 9.5 2t9.5 1q7 4 9 10v25q0 1 -0.5 12t-0.5 14q0 47 7 68q6 15 18.5 29.5t27.5 20.5q30 14 89 14q4 0 28.5 -1.5t29.5 -1.5
q21 -1 26.5 -9t5.5 -23q0 -3 -1 -24t-1 -25q0 -3 1.5 -17t1.5 -16q0 -28 -29 -28q-2 0 -7.5 0.5t-8.5 0.5q-29 0 -29 -28q0 -25 20 -25q1 0 8.5 0.5t9.5 0.5q33 0 33 -28q0 -7 -1 -27.5t-1 -28.5q0 -18 1 -28q2 -10 2 -17q0 -26 -32 -28q-22 -2 -30 -13t-8 -39q0 -49 1 -71
q4 -48 4 -81q0 -5 -0.5 -32.5t-0.5 -32.5q0 -3 1 -24t1 -25q0 -39 -30 -39q-4 0 -32 1t-33 1q-18 0 -26 -1q-12 -2 -18 -2q-11 0 -19 5q-11 7 -11 38q0 5 1.5 36.5t1.5 37.5q0 7 -0.5 23t-0.5 23zM301 666q0 23 8.5 33t30.5 10q4 0 31.5 -1t32.5 -1q2 0 14.5 1t15.5 1
q8 0 18 -5q12 -7 15 -27q0 -4 0.5 -22t0.5 -21q0 -26 -10 -36q-6 -7 -15.5 -8.5t-45.5 -1.5q-3 0 -20 0.5t-20 0.5q-1 0 -10 -0.5t-11 -0.5q-16 0 -24 8.5t-9 16.5t-1 22q0 2 -0.5 15t-0.5 16zM468 199v-61q0 -7 -0.5 -53.5t-0.5 -55.5q0 -18 -7 -23t-33 -5q-4 0 -25.5 0.5
t-24.5 0.5q-4 0 -23 -1t-22 -1q-15 0 -22.5 7.5t-8.5 16t-1 26.5q0 5 1 34.5t1 35.5q0 5 -0.5 38.5t-0.5 40.5t0.5 53t0.5 55q0 7 -1 48.5t-1 49.5q0 4 1 29t1 30q0 3 -1 20.5t-1 20.5q0 23 4 32.5t19 12.5q13 3 99 3q19 0 27 -1.5t14 -10.5t6 -28q0 -4 -0.5 -12t-0.5 -12
q-1 -13 -1 -38v-82q0 -6 -0.5 -40.5t-0.5 -41.5q0 -18 1 -27q2 -18 2 -28q0 -2 -0.5 -16t-0.5 -17z" />
    <glyph glyph-name="fl" unicode="&#xfb02;" horiz-adv-x="500" 
d="M38 163v136q0 2 0.5 11.5t0.5 11.5q0 33 -13 38q-2 0 -7 0.5t-8 1.5q-9 5 -9 30q0 4 0.5 24t0.5 24t-0.5 23.5t-0.5 22.5q0 25 9 30q3 1 9.5 1t9.5 1q8 4 9 11v24q0 2 -0.5 13t-0.5 13q0 47 7 68q6 15 18.5 29.5t27.5 20.5q30 14 89 14q4 0 28.5 -1.5t29.5 -1.5
q21 -1 26.5 -9t5.5 -23q0 -3 -1 -24t-1 -25q0 -3 1 -17t1 -16q0 -28 -28 -28q-2 0 -8 0.5t-8 0.5q-29 0 -29 -28q0 -25 20 -25q1 0 8.5 0.5t9.5 0.5q32 0 32 -28q0 -7 -0.5 -27.5t-0.5 -28.5q0 -18 1 -28q2 -10 2 -17q0 -26 -32 -28q-22 -2 -30 -13t-8 -39q0 -49 1 -71
q4 -44 4 -81q0 -4 -0.5 -31.5t-0.5 -33.5q0 -3 1 -23.5t1 -24.5q0 -40 -30 -40q-4 0 -32 1.5t-33 1.5q-10 0 -26 -2q-3 0 -9 -0.5t-9 -0.5q-11 0 -19 4q-11 7 -11 38q0 5 1.5 37t1.5 38q0 8 -0.5 23t-0.5 22zM338 706h58q2 0 19.5 0.5t21.5 0.5q32 0 32 -31v-10
q-4 -41 -4 -60q0 -5 0.5 -37.5t0.5 -38.5q0 -3 -0.5 -22t-0.5 -23v-137q0 -8 1.5 -55t1.5 -56v-56q0 -10 -0.5 -36t-0.5 -36q0 -5 1.5 -33.5t1.5 -34.5q0 -36 -19 -40q-3 -1 -25 -1q-3 0 -25.5 1t-26.5 1q-3 0 -20 -1t-20 -1q-33 0 -33 29q0 6 1 43t1 44q0 14 -0.5 43.5
t-0.5 44.5q0 5 0.5 34.5t0.5 35.5q0 51 -3 99q0 5 0.5 34.5t0.5 35.5q0 5 -0.5 33.5t-0.5 34.5t1.5 45t1.5 46q0 9 -2 41q-1 9 -1 18q0 29 7 36.5t31 8.5z" />
    </font>
</defs>
</svg>
